<?xml version="1.0" encoding="UTF-8"?><svg id="FINAL" xmlns="http://www.w3.org/2000/svg" viewBox="0 0 768 768"><defs><style>.cls-1{fill:#206346;}.cls-2{fill:#fcbb58;}.cls-3{fill:#e4393c;}.cls-4{fill:#fdf0e1;}</style></defs><path class="cls-3" d="M715.13,559.82c-1-12.93-7.63-24.54-18.25-31.86-6.74-4.64-14.6-7.35-22.73-7.83-.5-.03-1-.05-1.51-.06-6.3-.13-16.21-.19-30.31-.19-3.84,0-7.48,0-10.91,.01,.06-1.16,.09-2.33,.09-3.5,0-19.77-8-37.5-23.16-51.31-7.53-6.84-16.85-12.08-27.73-15.59-7.09-2.28-14.79-3.72-22.98-4.29,13.88-26.84,21.72-57.3,21.72-89.6,0-107.91-87.48-195.39-195.39-195.39s-195.39,87.48-195.39,195.39c0,33.23,8.31,64.52,22.94,91.92-3.23-.34-8.53-.46-25.04-.46-15.38,0-28.97,6.88-37.3,18.87-5.05,7.25-7.96,15.84-8.65,25.52-.01,.19-.03,.38-.04,.56-.34,6.06-.52,14.82-.53,26.75-3.7,0-8.8,.2-16.02,.61-20.47,1.1-38.01,9.85-50.71,25.32-11.38,13.85-17.4,30.61-17.4,48.46,0,16.88,4.31,31.7,12.81,44.05,.06,.08,.11,.16,.17,.24,6.3,9.01,14.84,15.93,25.36,20.57,8.9,3.92,18.95,5.91,29.87,5.91,15.18,0,26.49-.4,34.64-1.23,8.25-.86,14.99-3.14,20.48-6.07,2.88,1.27,5.88,2.43,9.02,3.43,9.89,3.18,20.74,4.79,32.25,4.79,.48,0,.96,0,1.45-.03,11.11-.41,21.63-2.57,31.27-6.41,3.52-1.4,6.86-3,10.03-4.76,12.79,7.43,27.7,11.2,44.45,11.2,10.41,0,20.51-1.98,29.86-5.78,4.79,2.08,9.97,3.37,15.33,3.74,.21,.01,.42,.03,.62,.04,6.63,.35,12.22,.52,17.07,.52s9.36-.11,13.52-.33c2.84-.15,5.59-.54,8.25-1.16,3.22,.76,6.54,1.17,9.9,1.21,3.5,.06,7,.1,10.4,.1s6.9-.03,10.42-.1c2.31-.03,4.56-.25,6.75-.63,1.74,.27,3.51,.45,5.31,.51,.47,.02,.94,.03,1.41,.03h9.18c.61,0,1.21-.01,1.82-.04,2.42-.11,4.82-.42,7.16-.9,4.68,1.66,9.69,2.52,14.86,2.52s10.18-.9,14.89-2.59c2.12,.47,4.29,.78,6.47,.93,3.62,.24,8.06,.36,13.56,.36,4.64,0,9.02-.03,13.02-.09,3.67-.04,7.28-.53,10.75-1.42,3.43,.82,6.99,1.24,10.6,1.24h57.23c5.43,0,10.7-1.05,15.61-3,4.25,1.61,8.78,2.61,13.44,2.92,.09,0,.18,.01,.27,.02,4.91,.29,10.28,.44,15.95,.44s10.9-.15,15.38-.46c11.4-.78,21.96-5.62,29.72-13.6,7.74-7.95,12.28-18.31,12.78-29.17,0-.18,.01-.35,.02-.53,.15-4.65,.24-9.52,.28-14.52,8.95-7.33,14.86-18.22,15.7-30.81,.02-.33,.04-.67,.05-1,.08-2.04,.12-4.13,.12-6.23,0-2.63-.08-4.99-.25-7.21Z"/><g><path class="cls-2" d="M664.75,366.31l7.28,26.73c.16,.58,.48,1.11,.93,1.51l20.55,18.58c1.85,1.67,1.12,4.73-1.29,5.38l-26.73,7.28c-.58,.16-1.11,.48-1.51,.93l-18.58,20.55c-1.67,1.85-4.73,1.12-5.38-1.29l-7.08-25.99c-.28-1.02-1.05-1.83-2.05-2.16l-147.57-48.87c-3.66-1.21-2.36-6.69,1.46-6.11l153.72,23.16c1.05,.16,2.1-.22,2.81-1l18.06-19.98c1.67-1.85,4.73-1.12,5.38,1.29Z"/><path class="cls-2" d="M595.58,195.94l20.2,13.64c.44,.3,.96,.46,1.49,.47l24.37,.59c2.19,.05,3.46,2.51,2.23,4.33l-13.64,20.2c-.3,.44-.46,.96-.47,1.49l-.59,24.37c-.05,2.19-2.51,3.46-4.33,2.23l-19.64-13.26c-.77-.52-1.75-.62-2.61-.27l-126.45,52.17c-3.14,1.3-5.41-3.1-2.54-4.91l115.78-72.84c.79-.5,1.27-1.35,1.3-2.28l.57-23.69c.05-2.19,2.51-3.46,4.33-2.23Z"/><path class="cls-2" d="M474.08,139.7l20.25-1.37c.44-.03,.86-.19,1.22-.45l16.31-12.07c1.47-1.09,3.56-.12,3.68,1.7l1.37,20.25c.03,.44,.19,.86,.45,1.22l12.07,16.31c1.09,1.47,.12,3.56-1.7,3.68l-19.69,1.33c-.77,.05-1.47,.49-1.85,1.16l-56.41,98.92c-1.4,2.46-5.14,.73-4.18-1.93l38.84-107.05c.26-.73,.15-1.54-.31-2.16l-11.74-15.86c-1.09-1.47-.12-3.56,1.7-3.68Z"/><path class="cls-2" d="M103.25,366.31l-7.28,26.73c-.16,.58-.48,1.11-.93,1.51l-20.55,18.58c-1.85,1.67-1.12,4.73,1.29,5.38l26.73,7.28c.58,.16,1.11,.48,1.51,.93l18.58,20.55c1.67,1.85,4.73,1.12,5.38-1.29l7.08-25.99c.28-1.02,1.05-1.83,2.05-2.16l147.57-48.87c3.66-1.21,2.36-6.69-1.46-6.11l-153.72,23.16c-1.05,.16-2.1-.22-2.81-1l-18.06-19.98c-1.67-1.85-4.73-1.12-5.38,1.29Z"/><path class="cls-2" d="M172.42,195.94l-20.2,13.64c-.44,.3-.96,.46-1.49,.47l-24.37,.59c-2.19,.05-3.46,2.51-2.23,4.33l13.64,20.2c.3,.44,.46,.96,.47,1.49l.59,24.37c.05,2.19,2.51,3.46,4.33,2.23l19.64-13.26c.77-.52,1.75-.62,2.61-.27l126.45,52.17c3.14,1.3,5.41-3.1,2.54-4.91l-115.78-72.84c-.79-.5-1.27-1.35-1.3-2.28l-.57-23.69c-.05-2.19-2.51-3.46-4.33-2.23Z"/><path class="cls-2" d="M293.92,139.7l-20.25-1.37c-.44-.03-.86-.19-1.22-.45l-16.31-12.07c-1.47-1.09-3.56-.12-3.68,1.7l-1.37,20.25c-.03,.44-.19,.86-.45,1.22l-12.07,16.31c-1.09,1.47-.12,3.56,1.7,3.68l19.69,1.33c.77,.05,1.47,.49,1.85,1.16l56.41,98.92c1.4,2.46,5.14,.73,4.18-1.93l-38.84-107.05c-.26-.73-.15-1.54,.31-2.16l11.74-15.86c1.09-1.47,.12-3.56-1.7-3.68Z"/></g><g><path class="cls-1" d="M221.46,383.11c.3-3.01,.67-6.82,1.07-10.62,.69-6.57,1.4-13.13,2.11-19.69,.69-6.42,1.39-12.84,2.08-19.26,.75-7.03,1.48-14.06,2.23-21.09,.83-7.82,1.68-15.64,2.52-23.46,.62-5.78,1.2-11.55,1.84-17.33,.77-7.03,1.25-14.11,2.46-21.06,1.52-8.73,6.49-15.35,14.04-20,6.11-3.76,12.76-4.88,19.84-4.16,6.39,.65,12.8,1.1,19.21,1.64,8.13,.69,16.26,1.38,24.39,2.07,7.27,.61,14.53,1.22,21.8,1.83,7.23,.61,14.46,1.23,21.69,1.84,9.89,.84,19.78,1.66,29.68,2.5,8.99,.76,17.98,1.54,26.98,2.3,9.78,.83,19.57,1.64,29.35,2.46,8.99,.76,17.98,1.54,26.98,2.3,8.06,.68,16.11,1.38,24.17,2.03,11.31,.91,19.72,6.24,25.13,16.27,5.8,10.73,11.67,21.43,17.47,32.17,2.86,5.28,3.66,10.95,3.02,16.88-.67,6.28-1.26,12.56-1.89,18.85-.7,7.04-1.41,14.07-2.1,21.11-.76,7.68-1.49,15.37-2.25,23.05-.76,7.68-1.54,15.36-2.3,23.05-.69,6.97-1.33,13.94-2.04,20.9-.59,5.81-.93,11.68-1.94,17.42-2.07,11.7-11.52,20.77-23.26,22.89-3.27,.59-6.54,.46-9.82,.15-7.76-.72-15.53-1.4-23.3-2.1-8.45-.76-16.9-1.54-25.34-2.3-7.51-.68-15.03-1.35-22.54-2.03-6.87-.62-13.73-1.26-20.6-1.87-7.59-.68-15.17-1.35-22.76-2.03-7.55-.68-15.1-1.36-22.65-2.05-7.62-.69-15.24-1.37-22.86-2.06-6.87-.62-13.73-1.26-20.6-1.87-7.59-.68-15.18-1.32-22.76-2.04-5.21-.49-10.43-.92-15.6-1.69-4.36-.65-8.22-2.68-11.6-5.49-10.5-8.72-21.01-17.44-31.42-26.27-6.89-5.84-10.26-13.41-10.43-23.23Zm215.09-131.06c-.37-.05-.64-.1-.92-.12-3.7-.31-7.4-.6-11.1-.92-6.39-.55-12.78-1.12-19.16-1.67-4.67-.4-9.34-.75-14-1.15-7.18-.61-14.36-1.26-21.53-1.87-3.88-.33-7.76-.61-11.64-.94-7.36-.63-14.72-1.28-22.07-1.91-4.56-.39-9.12-.74-13.68-1.12-6.35-.54-12.7-1.12-19.06-1.66-4.7-.4-9.41-.77-14.11-1.16-7.9-.65-15.79-1.39-23.7-1.91-8.8-.58-17.46,6.34-18.75,15.01-.77,5.2-1.21,10.45-1.78,15.68-.55,5.09-1.07,10.18-1.61,15.27-.54,5.09-1.1,10.18-1.64,15.27-.54,5.05-1.05,10.11-1.59,15.17-.62,5.81-1.26,11.61-1.88,17.42-.54,5.05-1.06,10.11-1.6,15.16-.62,5.84-1.25,11.69-1.88,17.53-.54,5.05-1.17,10.1-1.59,15.16-.22,2.6-.52,5.33,0,7.84,1.53,7.39,6.03,12.41,13.46,14.05,4.51,.99,9.22,1.11,13.84,1.55,5.1,.49,10.2,.9,15.3,1.35,7.04,.63,14.08,1.28,21.12,1.91,5.1,.46,10.2,.89,15.3,1.35,7.11,.63,14.22,1.28,21.33,1.92,5.03,.45,10.06,.88,15.09,1.33,6.25,.56,12.5,1.13,18.75,1.7,4.24,.38,8.48,.75,12.72,1.13,6.25,.56,12.5,1.12,18.75,1.69,4.45,.4,8.9,.82,13.36,1.21,2.5,.22,4.99,.41,7.55,.63,5.58-55.01,11.15-109.91,16.73-164.87Zm74.07,23.2c-.11-1.22-.17-2.3-.32-3.37-1.05-7.71-8.36-14.46-16.16-14.99-3.63-.25-7.25-.59-10.88-.9-7.32-.63-14.64-1.27-21.97-1.91-3.09-.27-6.17-.55-9.26-.81-2.8-.23-5.6-.42-8.4-.66-.58-.05-.86,.09-.91,.72-.12,1.51-.3,3.01-.45,4.52-.53,5.27-1.05,10.55-1.58,15.82-.63,6.24-1.28,12.48-1.91,18.72-.52,5.16-1.03,10.33-1.56,15.5-.63,6.24-1.28,12.48-1.91,18.72-.53,5.2-1.04,10.4-1.57,15.6-.55,5.42-1.11,10.83-1.66,16.25-.46,4.59-.9,9.19-1.36,13.78-.56,5.52-1.13,11.05-1.7,16.57-.47,4.59-.95,9.18-1.42,13.77-.45,4.41-.92,8.82-1.34,13.23-.16,1.73-.08,1.74,1.7,1.88,3.49,.28,6.97,.59,10.45,.9,6.32,.56,12.64,1.13,18.97,1.7,4.38,.4,8.76,.86,13.14,1.18,3.48,.26,6.98,.64,10.45,.47,7.32-.35,14.35-6.28,16.04-13.42,.65-2.75,.86-5.61,1.17-8.44,.6-5.48,1.14-10.96,1.69-16.45,.39-3.91,.75-7.82,1.14-11.73,.56-5.66,1.13-11.33,1.7-16.99,.45-4.55,.9-9.11,1.35-13.66,.56-5.59,1.13-11.18,1.68-16.78,.39-3.87,.75-7.74,1.14-11.61,.55-5.49,1.11-10.97,1.66-16.45,.34-3.37,.7-6.74,1.02-10.11,.36-3.73,.7-7.46,1.03-11.06Z"/><path class="cls-4" d="M436.54,252.05c-5.58,54.97-11.15,109.86-16.73,164.87-2.56-.21-5.06-.4-7.55-.63-4.45-.4-8.91-.81-13.36-1.21-6.25-.56-12.5-1.13-18.75-1.69-4.24-.38-8.48-.74-12.72-1.13-6.25-.56-12.5-1.14-18.75-1.7-5.03-.45-10.06-.89-15.09-1.33-7.11-.64-14.22-1.28-21.33-1.92-5.1-.45-10.2-.89-15.3-1.35-7.04-.63-14.08-1.28-21.12-1.91-5.1-.46-10.21-.86-15.3-1.35-4.63-.44-9.33-.56-13.84-1.55-7.43-1.64-11.94-6.66-13.46-14.05-.52-2.51-.22-5.24,0-7.84,.42-5.06,1.05-10.11,1.59-15.16,.63-5.84,1.26-11.69,1.88-17.53,.54-5.05,1.06-10.11,1.6-15.16,.62-5.81,1.26-11.61,1.88-17.42,.54-5.05,1.06-10.11,1.59-15.17,.54-5.09,1.1-10.18,1.64-15.27,.54-5.09,1.06-10.18,1.61-15.27,.57-5.23,1.01-10.48,1.78-15.68,1.29-8.67,9.95-15.59,18.75-15.01,7.91,.52,15.8,1.27,23.7,1.91,4.7,.38,9.41,.75,14.11,1.16,6.35,.54,12.7,1.12,19.06,1.66,4.56,.39,9.12,.74,13.68,1.12,7.36,.63,14.72,1.28,22.07,1.91,3.88,.33,7.76,.61,11.64,.94,7.18,.61,14.36,1.26,21.53,1.87,4.67,.4,9.34,.76,14,1.15,6.39,.54,12.78,1.12,19.16,1.67,3.7,.32,7.4,.61,11.1,.92,.28,.02,.55,.07,.92,.12Zm-153.12,7.11c-7.91,.12-13.61,3.61-17.25,10.47-1.33,2.5-1.7,5.24-1.97,8.02-.51,5.2-1.11,10.39-1.66,15.58-.39,3.69-.76,7.38-1.16,11.07-.55,5.16-1.11,10.31-1.66,15.47-.46,4.37-.91,8.74-1.38,13.12-.55,5.16-1.11,10.31-1.66,15.47-.41,3.83-.88,7.66-1.21,11.5-.22,2.57-.5,5.19-.28,7.74,.69,8.1,7.3,15.12,16.48,15.84,4.45,.35,8.9,.75,13.36,1.15,7.11,.63,14.21,1.28,21.31,1.91,6.5,.58,12.99,1.15,19.49,1.73,5.35,.48,10.69,.99,16.04,1.46,4.7,.41,9.41,.78,14.11,1.19,6.28,.55,12.56,1.13,18.84,1.69,3.52,.31,7.05,.49,10.55,.95,8.17,1.06,15.95-3.04,19.58-10.39,1.6-3.23,1.82-6.72,2.17-10.19,.54-5.27,1.06-10.55,1.6-15.82,.62-6.06,1.25-12.12,1.87-18.18,.54-5.27,1.06-10.55,1.59-15.82,.55-5.45,1.12-10.9,1.68-16.35,.48-4.66,1.03-9.32,1.42-13.99,.23-2.79,.56-5.63,.25-8.39-.95-8.33-8.02-14.81-16.37-15.38-2.95-.2-5.89-.48-8.84-.73-6.25-.54-12.5-1.1-18.75-1.63-4.71-.4-9.42-.77-14.13-1.17-6.32-.54-12.64-1.11-18.97-1.65-4.67-.4-9.35-.77-14.02-1.17-5.46-.47-10.92-.95-16.38-1.43-4.02-.35-8.05-.71-12.07-1.04-4.24-.36-8.48-.69-12.6-1.03Z"/><path class="cls-4" d="M510.61,275.26c-.33,3.6-.67,7.33-1.03,11.06-.33,3.37-.68,6.74-1.02,10.11-.56,5.48-1.12,10.97-1.66,16.45-.39,3.87-.75,7.74-1.14,11.61-.56,5.59-1.13,11.19-1.68,16.78-.45,4.55-.9,9.11-1.35,13.66-.56,5.66-1.14,11.33-1.7,16.99-.39,3.91-.75,7.82-1.14,11.73-.55,5.48-1.09,10.97-1.69,16.45-.31,2.82-.52,5.69-1.17,8.44-1.69,7.14-8.73,13.07-16.04,13.42-3.47,.17-6.97-.21-10.45-.47-4.39-.33-8.76-.79-13.14-1.18-6.32-.57-12.64-1.14-18.97-1.7-3.48-.31-6.97-.62-10.45-.9-1.78-.14-1.86-.15-1.7-1.88,.42-4.41,.89-8.82,1.34-13.23,.47-4.59,.95-9.18,1.42-13.77,.57-5.52,1.14-11.04,1.7-16.57,.46-4.59,.9-9.19,1.36-13.78,.55-5.42,1.11-10.83,1.66-16.25,.53-5.2,1.04-10.4,1.57-15.6,.63-6.24,1.28-12.48,1.91-18.72,.52-5.16,1.03-10.33,1.56-15.5,.63-6.24,1.28-12.48,1.91-18.72,.53-5.27,1.06-10.55,1.58-15.82,.15-1.51,.33-3.01,.45-4.52,.05-.63,.33-.77,.91-.72,2.8,.24,5.6,.43,8.4,.66,3.09,.26,6.17,.54,9.26,.81,7.32,.64,14.64,1.28,21.97,1.91,3.63,.31,7.25,.66,10.88,.9,7.8,.53,15.11,7.28,16.16,14.99,.14,1.07,.2,2.15,.32,3.37Zm-59.78,14.19c-.25,3.59,2.42,5.75,4.88,5.99,5.74,.55,11.48,1.03,17.22,1.53,4.88,.42,9.76,.81,14.64,1.26,2.98,.28,5.95-2.06,6.27-5.05,.28-2.58,.54-5.16,.8-7.74,.29-2.89-1.84-5.72-4.61-5.99-5.78-.55-11.56-1.03-17.34-1.53-4.74-.41-9.49-.78-14.22-1.26-3.49-.36-6.35,1.57-6.84,4.95-.38,2.6-.54,5.23-.79,7.85Zm-2.55,96.33c-.21,7.91,6.11,14.38,14.07,14.53,8.23,.15,15.23-6.28,15.13-15.01-.09-8.02-6.38-13.95-14.07-14.15-8.86-.22-15.24,7.04-15.13,14.63Zm18.42-52.22c-8.14,.01-14.72,6.61-14.7,14.73,.01,7.9,6.55,14.44,14.55,14.32,8.51-.13,14.7-6.93,14.72-14.8,.02-7.97-6.44-14.25-14.56-14.24Zm12.32-27.25c-.23,0-.34,0-.45,0-1.69,.01-2.8,.91-2.94,2.38-.14,1.49,.7,2.66,2.43,2.86,3.72,.42,7.45,.73,11.18,.99,1.67,.11,2.94-1.04,3.09-2.53,.12-1.28-1.05-2.61-2.66-2.77-3.59-.36-7.18-.62-10.65-.91Zm8,20.64v-.04c.22,.01,.44,.02,.65,.03,1.63,.11,3-.9,3.13-2.31,.15-1.62-.94-2.81-2.71-2.96-3.63-.32-7.25-.65-10.88-.98-1.51-.14-2.9,.94-3.08,2.41-.17,1.41,.9,2.76,2.43,2.91,3.48,.35,6.96,.64,10.44,.95Zm-36.15-8.55s0,.02,0,.03c-.14,0-.29,0-.43,0-1.57,.03-2.87,1.14-2.98,2.54-.1,1.26,1.01,2.44,2.57,2.68,.92,.14,1.86,.24,2.79,.32,2.8,.24,5.6,.52,8.4,.67,1.63,.09,2.87-1.08,2.94-2.55,.07-1.35-.98-2.61-2.51-2.76-3.59-.36-7.18-.63-10.78-.94Zm11.13-8.17c.52-.03,.99,0,1.45-.09,1.18-.21,2.23-1.46,2.21-2.6-.02-1.14-.98-2.39-2.15-2.51-3.91-.4-7.82-.76-11.74-1.04-1.49-.11-2.72,1.15-2.79,2.59-.07,1.33,.99,2.59,2.41,2.72,3.55,.34,7.11,.63,10.62,.93Z"/><path class="cls-1" d="M283.42,259.16c4.12,.34,8.36,.67,12.6,1.03,4.02,.34,8.05,.69,12.07,1.04,5.46,.48,10.92,.96,16.38,1.43,4.67,.4,9.35,.77,14.02,1.17,6.32,.54,12.64,1.11,18.97,1.65,4.71,.4,9.42,.77,14.13,1.17,6.25,.53,12.5,1.09,18.75,1.63,2.95,.25,5.89,.53,8.84,.73,8.35,.57,15.42,7.05,16.37,15.38,.31,2.75-.01,5.6-.25,8.39-.39,4.67-.94,9.33-1.42,13.99-.56,5.45-1.13,10.9-1.68,16.35-.54,5.27-1.06,10.55-1.59,15.82-.62,6.06-1.25,12.12-1.87,18.18-.54,5.27-1.06,10.55-1.6,15.82-.35,3.48-.58,6.96-2.17,10.19-3.63,7.35-11.41,11.45-19.58,10.39-3.5-.46-7.03-.63-10.55-.95-6.28-.56-12.56-1.14-18.84-1.69-4.7-.41-9.41-.78-14.11-1.19-5.35-.47-10.69-.98-16.04-1.46-6.49-.58-12.99-1.15-19.49-1.73-7.1-.63-14.21-1.28-21.31-1.91-4.45-.39-8.9-.8-13.36-1.15-9.18-.72-15.79-7.74-16.48-15.84-.22-2.56,.06-5.17,.28-7.74,.33-3.84,.8-7.67,1.21-11.5,.55-5.16,1.11-10.31,1.66-15.47,.46-4.37,.91-8.74,1.38-13.12,.55-5.16,1.11-10.31,1.66-15.47,.39-3.69,.76-7.38,1.16-11.07,.55-5.19,1.15-10.38,1.66-15.58,.27-2.78,.64-5.52,1.97-8.02,3.64-6.86,9.34-10.36,17.25-10.47Z"/><path class="cls-1" d="M450.83,289.45c.26-2.62,.42-5.25,.79-7.85,.49-3.38,3.35-5.3,6.84-4.95,4.73,.48,9.48,.84,14.22,1.26,5.78,.5,11.57,.98,17.34,1.53,2.77,.26,4.9,3.1,4.61,5.99-.26,2.58-.52,5.16-.8,7.74-.32,2.99-3.29,5.33-6.27,5.05-4.88-.45-9.76-.83-14.64-1.26-5.74-.5-11.48-.98-17.22-1.53-2.46-.24-5.13-2.4-4.88-5.99Z"/><path class="cls-1" d="M448.28,385.78c-.11-7.59,6.27-14.85,15.13-14.63,7.7,.19,13.98,6.12,14.07,14.15,.1,8.73-6.9,15.17-15.13,15.01-7.96-.15-14.28-6.62-14.07-14.53Z"/><path class="cls-1" d="M466.7,333.56c8.13-.01,14.59,6.27,14.56,14.24-.02,7.87-6.21,14.67-14.72,14.8-8.01,.12-14.54-6.41-14.55-14.32-.01-8.12,6.57-14.71,14.7-14.73Z"/><path class="cls-1" d="M479.01,306.32c3.47,.29,7.06,.55,10.65,.91,1.6,.16,2.78,1.49,2.66,2.77-.14,1.49-1.41,2.65-3.09,2.53-3.73-.25-7.46-.56-11.18-.99-1.73-.2-2.57-1.36-2.43-2.86,.14-1.46,1.25-2.36,2.94-2.38,.11,0,.22,0,.45,0Z"/><path class="cls-1" d="M487.02,326.96c-3.48-.31-6.96-.61-10.44-.95-1.53-.15-2.6-1.5-2.43-2.91,.18-1.46,1.57-2.55,3.08-2.41,3.62,.33,7.25,.66,10.88,.98,1.77,.16,2.86,1.34,2.71,2.96-.13,1.41-1.51,2.42-3.13,2.31-.22-.01-.43-.02-.65-.03v.04Z"/><path class="cls-1" d="M450.86,318.41c3.59,.31,7.19,.58,10.78,.94,1.53,.15,2.58,1.41,2.51,2.76-.08,1.46-1.31,2.64-2.94,2.55-2.8-.15-5.6-.43-8.4-.67-.93-.08-1.86-.18-2.79-.32-1.56-.23-2.67-1.41-2.57-2.68,.11-1.41,1.41-2.51,2.98-2.54,.14,0,.29,0,.43,0,0,0,0-.02,0-.03Z"/><path class="cls-1" d="M462,310.24c-3.51-.3-7.06-.59-10.62-.93-1.43-.14-2.48-1.4-2.41-2.72,.08-1.44,1.31-2.7,2.79-2.59,3.92,.28,7.83,.64,11.74,1.04,1.17,.12,2.13,1.37,2.15,2.51,.02,1.14-1.03,2.4-2.21,2.6-.46,.08-.94,.06-1.45,.09Z"/></g><g><g><path class="cls-2" d="M212.11,490.88c2.29,2.85,4.92,6.51,7.88,10.99,2.97,4.48,5.04,7.47,6.21,8.95,1.17,1.48,2.12,2.23,2.83,2.23s1.34-.4,1.9-1.21c.56-.8,2.6-3.89,6.12-9.28,3.52-5.38,6.43-9.48,8.72-12.29,2.29-2.81,4.11-4.25,5.47-4.31,1.36-.06,3.12-.09,5.29-.09s4.7,.06,7.61,.19c2.91,.12,4.84,.88,5.8,2.27,.96,1.39,1.53,3.36,1.72,5.89,.37,6.49,.56,15.11,.56,25.83s-.28,19.19-.83,25.37c-.12,1.48-.68,2.81-1.67,3.99-.99,1.18-2.35,1.76-4.08,1.76-3.77,.06-7.96,.09-12.57,.09s-8.27-.09-10.99-.28c-.99-.06-1.87-.45-2.64-1.16-.77-.71-1.19-1.65-1.25-2.83l-.56-15.31c-.06-1.48-.39-2.32-.97-2.5-.59-.19-1.13,.22-1.62,1.21-3.28,5.81-7.36,12.31-12.25,19.48-1.17,1.79-2.72,2.69-4.64,2.69s-3.49-.9-4.73-2.69c-2.17-3.09-5.84-9.65-11.04-19.67-.31-.62-.67-.99-1.07-1.11-.4-.12-.76,.03-1.07,.46-.31,.43-.46,1.14-.46,2.13l-.46,15.31c-.06,1.17-.59,2.12-1.58,2.83-.99,.71-2.13,1.1-3.43,1.16h-9.18c-1.67-.06-3.02-.65-4.04-1.76-1.02-1.11-1.62-2.38-1.81-3.8-.5-5.5-.74-14.05-.74-25.65s.15-20.11,.46-25.55c.19-2.6,.77-4.61,1.76-6.03,.99-1.42,2.75-2.13,5.29-2.13,12.99,0,20,.09,21.06,.28,1.05,.19,2.72,1.7,5.01,4.54Z"/><path class="cls-2" d="M287.8,486.06h24.86c2.6,0,4.31,.65,5.15,1.95,.83,1.3,1.39,3.97,1.67,8.03,.28,4.05,.42,11.9,.42,23.56s-.25,20.21-.74,25.65c-.19,1.42-.82,2.69-1.9,3.8-1.08,1.11-2.52,1.73-4.31,1.86-3.53,.25-7.61,.37-12.24,.37s-9.03-.12-13.17-.37c-1.79-.12-3.23-.74-4.31-1.86s-1.72-2.38-1.9-3.8c-.5-5.44-.74-13.99-.74-25.65s.14-19.51,.42-23.56,.83-6.73,1.67-8.03c.83-1.3,2.55-1.95,5.15-1.95Z"/><path class="cls-2" d="M383.53,549.41l-10.85-12.99c-1.11-1.36-2.26-2.04-3.43-2.04-1.42,0-2.13,1.18-2.13,3.53v8.81c0,1.11-.5,2.01-1.48,2.69-.99,.68-2.17,1.08-3.52,1.21-3.9,.25-8.3,.37-13.22,.37s-9.57-.12-13.96-.37c-1.85-.12-3.34-.76-4.45-1.9-1.11-1.14-1.73-2.43-1.86-3.85-.5-5.44-.74-13.9-.74-25.37s.14-19.25,.42-23.33,.83-6.79,1.67-8.12c.83-1.33,2.55-1.99,5.15-1.99h24.86c2.04,0,3.74,.8,5.1,2.41,1.36,1.61,2.04,3.59,2.04,5.94l.09,10.39c0,1.3,.34,1.95,1.02,1.95,.43,0,1.3-.52,2.6-1.58l18.18-16.98c1.48-1.42,3.26-2.15,5.33-2.18,2.07-.03,4.28-.04,6.63-.04l7.14,.09c.99,0,1.67,.46,2.04,1.39,.37,.93,.19,1.76-.56,2.5-7.11,7.11-14.22,13.7-21.33,19.76-.62,.56-.93,1.13-.93,1.72s.34,1.22,1.02,1.9l5.01,5.01c2.53,2.54,4.62,4.61,6.26,6.21,1.64,1.61,3.57,3.56,5.8,5.84,4.45,4.58,7.85,8.29,10.2,11.13,1.24,1.48,1.85,3,1.85,4.55,0,.56-.09,1.14-.28,1.76-.68,2.1-2.17,3.15-4.45,3.15h-24.95c-1.92,0-3.34-.53-4.27-1.58Z"/><path class="cls-2" d="M485.01,533.18c1.17,1.24,5.35,5.91,12.52,14.01,.43,.55,.65,1.05,.65,1.48,0,1.61-.71,2.41-2.13,2.41-3.28,.06-6.57,.09-9.88,.09s-6.6-.03-9.88-.09c-1.79,0-3.43-.71-4.92-2.13l-7.98-12.06c-.31-.37-.68-.62-1.11-.74-.99-.37-1.48,.03-1.48,1.21v9.46c0,2.66-1.75,4.08-5.24,4.27-3.49,.19-7.31,.28-11.46,.28s-9.15-.16-15.03-.46c-1.79-.12-3.23-.74-4.31-1.86s-1.72-2.38-1.9-3.8c-.5-5.44-.74-13.99-.74-25.65s.19-20.14,.56-25.46c.37-5.32,3.06-8.01,8.07-8.07,4.7-.06,11.1-.09,19.2-.09s14.81,.06,20.13,.19c7.67,.12,13.94,2.97,18.83,8.53,4.88,5.57,7.33,11.84,7.33,18.83,0,4.08-.94,7.86-2.83,11.32-1.89,3.46-4.68,6.25-8.39,8.35Zm-24.3-27.74l.19,17.16c0,1.17,.65,1.76,1.95,1.76,3.83,0,6.85-1.07,9.04-3.2,2.19-2.13,3.29-4.65,3.29-7.56s-1.04-5.41-3.11-7.51c-2.07-2.1-5.12-3.15-9.14-3.15-1.48,0-2.23,.83-2.23,2.5Z"/><path class="cls-2" d="M549.39,552.84c-7.48,0-14.25-.97-20.31-2.92-6.06-1.95-10.98-4.56-14.75-7.84-3.77-3.28-6.65-6.94-8.63-10.99-1.98-4.05-2.97-8.27-2.97-12.66s1-8.61,3.01-12.66c2.01-4.05,4.88-7.71,8.63-10.99,3.74-3.28,8.64-5.91,14.7-7.88,6.06-1.98,12.71-2.97,19.94-2.97s13.64,.9,19.2,2.69c5.57,1.79,10.05,4.24,13.45,7.33,6.92,6.31,10.39,13.79,10.39,22.45,0,4.39-.94,8.69-2.83,12.89-1.89,4.21-4.58,8.02-8.07,11.46-3.49,3.43-7.99,6.25-13.5,8.44-5.5,2.19-11.6,3.42-18.27,3.66Zm18.37-36.04c0-2.94-1.05-5.5-3.15-7.7-2.1-2.19-5.3-3.29-9.6-3.29s-7.71,1.15-10.25,3.43c-2.54,2.29-3.8,5.07-3.8,8.35s1.33,5.91,3.99,7.88c2.66,1.98,5.86,2.97,9.6,2.97s6.88-1.21,9.42-3.62c2.54-2.41,3.8-5.09,3.8-8.03Z"/><path class="cls-2" d="M149.22,574.08c-5.57,0-9.48,1.44-11.73,4.31-2.26,2.88-3.39,7.44-3.39,13.68,0,9.83,2.88,14.75,8.63,14.75,1.17,0,1.95-.03,2.32-.09-.74,0-1.35-1.3-1.81-3.9-.46-2.6-.7-5.32-.7-8.16s.77-4.69,2.32-5.52c1.54-.84,3.69-1.25,6.45-1.25s4.67,.02,5.75,.04c1.08,.03,2.32,.16,3.71,.37,1.39,.22,2.46,.54,3.2,.97,1.73,.99,2.6,2.47,2.6,4.45v13.54c0,4.82-.87,8.67-2.6,11.55-1.73,2.88-4.98,4.56-9.74,5.05-6.68,.68-16.88,1.02-30.61,1.02-5.5,0-10.22-.87-14.15-2.6-3.93-1.73-6.97-4.14-9.14-7.24-3.96-5.75-5.94-13.06-5.94-21.94s2.84-16.77,8.53-23.7c5.69-6.92,13.27-10.63,22.73-11.13,6.49-.37,11.19-.56,14.1-.56,10.58,0,18.09,.65,22.54,1.95,3.03,.87,4.55,3.31,4.55,7.33,0,5.38-1.58,8.07-4.73,8.07-.99-.06-2.97-.25-5.94-.56-2.97-.31-5.29-.46-6.96-.46Z"/><path class="cls-2" d="M219.99,625.84c-7.48,0-14.25-.97-20.31-2.92-6.06-1.95-10.98-4.56-14.75-7.84-3.77-3.28-6.65-6.94-8.63-10.99-1.98-4.05-2.97-8.27-2.97-12.66s1-8.61,3.01-12.66c2.01-4.05,4.88-7.71,8.63-10.99,3.74-3.28,8.64-5.91,14.7-7.88,6.06-1.98,12.71-2.97,19.94-2.97s13.64,.9,19.2,2.69c5.57,1.79,10.05,4.24,13.45,7.33,6.92,6.31,10.39,13.79,10.39,22.45,0,4.39-.94,8.69-2.83,12.89-1.89,4.21-4.58,8.02-8.07,11.46-3.49,3.43-7.99,6.25-13.5,8.44-5.5,2.19-11.6,3.42-18.27,3.66Zm18.37-36.04c0-2.94-1.05-5.5-3.15-7.7-2.1-2.19-5.3-3.29-9.6-3.29s-7.71,1.15-10.25,3.43c-2.54,2.29-3.8,5.07-3.8,8.35s1.33,5.91,3.99,7.88c2.66,1.98,5.86,2.97,9.6,2.97s6.88-1.21,9.42-3.62c2.54-2.41,3.8-5.09,3.8-8.03Z"/><path class="cls-2" d="M305.15,568.8l-.19,8.44v17.9c0,2.6,.8,4.61,2.41,6.03,1.61,1.42,3.49,2.13,5.66,2.13s4.04-.71,5.61-2.13c1.58-1.42,2.37-3.43,2.37-6.03v-27.64c0-2.91,.39-5.04,1.16-6.4,.77-1.36,2.46-2.04,5.05-2.04h8.53c1.98,0,3.34,.59,4.08,1.76,1.42,2.1,2.13,10.24,2.13,24.4,0,4.64-.06,8.2-.19,10.67-.18,5.01-1.34,9.48-3.48,13.4-2.13,3.93-4.87,7.07-8.21,9.42-6.74,4.76-14.38,7.14-22.91,7.14-11.26,0-20.56-2.63-27.92-7.88-3.71-2.66-6.63-6.2-8.77-10.62-2.13-4.42-3.23-9.57-3.29-15.45-.06-2.91-.09-7.19-.09-12.85s.08-9.74,.23-12.24c.15-2.5,.65-4.42,1.48-5.75,.83-1.33,2.52-1.99,5.06-1.99h24.77c2.47,0,4.11,.65,4.92,1.95,1.05,1.67,1.58,4.27,1.58,7.79Z"/><path class="cls-2" d="M410.99,606.18c1.17,1.24,5.35,5.91,12.52,14.01,.43,.55,.65,1.05,.65,1.48,0,1.61-.71,2.41-2.13,2.41-3.28,.06-6.57,.09-9.88,.09s-6.6-.03-9.88-.09c-1.79,0-3.43-.71-4.92-2.13l-7.98-12.06c-.31-.37-.68-.62-1.11-.74-.99-.37-1.48,.03-1.48,1.21v9.46c0,2.66-1.75,4.08-5.24,4.27-3.49,.19-7.31,.28-11.46,.28s-9.15-.16-15.03-.46c-1.79-.12-3.23-.74-4.31-1.86s-1.72-2.38-1.9-3.8c-.5-5.44-.74-13.99-.74-25.65s.19-20.14,.56-25.46c.37-5.32,3.06-8.01,8.07-8.07,4.7-.06,11.1-.09,19.2-.09s14.81,.06,20.13,.19c7.67,.12,13.94,2.97,18.83,8.53,4.88,5.57,7.33,11.84,7.33,18.83,0,4.08-.94,7.86-2.83,11.32-1.89,3.46-4.68,6.25-8.39,8.35Zm-24.3-27.74l.19,17.16c0,1.17,.65,1.76,1.95,1.76,3.83,0,6.85-1.07,9.04-3.2,2.19-2.13,3.29-4.65,3.29-7.56s-1.04-5.41-3.11-7.51c-2.07-2.1-5.12-3.15-9.14-3.15-1.48,0-2.23,.83-2.23,2.5Z"/><path class="cls-2" d="M463.03,563.88c2.29,2.85,4.92,6.51,7.88,10.99,2.97,4.48,5.04,7.47,6.21,8.95,1.17,1.48,2.12,2.23,2.83,2.23s1.34-.4,1.9-1.21c.56-.8,2.6-3.89,6.12-9.28,3.52-5.38,6.43-9.48,8.72-12.29,2.29-2.81,4.11-4.25,5.47-4.31,1.36-.06,3.12-.09,5.29-.09s4.7,.06,7.61,.19c2.91,.12,4.84,.88,5.8,2.27,.96,1.39,1.53,3.36,1.72,5.89,.37,6.49,.56,15.11,.56,25.83s-.28,19.19-.83,25.37c-.12,1.48-.68,2.81-1.67,3.99-.99,1.18-2.35,1.76-4.08,1.76-3.77,.06-7.96,.09-12.57,.09s-8.27-.09-10.99-.28c-.99-.06-1.87-.45-2.64-1.16-.77-.71-1.19-1.65-1.25-2.83l-.56-15.31c-.06-1.48-.39-2.32-.97-2.5-.59-.19-1.13,.22-1.62,1.21-3.28,5.81-7.36,12.31-12.25,19.48-1.17,1.79-2.72,2.69-4.64,2.69s-3.49-.9-4.73-2.69c-2.17-3.09-5.84-9.65-11.04-19.67-.31-.62-.67-.99-1.07-1.11-.4-.12-.76,.03-1.07,.46-.31,.43-.46,1.14-.46,2.13l-.46,15.31c-.06,1.17-.59,2.12-1.58,2.83-.99,.71-2.13,1.1-3.43,1.16h-9.18c-1.67-.06-3.02-.65-4.04-1.76-1.02-1.11-1.62-2.38-1.81-3.8-.5-5.5-.74-14.05-.74-25.65s.15-20.11,.46-25.55c.19-2.6,.77-4.61,1.76-6.03,.99-1.42,2.75-2.13,5.29-2.13,12.99,0,20,.09,21.06,.28,1.05,.19,2.72,1.7,5.01,4.54Z"/><path class="cls-2" d="M533.94,622.27c-1.21-1.14-1.98-3.03-2.32-5.66-.34-2.63-.51-10.51-.51-23.65s.22-21.72,.65-25.74c.49-5.2,2.69-7.85,6.59-7.98,4.45-.12,22.91-.19,55.38-.19,3.65,0,5.47,2.32,5.47,6.96,0,3.65-1.61,5.47-4.82,5.47h-20.41c-1.3,0-2.33,.43-3.11,1.3-.77,.87-1.16,1.98-1.16,3.34v6.68c0,1.85,.83,2.78,2.5,2.78h16.88c.99,0,1.75,.09,2.27,.28,.52,.19,1,.73,1.44,1.62,.43,.9,.65,2.37,.65,4.41s-.36,3.4-1.07,4.08c-.71,.68-1.87,1.02-3.48,1.02h-15.12c-1.55,0-2.61,.39-3.2,1.16-.59,.77-.88,1.96-.88,3.57v4.54c0,2.66,1.27,3.99,3.8,3.99h23.1c1.11,0,2.1,.32,2.97,.97,.87,.65,1.3,2.07,1.3,4.27s-.53,4.16-1.58,5.89c-1.05,1.73-2.29,2.6-3.71,2.6h-57.23c-1.73,0-3.2-.57-4.41-1.72Z"/><path class="cls-2" d="M659.77,618.33c-.06,1.36-.65,2.61-1.76,3.76-1.11,1.14-2.6,1.78-4.45,1.9-3.53,.25-7.76,.37-12.71,.37s-9.49-.12-13.64-.37c-1.86-.12-3.34-.76-4.45-1.9-1.11-1.14-1.7-2.4-1.76-3.76-.19-9.4-.28-17.42-.28-24.07s.03-11.52,.09-14.61c0-2.35-1.05-3.53-3.15-3.53h-8.35c-1.3,0-2.35-.31-3.15-.93-.8-.62-1.25-1.7-1.34-3.25-.09-1.54-.14-3.15-.14-4.82s.05-3.11,.14-4.31c.09-1.21,.59-2.13,1.48-2.78,.9-.65,1.87-.97,2.92-.97,8.04-.12,18.92-.19,32.65-.19s23.56,.06,29.5,.19c1.05,.06,2.02,.4,2.92,1.02,.9,.62,1.39,1.53,1.48,2.74,.09,1.21,.14,2.61,.14,4.22s-.03,3.15-.09,4.64c-.19,2.78-1.7,4.17-4.54,4.17h-8.35c-2.1,0-3.15,1.08-3.15,3.25,.19,7.79,.28,14.84,.28,21.15s-.09,12.34-.28,18.09Z"/></g><g><path class="cls-2" d="M212.11,490.88c2.29,2.85,4.92,6.51,7.88,10.99,2.97,4.48,5.04,7.47,6.21,8.95,1.17,1.48,2.12,2.23,2.83,2.23s1.34-.4,1.9-1.21c.56-.8,2.6-3.89,6.12-9.28,3.52-5.38,6.43-9.48,8.72-12.29,2.29-2.81,4.11-4.25,5.47-4.31,1.36-.06,3.12-.09,5.29-.09s4.7,.06,7.61,.19c2.91,.12,4.84,.88,5.8,2.27,.96,1.39,1.53,3.36,1.72,5.89,.37,6.49,.56,15.11,.56,25.83s-.28,19.19-.83,25.37c-.12,1.48-.68,2.81-1.67,3.99-.99,1.18-2.35,1.76-4.08,1.76-3.77,.06-7.96,.09-12.57,.09s-8.27-.09-10.99-.28c-.99-.06-1.87-.45-2.64-1.16-.77-.71-1.19-1.65-1.25-2.83l-.56-15.31c-.06-1.48-.39-2.32-.97-2.5-.59-.19-1.13,.22-1.62,1.21-3.28,5.81-7.36,12.31-12.25,19.48-1.17,1.79-2.72,2.69-4.64,2.69s-3.49-.9-4.73-2.69c-2.17-3.09-5.84-9.65-11.04-19.67-.31-.62-.67-.99-1.07-1.11-.4-.12-.76,.03-1.07,.46-.31,.43-.46,1.14-.46,2.13l-.46,15.31c-.06,1.17-.59,2.12-1.58,2.83-.99,.71-2.13,1.1-3.43,1.16h-9.18c-1.67-.06-3.02-.65-4.04-1.76-1.02-1.11-1.62-2.38-1.81-3.8-.5-5.5-.74-14.05-.74-25.65s.15-20.11,.46-25.55c.19-2.6,.77-4.61,1.76-6.03,.99-1.42,2.75-2.13,5.29-2.13,12.99,0,20,.09,21.06,.28,1.05,.19,2.72,1.7,5.01,4.54Z"/><path class="cls-2" d="M287.8,486.06h24.86c2.6,0,4.31,.65,5.15,1.95,.83,1.3,1.39,3.97,1.67,8.03,.28,4.05,.42,11.9,.42,23.56s-.25,20.21-.74,25.65c-.19,1.42-.82,2.69-1.9,3.8-1.08,1.11-2.52,1.73-4.31,1.86-3.53,.25-7.61,.37-12.24,.37s-9.03-.12-13.17-.37c-1.79-.12-3.23-.74-4.31-1.86s-1.72-2.38-1.9-3.8c-.5-5.44-.74-13.99-.74-25.65s.14-19.51,.42-23.56,.83-6.73,1.67-8.03c.83-1.3,2.55-1.95,5.15-1.95Z"/><path class="cls-2" d="M383.53,549.41l-10.85-12.99c-1.11-1.36-2.26-2.04-3.43-2.04-1.42,0-2.13,1.18-2.13,3.53v8.81c0,1.11-.5,2.01-1.48,2.69-.99,.68-2.17,1.08-3.52,1.21-3.9,.25-8.3,.37-13.22,.37s-9.57-.12-13.96-.37c-1.85-.12-3.34-.76-4.45-1.9-1.11-1.14-1.73-2.43-1.86-3.85-.5-5.44-.74-13.9-.74-25.37s.14-19.25,.42-23.33,.83-6.79,1.67-8.12c.83-1.33,2.55-1.99,5.15-1.99h24.86c2.04,0,3.74,.8,5.1,2.41,1.36,1.61,2.04,3.59,2.04,5.94l.09,10.39c0,1.3,.34,1.95,1.02,1.95,.43,0,1.3-.52,2.6-1.58l18.18-16.98c1.48-1.42,3.26-2.15,5.33-2.18,2.07-.03,4.28-.04,6.63-.04l7.14,.09c.99,0,1.67,.46,2.04,1.39,.37,.93,.19,1.76-.56,2.5-7.11,7.11-14.22,13.7-21.33,19.76-.62,.56-.93,1.13-.93,1.72s.34,1.22,1.02,1.9l5.01,5.01c2.53,2.54,4.62,4.61,6.26,6.21,1.64,1.61,3.57,3.56,5.8,5.84,4.45,4.58,7.85,8.29,10.2,11.13,1.24,1.48,1.85,3,1.85,4.55,0,.56-.09,1.14-.28,1.76-.68,2.1-2.17,3.15-4.45,3.15h-24.95c-1.92,0-3.34-.53-4.27-1.58Z"/><path class="cls-2" d="M485.01,533.18c1.17,1.24,5.35,5.91,12.52,14.01,.43,.55,.65,1.05,.65,1.48,0,1.61-.71,2.41-2.13,2.41-3.28,.06-6.57,.09-9.88,.09s-6.6-.03-9.88-.09c-1.79,0-3.43-.71-4.92-2.13l-7.98-12.06c-.31-.37-.68-.62-1.11-.74-.99-.37-1.48,.03-1.48,1.21v9.46c0,2.66-1.75,4.08-5.24,4.27-3.49,.19-7.31,.28-11.46,.28s-9.15-.16-15.03-.46c-1.79-.12-3.23-.74-4.31-1.86s-1.72-2.38-1.9-3.8c-.5-5.44-.74-13.99-.74-25.65s.19-20.14,.56-25.46c.37-5.32,3.06-8.01,8.07-8.07,4.7-.06,11.1-.09,19.2-.09s14.81,.06,20.13,.19c7.67,.12,13.94,2.97,18.83,8.53,4.88,5.57,7.33,11.84,7.33,18.83,0,4.08-.94,7.86-2.83,11.32-1.89,3.46-4.68,6.25-8.39,8.35Zm-24.3-27.74l.19,17.16c0,1.17,.65,1.76,1.95,1.76,3.83,0,6.85-1.07,9.04-3.2,2.19-2.13,3.29-4.65,3.29-7.56s-1.04-5.41-3.11-7.51c-2.07-2.1-5.12-3.15-9.14-3.15-1.48,0-2.23,.83-2.23,2.5Z"/><path class="cls-2" d="M549.39,552.84c-7.48,0-14.25-.97-20.31-2.92-6.06-1.95-10.98-4.56-14.75-7.84-3.77-3.28-6.65-6.94-8.63-10.99-1.98-4.05-2.97-8.27-2.97-12.66s1-8.61,3.01-12.66c2.01-4.05,4.88-7.71,8.63-10.99,3.74-3.28,8.64-5.91,14.7-7.88,6.06-1.98,12.71-2.97,19.94-2.97s13.64,.9,19.2,2.69c5.57,1.79,10.05,4.24,13.45,7.33,6.92,6.31,10.39,13.79,10.39,22.45,0,4.39-.94,8.69-2.83,12.89-1.89,4.21-4.58,8.02-8.07,11.46-3.49,3.43-7.99,6.25-13.5,8.44-5.5,2.19-11.6,3.42-18.27,3.66Zm18.37-36.04c0-2.94-1.05-5.5-3.15-7.7-2.1-2.19-5.3-3.29-9.6-3.29s-7.71,1.15-10.25,3.43c-2.54,2.29-3.8,5.07-3.8,8.35s1.33,5.91,3.99,7.88c2.66,1.98,5.86,2.97,9.6,2.97s6.88-1.21,9.42-3.62c2.54-2.41,3.8-5.09,3.8-8.03Z"/><path class="cls-2" d="M149.22,574.08c-5.57,0-9.48,1.44-11.73,4.31-2.26,2.88-3.39,7.44-3.39,13.68,0,9.83,2.88,14.75,8.63,14.75,1.17,0,1.95-.03,2.32-.09-.74,0-1.35-1.3-1.81-3.9-.46-2.6-.7-5.32-.7-8.16s.77-4.69,2.32-5.52c1.54-.84,3.69-1.25,6.45-1.25s4.67,.02,5.75,.04c1.08,.03,2.32,.16,3.71,.37,1.39,.22,2.46,.54,3.2,.97,1.73,.99,2.6,2.47,2.6,4.45v13.54c0,4.82-.87,8.67-2.6,11.55-1.73,2.88-4.98,4.56-9.74,5.05-6.68,.68-16.88,1.02-30.61,1.02-5.5,0-10.22-.87-14.15-2.6-3.93-1.73-6.97-4.14-9.14-7.24-3.96-5.75-5.94-13.06-5.94-21.94s2.84-16.77,8.53-23.7c5.69-6.92,13.27-10.63,22.73-11.13,6.49-.37,11.19-.56,14.1-.56,10.58,0,18.09,.65,22.54,1.95,3.03,.87,4.55,3.31,4.55,7.33,0,5.38-1.58,8.07-4.73,8.07-.99-.06-2.97-.25-5.94-.56-2.97-.31-5.29-.46-6.96-.46Z"/><path class="cls-2" d="M219.99,625.84c-7.48,0-14.25-.97-20.31-2.92-6.06-1.95-10.98-4.56-14.75-7.84-3.77-3.28-6.65-6.94-8.63-10.99-1.98-4.05-2.97-8.27-2.97-12.66s1-8.61,3.01-12.66c2.01-4.05,4.88-7.71,8.63-10.99,3.74-3.28,8.64-5.91,14.7-7.88,6.06-1.98,12.71-2.97,19.94-2.97s13.64,.9,19.2,2.69c5.57,1.79,10.05,4.24,13.45,7.33,6.92,6.31,10.39,13.79,10.39,22.45,0,4.39-.94,8.69-2.83,12.89-1.89,4.21-4.58,8.02-8.07,11.46-3.49,3.43-7.99,6.25-13.5,8.44-5.5,2.19-11.6,3.42-18.27,3.66Zm18.37-36.04c0-2.94-1.05-5.5-3.15-7.7-2.1-2.19-5.3-3.29-9.6-3.29s-7.71,1.15-10.25,3.43c-2.54,2.29-3.8,5.07-3.8,8.35s1.33,5.91,3.99,7.88c2.66,1.98,5.86,2.97,9.6,2.97s6.88-1.21,9.42-3.62c2.54-2.41,3.8-5.09,3.8-8.03Z"/><path class="cls-2" d="M305.15,568.8l-.19,8.44v17.9c0,2.6,.8,4.61,2.41,6.03,1.61,1.42,3.49,2.13,5.66,2.13s4.04-.71,5.61-2.13c1.58-1.42,2.37-3.43,2.37-6.03v-27.64c0-2.91,.39-5.04,1.16-6.4,.77-1.36,2.46-2.04,5.05-2.04h8.53c1.98,0,3.34,.59,4.08,1.76,1.42,2.1,2.13,10.24,2.13,24.4,0,4.64-.06,8.2-.19,10.67-.18,5.01-1.34,9.48-3.48,13.4-2.13,3.93-4.87,7.07-8.21,9.42-6.74,4.76-14.38,7.14-22.91,7.14-11.26,0-20.56-2.63-27.92-7.88-3.71-2.66-6.63-6.2-8.77-10.62-2.13-4.42-3.23-9.57-3.29-15.45-.06-2.91-.09-7.19-.09-12.85s.08-9.74,.23-12.24c.15-2.5,.65-4.42,1.48-5.75,.83-1.33,2.52-1.99,5.06-1.99h24.77c2.47,0,4.11,.65,4.92,1.95,1.05,1.67,1.58,4.27,1.58,7.79Z"/><path class="cls-2" d="M410.99,606.18c1.17,1.24,5.35,5.91,12.52,14.01,.43,.55,.65,1.05,.65,1.48,0,1.61-.71,2.41-2.13,2.41-3.28,.06-6.57,.09-9.88,.09s-6.6-.03-9.88-.09c-1.79,0-3.43-.71-4.92-2.13l-7.98-12.06c-.31-.37-.68-.62-1.11-.74-.99-.37-1.48,.03-1.48,1.21v9.46c0,2.66-1.75,4.08-5.24,4.27-3.49,.19-7.31,.28-11.46,.28s-9.15-.16-15.03-.46c-1.79-.12-3.23-.74-4.31-1.86s-1.72-2.38-1.9-3.8c-.5-5.44-.74-13.99-.74-25.65s.19-20.14,.56-25.46c.37-5.32,3.06-8.01,8.07-8.07,4.7-.06,11.1-.09,19.2-.09s14.81,.06,20.13,.19c7.67,.12,13.94,2.97,18.83,8.53,4.88,5.57,7.33,11.84,7.33,18.83,0,4.08-.94,7.86-2.83,11.32-1.89,3.46-4.68,6.25-8.39,8.35Zm-24.3-27.74l.19,17.16c0,1.17,.65,1.76,1.95,1.76,3.83,0,6.85-1.07,9.04-3.2,2.19-2.13,3.29-4.65,3.29-7.56s-1.04-5.41-3.11-7.51c-2.07-2.1-5.12-3.15-9.14-3.15-1.48,0-2.23,.83-2.23,2.5Z"/><path class="cls-2" d="M463.03,563.88c2.29,2.85,4.92,6.51,7.88,10.99,2.97,4.48,5.04,7.47,6.21,8.95,1.17,1.48,2.12,2.23,2.83,2.23s1.34-.4,1.9-1.21c.56-.8,2.6-3.89,6.12-9.28,3.52-5.38,6.43-9.48,8.72-12.29,2.29-2.81,4.11-4.25,5.47-4.31,1.36-.06,3.12-.09,5.29-.09s4.7,.06,7.61,.19c2.91,.12,4.84,.88,5.8,2.27,.96,1.39,1.53,3.36,1.72,5.89,.37,6.49,.56,15.11,.56,25.83s-.28,19.19-.83,25.37c-.12,1.48-.68,2.81-1.67,3.99-.99,1.18-2.35,1.76-4.08,1.76-3.77,.06-7.96,.09-12.57,.09s-8.27-.09-10.99-.28c-.99-.06-1.87-.45-2.64-1.16-.77-.71-1.19-1.65-1.25-2.83l-.56-15.31c-.06-1.48-.39-2.32-.97-2.5-.59-.19-1.13,.22-1.62,1.21-3.28,5.81-7.36,12.31-12.25,19.48-1.17,1.79-2.72,2.69-4.64,2.69s-3.49-.9-4.73-2.69c-2.17-3.09-5.84-9.65-11.04-19.67-.31-.62-.67-.99-1.07-1.11-.4-.12-.76,.03-1.07,.46-.31,.43-.46,1.14-.46,2.13l-.46,15.31c-.06,1.17-.59,2.12-1.58,2.83-.99,.71-2.13,1.1-3.43,1.16h-9.18c-1.67-.06-3.02-.65-4.04-1.76-1.02-1.11-1.62-2.38-1.81-3.8-.5-5.5-.74-14.05-.74-25.65s.15-20.11,.46-25.55c.19-2.6,.77-4.61,1.76-6.03,.99-1.42,2.75-2.13,5.29-2.13,12.99,0,20,.09,21.06,.28,1.05,.19,2.72,1.7,5.01,4.54Z"/><path class="cls-2" d="M533.94,622.27c-1.21-1.14-1.98-3.03-2.32-5.66-.34-2.63-.51-10.51-.51-23.65s.22-21.72,.65-25.74c.49-5.2,2.69-7.85,6.59-7.98,4.45-.12,22.91-.19,55.38-.19,3.65,0,5.47,2.32,5.47,6.96,0,3.65-1.61,5.47-4.82,5.47h-20.41c-1.3,0-2.33,.43-3.11,1.3-.77,.87-1.16,1.98-1.16,3.34v6.68c0,1.85,.83,2.78,2.5,2.78h16.88c.99,0,1.75,.09,2.27,.28,.52,.19,1,.73,1.44,1.62,.43,.9,.65,2.37,.65,4.41s-.36,3.4-1.07,4.08c-.71,.68-1.87,1.02-3.48,1.02h-15.12c-1.55,0-2.61,.39-3.2,1.16-.59,.77-.88,1.96-.88,3.57v4.54c0,2.66,1.27,3.99,3.8,3.99h23.1c1.11,0,2.1,.32,2.97,.97,.87,.65,1.3,2.07,1.3,4.27s-.53,4.16-1.58,5.89c-1.05,1.73-2.29,2.6-3.71,2.6h-57.23c-1.73,0-3.2-.57-4.41-1.72Z"/><path class="cls-2" d="M659.77,618.33c-.06,1.36-.65,2.61-1.76,3.76-1.11,1.14-2.6,1.78-4.45,1.9-3.53,.25-7.76,.37-12.71,.37s-9.49-.12-13.64-.37c-1.86-.12-3.34-.76-4.45-1.9-1.11-1.14-1.7-2.4-1.76-3.76-.19-9.4-.28-17.42-.28-24.07s.03-11.52,.09-14.61c0-2.35-1.05-3.53-3.15-3.53h-8.35c-1.3,0-2.35-.31-3.15-.93-.8-.62-1.25-1.7-1.34-3.25-.09-1.54-.14-3.15-.14-4.82s.05-3.11,.14-4.31c.09-1.21,.59-2.13,1.48-2.78,.9-.65,1.87-.97,2.92-.97,8.04-.12,18.92-.19,32.65-.19s23.56,.06,29.5,.19c1.05,.06,2.02,.4,2.92,1.02,.9,.62,1.39,1.53,1.48,2.74,.09,1.21,.14,2.61,.14,4.22s-.03,3.15-.09,4.64c-.19,2.78-1.7,4.17-4.54,4.17h-8.35c-2.1,0-3.15,1.08-3.15,3.25,.19,7.79,.28,14.84,.28,21.15s-.09,12.34-.28,18.09Z"/></g><g><path class="cls-1" d="M218.14,567.57c-4.81,0-9.33-1.66-12.98-4.68-3.05,1.86-6.53,2.92-10.16,3.09l-.35,.02h-10.08c-5.66-.21-10.83-2.57-14.55-6.63-3.09-3.38-5.04-7.52-5.62-12l-.04-.3-.03-.3c-.54-6-.8-14.83-.8-26.99s.16-20.63,.49-26.41v-.22c.39-5.31,1.88-9.87,4.42-13.53,2.22-3.2,7.47-8.57,17.6-8.57,20.79,0,22.05,.22,23.66,.51,6.26,1.11,10.47,5.42,14.09,9.91,1.55,1.93,3.19,4.12,4.95,6.6,2.01-2.89,3.8-5.29,5.4-7.26,3.29-4.05,8.58-9.47,16.42-9.83,1.6-.07,3.56-.11,5.97-.11s5.08,.07,8.24,.2c9.78,.42,14.92,4.99,17.51,8.75,2.49,3.61,3.94,8.09,4.33,13.31l.02,.24c.39,6.75,.58,15.73,.58,26.69s-.29,20.02-.9,26.71c-.38,4.48-2.16,8.77-5.13,12.3-3.83,4.54-9.29,7.06-15.4,7.1-3.85,.06-8.13,.09-12.72,.09-4.99,0-8.9-.1-11.98-.31-3.5-.23-6.8-1.38-9.66-3.36-3.67,3.21-8.3,4.97-13.29,4.97Z"/><path class="cls-1" d="M300.7,566.27c-4.89,0-9.62-.13-14.06-.4h-.14c-5.51-.39-10.36-2.59-14.04-6.38-3.33-3.43-5.42-7.69-6.02-12.32l-.04-.29-.03-.29c-.54-5.95-.8-14.78-.8-27.01s.15-20.15,.45-24.59c.48-6.95,1.68-11.47,4.01-15.1,2.13-3.31,7.26-8.84,17.77-8.84h24.86c10.51,0,15.64,5.53,17.76,8.83,2.34,3.65,3.54,8.16,4.02,15.12,.3,4.45,.45,12.49,.45,24.59s-.26,21.05-.8,27l-.03,.29-.04,.29c-.6,4.62-2.68,8.88-6.01,12.31-3.69,3.79-8.54,5.99-14.05,6.37-3.86,.27-8.33,.41-13.27,.41Z"/><path class="cls-1" d="M387.8,565.99c-5.08,0-9.69-1.58-13.27-4.5-.13,.09-.26,.19-.4,.28-3.12,2.15-6.72,3.43-10.67,3.79l-.4,.03c-4.18,.27-8.95,.4-14.17,.4s-10.17-.13-14.81-.39h-.15c-5.58-.38-10.49-2.6-14.21-6.42-3.53-3.62-5.62-8.13-6.05-13.02-.54-5.88-.8-14.62-.8-26.66s.15-19.88,.45-24.35c.47-6.93,1.65-11.44,3.93-15.07,2.12-3.37,7.25-9.02,17.85-9.02h24.86c6.46,0,12.34,2.74,16.55,7.72,.09,.1,.17,.2,.25,.31l1.94-1.81c4.22-4.01,9.54-6.17,15.39-6.27,2.17-.03,4.45-.05,6.87-.05l7.28,.09c7.01,.05,13.22,4.29,15.83,10.82,2.61,6.51,1.13,13.68-3.88,18.68-3.96,3.96-7.94,7.78-11.93,11.45,.67,.67,1.29,1.28,1.86,1.83,1.75,1.72,3.79,3.77,6.04,6.09,4.78,4.92,8.38,8.85,11.02,12.04,3.45,4.14,5.29,9.04,5.29,14.11,0,2.02-.31,4.06-.91,6.08l-.09,.3c-2.7,8.35-9.88,13.54-18.72,13.54h-24.95Z"/><path class="cls-1" d="M444.1,566.36c-4.42,0-9.59-.16-15.81-.49h-.24c-5.51-.39-10.36-2.59-14.04-6.38-3.33-3.43-5.42-7.69-6.02-12.32l-.04-.29-.03-.29c-.54-5.95-.8-14.78-.8-27.01s.19-20.79,.59-26.51c.91-13.01,10.09-21.87,22.85-22.03,4.79-.06,11.31-.09,19.39-.09s15,.06,20.43,.19c11.85,.21,22.15,4.92,29.8,13.64,7.34,8.36,11.05,18.02,11.05,28.72,0,6.6-1.57,12.82-4.66,18.49-.31,.57-.63,1.13-.97,1.68,.95,1.08,3.47,3.92,3.47,3.92l.29,.38c3.15,4.05,3.81,8.05,3.81,10.69,0,9.86-7.27,17.32-16.94,17.41-3.43,.06-6.82,.09-10.07,.09s-6.63-.03-10.06-.09c-3.58-.03-6.98-.91-10.09-2.6-2.65,1.44-5.87,2.38-9.67,2.58-3.75,.2-7.88,.3-12.25,.3Z"/><path class="cls-1" d="M549.39,567.84c-9.01,0-17.38-1.22-24.9-3.64-7.98-2.57-14.71-6.2-20-10.8-5.28-4.58-9.41-9.88-12.26-15.73-2.98-6.09-4.49-12.57-4.49-19.25s1.54-13.21,4.58-19.33c2.87-5.79,6.97-11.05,12.18-15.61,5.26-4.61,11.96-8.26,19.93-10.86,7.54-2.46,15.81-3.71,24.6-3.71s16.77,1.15,23.8,3.41c7.59,2.45,13.97,5.98,18.94,10.51,10.01,9.12,15.3,20.72,15.3,33.55,0,6.5-1.39,12.9-4.14,19.03-2.64,5.89-6.42,11.28-11.24,16.02-4.91,4.82-11.12,8.75-18.45,11.68-7.08,2.82-14.91,4.41-23.28,4.72h-.28s-.28,.01-.28,.01Z"/><path class="cls-1" d="M123.61,639.92c-7.57,0-14.37-1.3-20.2-3.87-6.46-2.84-11.63-7-15.38-12.37l-.06-.09c-5.69-8.27-8.58-18.51-8.58-30.44s4.02-23.58,11.94-33.22c8.33-10.14,19.93-15.88,33.53-16.59,6.77-.39,11.66-.58,14.88-.58,12.28,0,20.78,.81,26.74,2.55,9.43,2.69,15.34,11.03,15.34,21.73,0,6.6-1.63,11.44-4.05,14.94,2.43,3.35,3.77,7.43,3.77,11.78v13.54c0,7.56-1.6,14.05-4.75,19.28-2.95,4.89-8.99,10.99-21.04,12.24-7.29,.74-17.8,1.1-32.16,1.1Z"/><path class="cls-1" d="M219.99,640.84c-9.01,0-17.38-1.22-24.9-3.64-7.98-2.57-14.71-6.2-20-10.8-5.28-4.58-9.41-9.88-12.26-15.73-2.98-6.09-4.49-12.57-4.49-19.25s1.54-13.21,4.58-19.33c2.87-5.79,6.97-11.05,12.18-15.61,5.26-4.61,11.96-8.26,19.93-10.86,7.54-2.46,15.81-3.71,24.6-3.71s16.77,1.15,23.8,3.41c7.59,2.45,13.97,5.98,18.94,10.51,10.01,9.12,15.3,20.72,15.3,33.55,0,6.5-1.39,12.9-4.14,19.03-2.64,5.89-6.42,11.28-11.24,16.02-4.91,4.82-11.12,8.75-18.45,11.68-7.08,2.82-14.91,4.41-23.28,4.72h-.28s-.28,.01-.28,.01Z"/><path class="cls-1" d="M307.19,640.84c-14.39,0-26.72-3.59-36.64-10.68-5.77-4.14-10.33-9.62-13.56-16.31-3.08-6.38-4.69-13.69-4.78-21.72-.06-3.01-.09-7.29-.09-13.09s.08-10.35,.26-13.17c.31-5.08,1.54-9.27,3.75-12.8,2.12-3.37,7.24-9.02,17.76-9.02h24.77c6.82,0,11.35,2.39,14.26,5,2.9-2.57,7.46-5,14.31-5h8.53c7.04,0,13.09,3.1,16.62,8.53,3.11,4.7,4.59,10.92,4.59,32.63,0,4.88-.07,8.59-.2,11.32-.28,7.28-2.06,13.98-5.29,19.91-3.23,5.95-7.53,10.84-12.76,14.52-9.27,6.55-19.89,9.87-31.54,9.87Z"/><path class="cls-1" d="M370.08,639.36c-4.42,0-9.59-.16-15.81-.49h-.24c-5.51-.39-10.36-2.59-14.04-6.38-3.33-3.43-5.42-7.69-6.02-12.32l-.04-.29-.03-.29c-.54-5.95-.8-14.78-.8-27.01s.19-20.79,.59-26.51c.91-13.01,10.09-21.87,22.85-22.03,4.79-.06,11.31-.09,19.39-.09s15,.06,20.43,.19c11.85,.21,22.15,4.92,29.8,13.64,7.34,8.36,11.05,18.02,11.05,28.72,0,6.6-1.57,12.82-4.66,18.49-.31,.57-.63,1.13-.97,1.68,.95,1.08,3.47,3.92,3.47,3.92l.29,.38c3.15,4.05,3.81,8.05,3.81,10.69,0,9.86-7.27,17.32-16.94,17.41-3.43,.06-6.82,.09-10.07,.09s-6.63-.03-10.06-.09c-3.58-.03-6.98-.91-10.09-2.6-2.65,1.44-5.87,2.38-9.67,2.58-3.75,.2-7.88,.3-12.25,.3Z"/><path class="cls-1" d="M469.06,640.57c-4.81,0-9.33-1.66-12.98-4.68-3.05,1.86-6.53,2.92-10.16,3.09l-.35,.02h-10.08c-5.66-.21-10.83-2.57-14.55-6.63-3.09-3.38-5.04-7.52-5.62-12l-.04-.3-.03-.3c-.54-6-.8-14.83-.8-26.99s.16-20.63,.49-26.41v-.22c.39-5.31,1.88-9.87,4.42-13.53,2.22-3.2,7.47-8.57,17.6-8.57,20.79,0,22.05,.22,23.66,.51,6.26,1.11,10.47,5.42,14.09,9.91,1.55,1.93,3.19,4.12,4.95,6.6,2.01-2.89,3.8-5.29,5.4-7.26,3.29-4.05,8.58-9.47,16.42-9.83,1.6-.07,3.56-.11,5.97-.11s5.08,.07,8.24,.2c9.78,.42,14.92,4.99,17.51,8.75,2.49,3.61,3.94,8.09,4.33,13.31l.02,.24c.39,6.75,.58,15.73,.58,26.69s-.29,20.02-.9,26.71c-.38,4.48-2.16,8.77-5.13,12.3-3.83,4.54-9.29,7.06-15.4,7.1-3.85,.06-8.13,.09-12.72,.09-4.99,0-8.9-.1-11.98-.31-3.5-.23-6.8-1.38-9.66-3.36-3.67,3.21-8.3,4.97-13.29,4.97Z"/><path class="cls-1" d="M538.35,638.99c-5.53,0-10.77-2.07-14.73-5.84-3.77-3.57-6.08-8.49-6.87-14.62-.31-2.41-.63-7.34-.63-25.57s.41-24.3,.73-27.26c1.51-15.38,12.26-21.17,21.03-21.45,4.72-.13,22.98-.19,55.86-.19,9.86,0,20.47,6.87,20.47,21.96,0,6.84-2.77,12.6-7.33,16.25,1.07,2.73,1.57,5.83,1.57,9.63,0,2.41-.28,4.63-.84,6.66,.32,.21,.64,.44,.95,.67,3.35,2.52,7.31,7.37,7.31,16.28,0,4.97-1.26,9.57-3.76,13.68-3.79,6.24-9.81,9.81-16.53,9.81h-57.23Z"/><path class="cls-1" d="M640.85,639.36c-5.2,0-10.09-.13-14.53-.4h-.1c-5.58-.38-10.49-2.59-14.21-6.42-3.69-3.79-5.77-8.47-6-13.54v-.38c-.2-9.45-.29-17.65-.29-24.37,0-1.2,0-2.34,0-3.43-3.23-.54-6.2-1.81-8.72-3.75-2.46-1.89-6.69-6.27-7.16-14.23-.11-1.83-.17-3.76-.17-5.72,0-2.08,.06-3.87,.18-5.46,.43-5.64,3.15-10.54,7.66-13.79,3.39-2.46,7.39-3.78,11.56-3.82,8.11-.12,19.15-.19,32.8-.19s23.76,.06,29.81,.19h.29s.29,.02,.29,.02c3.77,.22,7.41,1.49,10.55,3.65,4.6,3.17,7.49,8.25,7.92,13.93,.12,1.6,.18,3.35,.18,5.37,0,1.77-.04,3.54-.11,5.25l-.02,.39c-.63,9.43-6.94,16.36-15.8,17.87,.04,3.41,.06,6.65,.06,9.71,0,6.44-.1,12.69-.29,18.57v.21c-.24,5.06-2.32,9.74-6.01,13.54-3.71,3.81-8.62,6.03-14.2,6.4-3.82,.27-8.45,.4-13.7,.4Z"/></g><g><path class="cls-2" d="M212.11,490.88c2.29,2.85,4.92,6.51,7.88,10.99,2.97,4.48,5.04,7.47,6.21,8.95,1.17,1.48,2.12,2.23,2.83,2.23s1.34-.4,1.9-1.21c.56-.8,2.6-3.89,6.12-9.28,3.52-5.38,6.43-9.48,8.72-12.29,2.29-2.81,4.11-4.25,5.47-4.31,1.36-.06,3.12-.09,5.29-.09s4.7,.06,7.61,.19c2.91,.12,4.84,.88,5.8,2.27,.96,1.39,1.53,3.36,1.72,5.89,.37,6.49,.56,15.11,.56,25.83s-.28,19.19-.83,25.37c-.12,1.48-.68,2.81-1.67,3.99-.99,1.18-2.35,1.76-4.08,1.76-3.77,.06-7.96,.09-12.57,.09s-8.27-.09-10.99-.28c-.99-.06-1.87-.45-2.64-1.16-.77-.71-1.19-1.65-1.25-2.83l-.56-15.31c-.06-1.48-.39-2.32-.97-2.5-.59-.19-1.13,.22-1.62,1.21-3.28,5.81-7.36,12.31-12.25,19.48-1.17,1.79-2.72,2.69-4.64,2.69s-3.49-.9-4.73-2.69c-2.17-3.09-5.84-9.65-11.04-19.67-.31-.62-.67-.99-1.07-1.11-.4-.12-.76,.03-1.07,.46-.31,.43-.46,1.14-.46,2.13l-.46,15.31c-.06,1.17-.59,2.12-1.58,2.83-.99,.71-2.13,1.1-3.43,1.16h-9.18c-1.67-.06-3.02-.65-4.04-1.76-1.02-1.11-1.62-2.38-1.81-3.8-.5-5.5-.74-14.05-.74-25.65s.15-20.11,.46-25.55c.19-2.6,.77-4.61,1.76-6.03,.99-1.42,2.75-2.13,5.29-2.13,12.99,0,20,.09,21.06,.28,1.05,.19,2.72,1.7,5.01,4.54Z"/><path class="cls-2" d="M287.8,486.06h24.86c2.6,0,4.31,.65,5.15,1.95,.83,1.3,1.39,3.97,1.67,8.03,.28,4.05,.42,11.9,.42,23.56s-.25,20.21-.74,25.65c-.19,1.42-.82,2.69-1.9,3.8-1.08,1.11-2.52,1.73-4.31,1.86-3.53,.25-7.61,.37-12.24,.37s-9.03-.12-13.17-.37c-1.79-.12-3.23-.74-4.31-1.86s-1.72-2.38-1.9-3.8c-.5-5.44-.74-13.99-.74-25.65s.14-19.51,.42-23.56,.83-6.73,1.67-8.03c.83-1.3,2.55-1.95,5.15-1.95Z"/><path class="cls-2" d="M383.53,549.41l-10.85-12.99c-1.11-1.36-2.26-2.04-3.43-2.04-1.42,0-2.13,1.18-2.13,3.53v8.81c0,1.11-.5,2.01-1.48,2.69-.99,.68-2.17,1.08-3.52,1.21-3.9,.25-8.3,.37-13.22,.37s-9.57-.12-13.96-.37c-1.85-.12-3.34-.76-4.45-1.9-1.11-1.14-1.73-2.43-1.86-3.85-.5-5.44-.74-13.9-.74-25.37s.14-19.25,.42-23.33,.83-6.79,1.67-8.12c.83-1.33,2.55-1.99,5.15-1.99h24.86c2.04,0,3.74,.8,5.1,2.41,1.36,1.61,2.04,3.59,2.04,5.94l.09,10.39c0,1.3,.34,1.95,1.02,1.95,.43,0,1.3-.52,2.6-1.58l18.18-16.98c1.48-1.42,3.26-2.15,5.33-2.18,2.07-.03,4.28-.04,6.63-.04l7.14,.09c.99,0,1.67,.46,2.04,1.39,.37,.93,.19,1.76-.56,2.5-7.11,7.11-14.22,13.7-21.33,19.76-.62,.56-.93,1.13-.93,1.72s.34,1.22,1.02,1.9l5.01,5.01c2.53,2.54,4.62,4.61,6.26,6.21,1.64,1.61,3.57,3.56,5.8,5.84,4.45,4.58,7.85,8.29,10.2,11.13,1.24,1.48,1.85,3,1.85,4.55,0,.56-.09,1.14-.28,1.76-.68,2.1-2.17,3.15-4.45,3.15h-24.95c-1.92,0-3.34-.53-4.27-1.58Z"/><path class="cls-2" d="M485.01,533.18c1.17,1.24,5.35,5.91,12.52,14.01,.43,.55,.65,1.05,.65,1.48,0,1.61-.71,2.41-2.13,2.41-3.28,.06-6.57,.09-9.88,.09s-6.6-.03-9.88-.09c-1.79,0-3.43-.71-4.92-2.13l-7.98-12.06c-.31-.37-.68-.62-1.11-.74-.99-.37-1.48,.03-1.48,1.21v9.46c0,2.66-1.75,4.08-5.24,4.27-3.49,.19-7.31,.28-11.46,.28s-9.15-.16-15.03-.46c-1.79-.12-3.23-.74-4.31-1.86s-1.72-2.38-1.9-3.8c-.5-5.44-.74-13.99-.74-25.65s.19-20.14,.56-25.46c.37-5.32,3.06-8.01,8.07-8.07,4.7-.06,11.1-.09,19.2-.09s14.81,.06,20.13,.19c7.67,.12,13.94,2.97,18.83,8.53,4.88,5.57,7.33,11.84,7.33,18.83,0,4.08-.94,7.86-2.83,11.32-1.89,3.46-4.68,6.25-8.39,8.35Zm-24.3-27.74l.19,17.16c0,1.17,.65,1.76,1.95,1.76,3.83,0,6.85-1.07,9.04-3.2,2.19-2.13,3.29-4.65,3.29-7.56s-1.04-5.41-3.11-7.51c-2.07-2.1-5.12-3.15-9.14-3.15-1.48,0-2.23,.83-2.23,2.5Z"/><path class="cls-2" d="M549.39,552.84c-7.48,0-14.25-.97-20.31-2.92-6.06-1.95-10.98-4.56-14.75-7.84-3.77-3.28-6.65-6.94-8.63-10.99-1.98-4.05-2.97-8.27-2.97-12.66s1-8.61,3.01-12.66c2.01-4.05,4.88-7.71,8.63-10.99,3.74-3.28,8.64-5.91,14.7-7.88,6.06-1.98,12.71-2.97,19.94-2.97s13.64,.9,19.2,2.69c5.57,1.79,10.05,4.24,13.45,7.33,6.92,6.31,10.39,13.79,10.39,22.45,0,4.39-.94,8.69-2.83,12.89-1.89,4.21-4.58,8.02-8.07,11.46-3.49,3.43-7.99,6.25-13.5,8.44-5.5,2.19-11.6,3.42-18.27,3.66Zm18.37-36.04c0-2.94-1.05-5.5-3.15-7.7-2.1-2.19-5.3-3.29-9.6-3.29s-7.71,1.15-10.25,3.43c-2.54,2.29-3.8,5.07-3.8,8.35s1.33,5.91,3.99,7.88c2.66,1.98,5.86,2.97,9.6,2.97s6.88-1.21,9.42-3.62c2.54-2.41,3.8-5.09,3.8-8.03Z"/><path class="cls-2" d="M149.22,574.08c-5.57,0-9.48,1.44-11.73,4.31-2.26,2.88-3.39,7.44-3.39,13.68,0,9.83,2.88,14.75,8.63,14.75,1.17,0,1.95-.03,2.32-.09-.74,0-1.35-1.3-1.81-3.9-.46-2.6-.7-5.32-.7-8.16s.77-4.69,2.32-5.52c1.54-.84,3.69-1.25,6.45-1.25s4.67,.02,5.75,.04c1.08,.03,2.32,.16,3.71,.37,1.39,.22,2.46,.54,3.2,.97,1.73,.99,2.6,2.47,2.6,4.45v13.54c0,4.82-.87,8.67-2.6,11.55-1.73,2.88-4.98,4.56-9.74,5.05-6.68,.68-16.88,1.02-30.61,1.02-5.5,0-10.22-.87-14.15-2.6-3.93-1.73-6.97-4.14-9.14-7.24-3.96-5.75-5.94-13.06-5.94-21.94s2.84-16.77,8.53-23.7c5.69-6.92,13.27-10.63,22.73-11.13,6.49-.37,11.19-.56,14.1-.56,10.58,0,18.09,.65,22.54,1.95,3.03,.87,4.55,3.31,4.55,7.33,0,5.38-1.58,8.07-4.73,8.07-.99-.06-2.97-.25-5.94-.56-2.97-.31-5.29-.46-6.96-.46Z"/><path class="cls-2" d="M219.99,625.84c-7.48,0-14.25-.97-20.31-2.92-6.06-1.95-10.98-4.56-14.75-7.84-3.77-3.28-6.65-6.94-8.63-10.99-1.98-4.05-2.97-8.27-2.97-12.66s1-8.61,3.01-12.66c2.01-4.05,4.88-7.71,8.63-10.99,3.74-3.28,8.64-5.91,14.7-7.88,6.06-1.98,12.71-2.97,19.94-2.97s13.64,.9,19.2,2.69c5.57,1.79,10.05,4.24,13.45,7.33,6.92,6.31,10.39,13.79,10.39,22.45,0,4.39-.94,8.69-2.83,12.89-1.89,4.21-4.58,8.02-8.07,11.46-3.49,3.43-7.99,6.25-13.5,8.44-5.5,2.19-11.6,3.42-18.27,3.66Zm18.37-36.04c0-2.94-1.05-5.5-3.15-7.7-2.1-2.19-5.3-3.29-9.6-3.29s-7.71,1.15-10.25,3.43c-2.54,2.29-3.8,5.07-3.8,8.35s1.33,5.91,3.99,7.88c2.66,1.98,5.86,2.97,9.6,2.97s6.88-1.21,9.42-3.62c2.54-2.41,3.8-5.09,3.8-8.03Z"/><path class="cls-2" d="M305.15,568.8l-.19,8.44v17.9c0,2.6,.8,4.61,2.41,6.03,1.61,1.42,3.49,2.13,5.66,2.13s4.04-.71,5.61-2.13c1.58-1.42,2.37-3.43,2.37-6.03v-27.64c0-2.91,.39-5.04,1.16-6.4,.77-1.36,2.46-2.04,5.05-2.04h8.53c1.98,0,3.34,.59,4.08,1.76,1.42,2.1,2.13,10.24,2.13,24.4,0,4.64-.06,8.2-.19,10.67-.18,5.01-1.34,9.48-3.48,13.4-2.13,3.93-4.87,7.07-8.21,9.42-6.74,4.76-14.38,7.14-22.91,7.14-11.26,0-20.56-2.63-27.92-7.88-3.71-2.66-6.63-6.2-8.77-10.62-2.13-4.42-3.23-9.57-3.29-15.45-.06-2.91-.09-7.19-.09-12.85s.08-9.74,.23-12.24c.15-2.5,.65-4.42,1.48-5.75,.83-1.33,2.52-1.99,5.06-1.99h24.77c2.47,0,4.11,.65,4.92,1.95,1.05,1.67,1.58,4.27,1.58,7.79Z"/><path class="cls-2" d="M410.99,606.18c1.17,1.24,5.35,5.91,12.52,14.01,.43,.55,.65,1.05,.65,1.48,0,1.61-.71,2.41-2.13,2.41-3.28,.06-6.57,.09-9.88,.09s-6.6-.03-9.88-.09c-1.79,0-3.43-.71-4.92-2.13l-7.98-12.06c-.31-.37-.68-.62-1.11-.74-.99-.37-1.48,.03-1.48,1.21v9.46c0,2.66-1.75,4.08-5.24,4.27-3.49,.19-7.31,.28-11.46,.28s-9.15-.16-15.03-.46c-1.79-.12-3.23-.74-4.31-1.86s-1.72-2.38-1.9-3.8c-.5-5.44-.74-13.99-.74-25.65s.19-20.14,.56-25.46c.37-5.32,3.06-8.01,8.07-8.07,4.7-.06,11.1-.09,19.2-.09s14.81,.06,20.13,.19c7.67,.12,13.94,2.97,18.83,8.53,4.88,5.57,7.33,11.84,7.33,18.83,0,4.08-.94,7.86-2.83,11.32-1.89,3.46-4.68,6.25-8.39,8.35Zm-24.3-27.74l.19,17.16c0,1.17,.65,1.76,1.95,1.76,3.83,0,6.85-1.07,9.04-3.2,2.19-2.13,3.29-4.65,3.29-7.56s-1.04-5.41-3.11-7.51c-2.07-2.1-5.12-3.15-9.14-3.15-1.48,0-2.23,.83-2.23,2.5Z"/><path class="cls-2" d="M463.03,563.88c2.29,2.85,4.92,6.51,7.88,10.99,2.97,4.48,5.04,7.47,6.21,8.95,1.17,1.48,2.12,2.23,2.83,2.23s1.34-.4,1.9-1.21c.56-.8,2.6-3.89,6.12-9.28,3.52-5.38,6.43-9.48,8.72-12.29,2.29-2.81,4.11-4.25,5.47-4.31,1.36-.06,3.12-.09,5.29-.09s4.7,.06,7.61,.19c2.91,.12,4.84,.88,5.8,2.27,.96,1.39,1.53,3.36,1.72,5.89,.37,6.49,.56,15.11,.56,25.83s-.28,19.19-.83,25.37c-.12,1.48-.68,2.81-1.67,3.99-.99,1.18-2.35,1.76-4.08,1.76-3.77,.06-7.96,.09-12.57,.09s-8.27-.09-10.99-.28c-.99-.06-1.87-.45-2.64-1.16-.77-.71-1.19-1.65-1.25-2.83l-.56-15.31c-.06-1.48-.39-2.32-.97-2.5-.59-.19-1.13,.22-1.62,1.21-3.28,5.81-7.36,12.31-12.25,19.48-1.17,1.79-2.72,2.69-4.64,2.69s-3.49-.9-4.73-2.69c-2.17-3.09-5.84-9.65-11.04-19.67-.31-.62-.67-.99-1.07-1.11-.4-.12-.76,.03-1.07,.46-.31,.43-.46,1.14-.46,2.13l-.46,15.31c-.06,1.17-.59,2.12-1.58,2.83-.99,.71-2.13,1.1-3.43,1.16h-9.18c-1.67-.06-3.02-.65-4.04-1.76-1.02-1.11-1.62-2.38-1.81-3.8-.5-5.5-.74-14.05-.74-25.65s.15-20.11,.46-25.55c.19-2.6,.77-4.61,1.76-6.03,.99-1.42,2.75-2.13,5.29-2.13,12.99,0,20,.09,21.06,.28,1.05,.19,2.72,1.7,5.01,4.54Z"/><path class="cls-2" d="M533.94,622.27c-1.21-1.14-1.98-3.03-2.32-5.66-.34-2.63-.51-10.51-.51-23.65s.22-21.72,.65-25.74c.49-5.2,2.69-7.85,6.59-7.98,4.45-.12,22.91-.19,55.38-.19,3.65,0,5.47,2.32,5.47,6.96,0,3.65-1.61,5.47-4.82,5.47h-20.41c-1.3,0-2.33,.43-3.11,1.3-.77,.87-1.16,1.98-1.16,3.34v6.68c0,1.85,.83,2.78,2.5,2.78h16.88c.99,0,1.75,.09,2.27,.28,.52,.19,1,.73,1.44,1.62,.43,.9,.65,2.37,.65,4.41s-.36,3.4-1.07,4.08c-.71,.68-1.87,1.02-3.48,1.02h-15.12c-1.55,0-2.61,.39-3.2,1.16-.59,.77-.88,1.96-.88,3.57v4.54c0,2.66,1.27,3.99,3.8,3.99h23.1c1.11,0,2.1,.32,2.97,.97,.87,.65,1.3,2.07,1.3,4.27s-.53,4.16-1.58,5.89c-1.05,1.73-2.29,2.6-3.71,2.6h-57.23c-1.73,0-3.2-.57-4.41-1.72Z"/><path class="cls-2" d="M659.77,618.33c-.06,1.36-.65,2.61-1.76,3.76-1.11,1.14-2.6,1.78-4.45,1.9-3.53,.25-7.76,.37-12.71,.37s-9.49-.12-13.64-.37c-1.86-.12-3.34-.76-4.45-1.9-1.11-1.14-1.7-2.4-1.76-3.76-.19-9.4-.28-17.42-.28-24.07s.03-11.52,.09-14.61c0-2.35-1.05-3.53-3.15-3.53h-8.35c-1.3,0-2.35-.31-3.15-.93-.8-.62-1.25-1.7-1.34-3.25-.09-1.54-.14-3.15-.14-4.82s.05-3.11,.14-4.31c.09-1.21,.59-2.13,1.48-2.78,.9-.65,1.87-.97,2.92-.97,8.04-.12,18.92-.19,32.65-.19s23.56,.06,29.5,.19c1.05,.06,2.02,.4,2.92,1.02,.9,.62,1.39,1.53,1.48,2.74,.09,1.21,.14,2.61,.14,4.22s-.03,3.15-.09,4.64c-.19,2.78-1.7,4.17-4.54,4.17h-8.35c-2.1,0-3.15,1.08-3.15,3.25,.19,7.79,.28,14.84,.28,21.15s-.09,12.34-.28,18.09Z"/></g></g></svg>