<?xml version="1.0" encoding="UTF-8"?><svg id="mini_version" xmlns="http://www.w3.org/2000/svg" viewBox="0 0 235.09 209.27"><defs><style>.cls-1{fill:#206346;}.cls-2{fill:#fcbb58;}.cls-3{fill:#e4393c;}.cls-4{fill:#fdf0e1;}</style></defs><path class="cls-3" d="M69.61,209.27c-4.89,0-9.71-1.02-14.14-2.96-2.69,.76-5.48,1.22-8.3,1.35l-.69,.03h-10.43l-.54-.02c-9.71-.35-18.62-4.43-25.08-11.48-5.19-5.66-8.45-12.64-9.43-20.19l-.08-.6-.05-.62c-.58-6.43-.86-15.7-.86-28.31s.17-21.21,.51-27.26l.03-.43c.58-8.04,2.95-15.11,7.06-21.02,5.86-8.43,15.05-13.68,25.66-14.78v-.55s.26-2.66,.26-2.66c.09-.9,.19-1.89,.29-2.88,.2-1.93,1.56-14.57,1.56-14.57l.83-7.84,.94-8.76,.3-2.88c.13-1.22,.26-2.44,.39-3.67,.07-.62,.13-1.26,.19-1.89,.22-2.26,.46-4.74,.94-7.5,1.78-10.22,7.73-18.9,16.76-24.46,5.75-3.54,12.15-5.33,19.02-5.33,1.31,0,2.65,.07,3.98,.2,1.38,.14,2.76,.25,4.14,.36,0,0,1.81,.15,2.6,.21l36.36,3.07,10.06,.86,10.92,.92,12.61,1.08c2.12,.18,4.23,.36,6.35,.53,12.66,1.02,23.36,7.98,29.36,19.1,.91,1.68,1.82,3.36,2.73,5.03l.57,1.05c1.07,1.96,2.14,3.93,3.21,5.91,3.4,6.28,4.78,13.5,3.99,20.86-.17,1.55-.32,3.11-.47,4.68l-.99,9.99-.86,8.79c3.59,.49,6.76,1.15,9.6,1.97,15.85,4.53,26.14,18.72,26.14,36.13,0,5.38-.78,10.32-2.33,14.79,1.36,3.78,2.05,7.8,2.05,11.92v13.54c0,10.33-2.32,19.42-6.89,27.02-6.65,11.05-18.14,17.95-32.35,19.42-7.82,.8-18.83,1.18-33.71,1.18-9.67,0-18.5-1.73-26.24-5.14-.22-.1-.45-.2-.67-.3-5.2,3.02-11.17,4.64-17.51,4.7-3.94,.06-8.28,.09-12.9,.09-5.32,0-9.57-.11-12.99-.34-2.59-.17-5.16-.64-7.63-1.38-4.46,1.98-9.33,3.03-14.3,3.03Z"/><g><polygon class="cls-1" points="66.75 101 98.46 103.1 79.43 119.15 66.75 101"/><g><g><path class="cls-1" d="M58.27,83.47c.11-1.12,.25-2.54,.4-3.96,.26-2.45,.52-4.89,.79-7.34,.26-2.39,.52-4.79,.77-7.18,.28-2.62,.55-5.24,.83-7.86,.31-2.91,.63-5.83,.94-8.74,.23-2.15,.45-4.31,.68-6.46,.29-2.62,.47-5.26,.92-7.85,.57-3.25,2.42-5.72,5.23-7.45,2.28-1.4,4.75-1.82,7.39-1.55,2.38,.24,4.77,.41,7.16,.61,3.03,.26,6.06,.51,9.09,.77,2.71,.23,5.42,.45,8.12,.68,2.69,.23,5.39,.46,8.08,.69,3.69,.31,7.37,.62,11.06,.93,3.35,.28,6.7,.58,10.05,.86,3.65,.31,7.29,.61,10.94,.92,3.35,.28,6.7,.57,10.05,.86,3,.25,6.01,.51,9.01,.75,4.22,.34,7.35,2.33,9.37,6.06,2.16,4,4.35,7.99,6.51,11.99,1.07,1.97,1.36,4.08,1.13,6.29-.25,2.34-.47,4.68-.7,7.02-.26,2.62-.52,5.24-.78,7.87-.28,2.86-.56,5.73-.84,8.59-.28,2.86-.57,5.73-.86,8.59-.26,2.6-.5,5.19-.76,7.79-.22,2.17-.34,4.35-.72,6.49-.77,4.36-4.29,7.74-8.67,8.53-1.22,.22-2.44,.17-3.66,.06-2.89-.27-5.79-.52-8.68-.78-3.15-.28-6.3-.57-9.45-.86-2.8-.25-5.6-.5-8.4-.76-2.56-.23-5.12-.47-7.68-.7-2.83-.25-5.66-.5-8.48-.76-2.81-.25-5.63-.51-8.44-.76-2.84-.26-5.68-.51-8.52-.77-2.56-.23-5.12-.47-7.68-.7-2.83-.25-5.66-.49-8.48-.76-1.94-.18-3.89-.34-5.81-.63-1.62-.24-3.06-1-4.32-2.04-3.91-3.25-7.83-6.5-11.71-9.79-2.57-2.18-3.82-5-3.89-8.66Zm80.17-48.85c-.14-.02-.24-.04-.34-.04-1.38-.11-2.76-.22-4.14-.34-2.38-.2-4.76-.42-7.14-.62-1.74-.15-3.48-.28-5.22-.43-2.68-.23-5.35-.47-8.03-.7-1.45-.12-2.89-.23-4.34-.35-2.74-.23-5.48-.48-8.23-.71-1.7-.14-3.4-.27-5.1-.42-2.37-.2-4.73-.42-7.1-.62-1.75-.15-3.51-.29-5.26-.43-2.94-.24-5.89-.52-8.83-.71-3.28-.22-6.51,2.36-6.99,5.6-.29,1.94-.45,3.89-.66,5.84-.21,1.9-.4,3.79-.6,5.69-.2,1.9-.41,3.79-.61,5.69-.2,1.88-.39,3.77-.59,5.65-.23,2.16-.47,4.33-.7,6.49-.2,1.88-.4,3.77-.6,5.65-.23,2.18-.47,4.36-.7,6.53-.2,1.88-.44,3.76-.59,5.65-.08,.97-.19,1.99,0,2.92,.57,2.75,2.25,4.63,5.02,5.24,1.68,.37,3.44,.41,5.16,.58,1.9,.18,3.8,.33,5.7,.5,2.62,.23,5.25,.48,7.87,.71,1.9,.17,3.8,.33,5.7,.5,2.65,.24,5.3,.48,7.95,.71,1.87,.17,3.75,.33,5.62,.5,2.33,.21,4.66,.42,6.99,.63,1.58,.14,3.16,.28,4.74,.42,2.33,.21,4.66,.42,6.99,.63,1.66,.15,3.32,.3,4.98,.45,.93,.08,1.86,.15,2.82,.23,2.08-20.51,4.16-40.96,6.24-61.45Zm27.61,8.65c-.04-.45-.06-.86-.12-1.25-.39-2.87-3.12-5.39-6.02-5.59-1.35-.09-2.7-.22-4.05-.34-2.73-.24-5.46-.47-8.19-.71-1.15-.1-2.3-.21-3.45-.3-1.04-.09-2.09-.16-3.13-.25-.22-.02-.32,.03-.34,.27-.04,.56-.11,1.12-.17,1.68-.2,1.97-.39,3.93-.59,5.9-.24,2.33-.48,4.65-.71,6.98-.2,1.93-.39,3.85-.58,5.78-.24,2.33-.48,4.65-.71,6.98-.2,1.94-.39,3.88-.59,5.82-.2,2.02-.41,4.04-.62,6.06-.17,1.71-.34,3.42-.51,5.14-.21,2.06-.42,4.12-.63,6.18-.18,1.71-.35,3.42-.53,5.13-.17,1.64-.34,3.29-.5,4.93-.06,.64-.03,.65,.63,.7,1.3,.1,2.6,.22,3.9,.34,2.36,.21,4.71,.42,7.07,.63,1.63,.15,3.26,.32,4.9,.44,1.3,.1,2.6,.24,3.9,.18,2.73-.13,5.35-2.34,5.98-5,.24-1.03,.32-2.09,.44-3.14,.22-2.04,.42-4.09,.63-6.13,.15-1.46,.28-2.91,.43-4.37,.21-2.11,.42-4.22,.63-6.33,.17-1.7,.33-3.39,.5-5.09,.21-2.08,.42-4.17,.63-6.25,.14-1.44,.28-2.89,.42-4.33,.2-2.04,.41-4.09,.62-6.13,.13-1.26,.26-2.51,.38-3.77,.13-1.39,.26-2.78,.38-4.12Z"/><path class="cls-1" d="M168.98,44.15c.19,.36,.39,.72,.58,1.07l.31,.57,.23,.42c.98,1.81,1.97,3.61,2.95,5.43,.72,1.33,.97,2.77,.78,4.54-.18,1.64-.34,3.28-.5,4.93l-.99,9.99-.83,8.57-.86,8.62-.31,3.18c-.15,1.53-.29,3.06-.45,4.56-.06,.56-.11,1.12-.16,1.68l-.02,.19c-.13,1.48-.27,3.01-.52,4.43-.53,3.03-3.1,5.53-6.24,6.1-.4,.07-.82,.11-1.32,.11-.43,0-.92-.03-1.53-.08-1.94-.18-3.88-.35-5.8-.53l-28.42-2.57-33.14-2.99-3-.27c-1.82-.16-3.64-.32-5.48-.5l-.99-.09c-1.61-.15-3.13-.29-4.64-.51-.62-.09-1.59-.34-2.85-1.38l-.46-.39c-2.29-1.9-4.63-3.84-6.97-5.8l3.45,.27c.24,.02,.48,.04,.74,.06,1.21,.12,2.41,.22,3.59,.32l2.12,.19,7.9,.71,5.68,.5,13.57,1.21,7.02,.64,4.71,.42,4.94,.45,12.8,1.15v-.03s9.45,.86,9.45,.86l3.18,.29c1.02,.1,2.03,.19,3.05,.27l12.6,.99,1.34-12.57c.13-1.22,.25-2.45,.38-3.67l.04-.39,.54-5.49,1.77-17.71,.42-4.29,.72-7.16,.03-.3c.08-.82,.17-1.65,.25-2.47h0l.03-.34,.3-3.18M74.76,15c-4.05,0-7.81,1.05-11.17,3.11-5.39,3.32-8.8,8.25-9.84,14.25-.39,2.22-.59,4.31-.79,6.33-.07,.71-.14,1.43-.22,2.14-.15,1.33-.29,2.65-.42,3.98l-.27,2.52-.94,8.74-.83,7.86-.77,7.17s-.59,5.44-.79,7.36c-.11,1.05-.21,2.1-.31,3.03l-.16,1.56v.58c.12,6.52,2.69,12.1,7.43,16.12,3.77,3.19,7.61,6.39,11.33,9.47l.46,.38c2.79,2.32,5.9,3.75,9.25,4.24,1.87,.28,3.65,.44,5.37,.6l.96,.09c1.85,.17,3.69,.34,5.54,.5l2.99,.27,33.12,2.99,28.42,2.57c1.92,.17,3.84,.34,5.77,.52,1.03,.09,1.89,.14,2.73,.14,1.27,0,2.46-.1,3.62-.31,8.53-1.54,15.25-8.22,16.74-16.63,.35-1.97,.52-3.87,.67-5.55,.05-.56,.1-1.11,.16-1.67,.16-1.55,.31-3.1,.46-4.65l.31-3.17,.86-8.59,.84-8.59,.99-9.97c.16-1.61,.31-3.22,.49-4.83,.47-4.39-.29-8.47-2.27-12.12-1.06-1.96-2.12-3.91-3.19-5.87-1.11-2.04-2.22-4.08-3.32-6.12-3.6-6.66-9.77-10.67-17.36-11.28-2.3-.19-4.61-.38-6.91-.58l-12.12-1.03-10.94-.92-10.05-.86-36.36-3.07c-.77-.07-1.53-.13-2.3-.19-1.56-.12-3.13-.25-4.69-.41-.83-.08-1.67-.13-2.48-.13h0Zm48.49,70.24l-4.94-.45-4.73-.42-6.99-.63-13.58-1.21-5.7-.5-7.87-.71-2.16-.19c-1.16-.1-2.32-.2-3.48-.31-.32-.03-.64-.06-.96-.08,.06-.52,.36-3.28,.36-3.28l.7-6.55,.59-5.64,.7-6.5,.59-5.65,.61-5.69s.48-4.58,.6-5.67c.06-.57,.22-2.11,.24-2.3,.93,.08,4.59,.39,5.49,.46l1.77,.14c1.15,.09,2.31,.19,3.46,.28l7.1,.62c.89,.08,4.3,.35,5.1,.42l8.23,.71c.73,.06,1.45,.12,2.18,.18,.72,.06,1.44,.11,2.16,.18l8.02,.7c.94,.08,1.88,.16,2.82,.23l2.4,.2,1.5,.13-4.21,41.54h0Zm28.33,2.53c-.95-.07-1.89-.16-2.84-.25l-3.22-.29s.55-5.36,.7-6.8l.51-5.14,1.92-18.84,1.1-10.85,6,.52c0,.1-.02,.21-.03,.31-.09,.9-.18,1.79-.27,2.69l-.73,7.17-.42,4.33-1.77,17.68-.54,5.52c-.13,1.32-.26,2.63-.4,3.95h0Z"/></g><path class="cls-4" d="M138.44,34.62c-2.08,20.49-4.15,40.95-6.24,61.45-.95-.08-1.89-.15-2.82-.23-1.66-.15-3.32-.3-4.98-.45-2.33-.21-4.66-.42-6.99-.63-1.58-.14-3.16-.28-4.74-.42-2.33-.21-4.66-.42-6.99-.63-1.87-.17-3.75-.33-5.62-.5-2.65-.24-5.3-.48-7.95-.71-1.9-.17-3.8-.33-5.7-.5-2.62-.23-5.25-.48-7.87-.71-1.9-.17-3.8-.32-5.7-.5-1.72-.17-3.48-.21-5.16-.58-2.77-.61-4.45-2.48-5.02-5.24-.19-.94-.08-1.95,0-2.92,.16-1.89,.39-3.77,.59-5.65,.23-2.18,.47-4.36,.7-6.53,.2-1.88,.39-3.77,.6-5.65,.23-2.16,.47-4.33,.7-6.49,.2-1.88,.39-3.77,.59-5.65,.2-1.9,.41-3.79,.61-5.69,.2-1.9,.4-3.8,.6-5.69,.21-1.95,.38-3.91,.66-5.84,.48-3.23,3.71-5.81,6.99-5.6,2.95,.19,5.89,.47,8.83,.71,1.75,.14,3.51,.28,5.26,.43,2.37,.2,4.73,.42,7.1,.62,1.7,.15,3.4,.27,5.1,.42,2.74,.23,5.48,.48,8.23,.71,1.45,.12,2.89,.23,4.34,.35,2.68,.23,5.35,.47,8.03,.7,1.74,.15,3.48,.28,5.22,.43,2.38,.2,4.76,.42,7.14,.62,1.38,.12,2.76,.23,4.14,.34,.1,0,.21,.03,.34,.04Zm-57.07,2.65c-2.95,.04-5.07,1.35-6.43,3.9-.49,.93-.63,1.95-.73,2.99-.19,1.94-.41,3.87-.62,5.81-.15,1.38-.28,2.75-.43,4.13-.2,1.92-.41,3.84-.62,5.77-.17,1.63-.34,3.26-.51,4.89-.2,1.92-.41,3.84-.62,5.77-.15,1.43-.33,2.86-.45,4.29-.08,.96-.19,1.93-.1,2.89,.26,3.02,2.72,5.63,6.14,5.9,1.66,.13,3.32,.28,4.98,.43,2.65,.23,5.3,.48,7.94,.71,2.42,.22,4.84,.43,7.26,.65,1.99,.18,3.98,.37,5.98,.54,1.75,.15,3.51,.29,5.26,.44,2.34,.21,4.68,.42,7.02,.63,1.31,.12,2.63,.18,3.93,.35,3.04,.4,5.95-1.13,7.3-3.87,.59-1.2,.68-2.5,.81-3.8,.2-1.97,.39-3.93,.59-5.9,.23-2.26,.47-4.52,.7-6.78,.2-1.97,.39-3.93,.59-5.9,.21-2.03,.42-4.06,.63-6.09,.18-1.74,.38-3.47,.53-5.21,.09-1.04,.21-2.1,.09-3.13-.35-3.1-2.99-5.52-6.1-5.73-1.1-.08-2.2-.18-3.29-.27-2.33-.2-4.66-.41-6.99-.61-1.75-.15-3.51-.29-5.26-.44-2.36-.2-4.71-.41-7.07-.61-1.74-.15-3.48-.29-5.22-.44-2.04-.17-4.07-.35-6.11-.53-1.5-.13-3-.26-4.5-.39-1.58-.13-3.16-.26-4.7-.38Z"/><path class="cls-4" d="M166.04,43.27c-.12,1.34-.25,2.73-.38,4.12-.12,1.26-.25,2.51-.38,3.77-.21,2.04-.42,4.09-.62,6.13-.14,1.44-.28,2.89-.42,4.33-.21,2.08-.42,4.17-.63,6.25-.17,1.7-.34,3.39-.5,5.09-.21,2.11-.42,4.22-.63,6.33-.14,1.46-.28,2.91-.43,4.37-.2,2.04-.4,4.09-.63,6.13-.12,1.05-.19,2.12-.44,3.14-.63,2.66-3.25,4.87-5.98,5-1.29,.06-2.6-.08-3.9-.18-1.63-.12-3.27-.29-4.9-.44-2.36-.21-4.71-.42-7.07-.63-1.3-.12-2.6-.23-3.9-.34-.66-.05-.69-.06-.63-.7,.16-1.65,.33-3.29,.5-4.93,.18-1.71,.35-3.42,.53-5.13,.21-2.06,.42-4.12,.63-6.18,.17-1.71,.34-3.42,.51-5.14,.2-2.02,.41-4.04,.62-6.06,.2-1.94,.39-3.88,.59-5.82,.24-2.33,.48-4.65,.71-6.98,.2-1.93,.39-3.85,.58-5.78,.24-2.33,.48-4.65,.71-6.98,.2-1.97,.39-3.93,.59-5.9,.06-.56,.12-1.12,.17-1.68,.02-.23,.12-.29,.34-.27,1.04,.09,2.09,.16,3.13,.25,1.15,.1,2.3,.2,3.45,.3,2.73,.24,5.46,.48,8.19,.71,1.35,.12,2.7,.24,4.05,.34,2.91,.2,5.63,2.71,6.02,5.59,.05,.4,.08,.8,.12,1.25Zm-22.28,5.29c-.09,1.34,.9,2.14,1.82,2.23,2.14,.21,4.28,.38,6.42,.57,1.82,.16,3.64,.3,5.46,.47,1.11,.1,2.22-.77,2.34-1.88,.1-.96,.2-1.92,.3-2.89,.11-1.08-.69-2.13-1.72-2.23-2.15-.21-4.31-.38-6.46-.57-1.77-.15-3.54-.29-5.3-.47-1.3-.13-2.37,.59-2.55,1.84-.14,.97-.2,1.95-.3,2.93Zm-.95,35.9c-.08,2.95,2.28,5.36,5.25,5.41,3.07,.06,5.68-2.34,5.64-5.6-.03-2.99-2.38-5.2-5.25-5.27-3.3-.08-5.68,2.63-5.64,5.45Zm6.87-19.46c-3.03,0-5.49,2.46-5.48,5.49,0,2.94,2.44,5.38,5.42,5.34,3.17-.05,5.48-2.58,5.49-5.52,0-2.97-2.4-5.31-5.43-5.31Zm4.59-10.16c-.09,0-.13,0-.17,0-.63,0-1.04,.34-1.1,.89-.05,.56,.26,.99,.9,1.06,1.39,.16,2.78,.27,4.17,.37,.62,.04,1.1-.39,1.15-.94,.05-.48-.39-.97-.99-1.03-1.34-.13-2.68-.23-3.97-.34Zm2.98,7.69v-.02c.08,0,.16,0,.24,.01,.61,.04,1.12-.34,1.17-.86,.06-.61-.35-1.05-1.01-1.1-1.35-.12-2.7-.24-4.05-.37-.56-.05-1.08,.35-1.15,.9-.06,.53,.34,1.03,.91,1.08,1.3,.13,2.59,.24,3.89,.35Zm-13.48-3.19s0,0,0,.01c-.05,0-.11,0-.16,0-.59,.01-1.07,.42-1.11,.95-.04,.47,.38,.91,.96,1,.34,.05,.69,.09,1.04,.12,1.04,.09,2.09,.19,3.13,.25,.61,.03,1.07-.4,1.1-.95,.03-.5-.37-.97-.94-1.03-1.34-.13-2.68-.24-4.02-.35Zm4.15-3.05c.19-.01,.37,0,.54-.03,.44-.08,.83-.55,.82-.97,0-.43-.36-.89-.8-.94-1.46-.15-2.92-.28-4.38-.39-.55-.04-1.01,.43-1.04,.97-.03,.49,.37,.96,.9,1.02,1.32,.13,2.65,.23,3.96,.35Z"/><path class="cls-1" d="M81.36,37.27c1.54,.13,3.12,.25,4.7,.38,1.5,.13,3,.26,4.5,.39,2.04,.18,4.07,.36,6.11,.53,1.74,.15,3.48,.29,5.22,.44,2.36,.2,4.71,.41,7.07,.61,1.75,.15,3.51,.29,5.26,.44,2.33,.2,4.66,.41,6.99,.61,1.1,.1,2.2,.2,3.29,.27,3.11,.21,5.75,2.63,6.1,5.73,.12,1.03,0,2.09-.09,3.13-.15,1.74-.35,3.48-.53,5.21-.21,2.03-.42,4.06-.63,6.09-.2,1.97-.39,3.93-.59,5.9-.23,2.26-.47,4.52-.7,6.78-.2,1.97-.39,3.93-.59,5.9-.13,1.3-.22,2.6-.81,3.8-1.35,2.74-4.25,4.27-7.3,3.87-1.3-.17-2.62-.24-3.93-.35-2.34-.21-4.68-.43-7.02-.63-1.75-.15-3.51-.29-5.26-.44-1.99-.18-3.98-.37-5.98-.54-2.42-.22-4.84-.43-7.26-.65-2.65-.24-5.3-.48-7.94-.71-1.66-.15-3.32-.3-4.98-.43-3.42-.27-5.89-2.88-6.14-5.9-.08-.95,.02-1.93,.1-2.89,.12-1.43,.3-2.86,.45-4.29,.21-1.92,.41-3.84,.62-5.77,.17-1.63,.34-3.26,.51-4.89,.2-1.92,.41-3.84,.62-5.77,.15-1.38,.28-2.75,.43-4.13,.21-1.94,.43-3.87,.62-5.81,.1-1.04,.24-2.06,.73-2.99,1.36-2.56,3.48-3.86,6.43-3.9Z"/><path class="cls-1" d="M143.76,48.56c.1-.98,.16-1.96,.3-2.93,.18-1.26,1.25-1.98,2.55-1.84,1.76,.18,3.53,.31,5.3,.47,2.16,.19,4.31,.36,6.46,.57,1.03,.1,1.83,1.16,1.72,2.23-.1,.96-.19,1.92-.3,2.89-.12,1.11-1.23,1.99-2.34,1.88-1.82-.17-3.64-.31-5.46-.47-2.14-.19-4.28-.36-6.42-.57-.92-.09-1.91-.89-1.82-2.23Z"/><path class="cls-1" d="M142.81,84.46c-.04-2.83,2.34-5.54,5.64-5.45,2.87,.07,5.21,2.28,5.25,5.27,.04,3.25-2.57,5.65-5.64,5.6-2.97-.05-5.32-2.47-5.25-5.41Z"/><path class="cls-1" d="M149.68,65c3.03,0,5.44,2.34,5.43,5.31,0,2.93-2.31,5.47-5.49,5.52-2.98,.04-5.42-2.39-5.42-5.34,0-3.03,2.45-5.48,5.48-5.49Z"/><path class="cls-1" d="M154.27,54.85c1.29,.11,2.63,.21,3.97,.34,.6,.06,1.04,.56,.99,1.03-.05,.56-.53,.99-1.15,.94-1.39-.09-2.78-.21-4.17-.37-.64-.07-.96-.51-.9-1.06,.05-.55,.47-.88,1.1-.89,.04,0,.08,0,.17,0Z"/><path class="cls-1" d="M157.25,62.54c-1.3-.12-2.6-.23-3.89-.35-.57-.06-.97-.56-.91-1.08,.07-.55,.59-.95,1.15-.9,1.35,.12,2.7,.25,4.05,.37,.66,.06,1.07,.5,1.01,1.1-.05,.52-.56,.9-1.17,.86-.08,0-.16,0-.24-.01v.02Z"/><path class="cls-1" d="M143.77,59.35c1.34,.12,2.68,.22,4.02,.35,.57,.06,.96,.52,.94,1.03-.03,.55-.49,.98-1.1,.95-1.05-.06-2.09-.16-3.13-.25-.35-.03-.69-.07-1.04-.12-.58-.09-1-.53-.96-1,.04-.52,.52-.94,1.11-.95,.05,0,.11,0,.16,0,0,0,0,0,0-.01Z"/><path class="cls-1" d="M147.92,56.31c-1.31-.11-2.63-.22-3.96-.35-.53-.05-.92-.52-.9-1.02,.03-.54,.49-1.01,1.04-.97,1.46,.11,2.92,.24,4.38,.39,.44,.04,.8,.51,.8,.94,0,.43-.38,.89-.82,.97-.17,.03-.35,.02-.54,.03Z"/></g><g><g><path class="cls-1" d="M69.61,194.27c-4.81,0-9.33-1.66-12.98-4.68-3.05,1.86-6.53,2.92-10.16,3.08l-.35,.02h-10.08c-5.66-.21-10.83-2.57-14.55-6.63-3.09-3.38-5.04-7.52-5.62-11.99l-.04-.3-.03-.3c-.54-6-.8-14.83-.8-26.99s.16-20.63,.49-26.41v-.22c.39-5.31,1.88-9.86,4.42-13.53,2.22-3.2,7.47-8.57,17.6-8.57,20.79,0,22.06,.22,23.66,.51,6.26,1.11,10.47,5.42,14.09,9.91,1.55,1.93,3.19,4.12,4.95,6.6,2.01-2.89,3.8-5.29,5.4-7.26,3.29-4.05,8.58-9.48,16.42-9.84,1.62-.07,3.57-.11,5.97-.11s5.08,.07,8.24,.2c9.78,.42,14.92,4.98,17.51,8.74,2.49,3.62,3.95,8.1,4.33,13.31l.02,.24c.39,6.75,.58,15.73,.58,26.69s-.29,20.02-.9,26.71c-.38,4.48-2.16,8.77-5.13,12.3-3.83,4.54-9.29,7.06-15.4,7.1-3.89,.06-8.17,.09-12.72,.09-4.98,0-8.89-.1-11.98-.31-3.51-.23-6.8-1.38-9.66-3.36-3.67,3.21-8.3,4.97-13.29,4.97Z"/><path class="cls-2" d="M63.58,117.58c2.29,2.85,4.92,6.51,7.88,10.99,2.97,4.48,5.04,7.47,6.21,8.95,1.17,1.48,2.12,2.23,2.83,2.23s1.34-.4,1.9-1.21c.56-.8,2.6-3.9,6.12-9.28,3.52-5.38,6.43-9.48,8.72-12.29,2.29-2.81,4.11-4.25,5.47-4.31,1.36-.06,3.12-.09,5.29-.09s4.7,.06,7.61,.19c2.91,.12,4.84,.88,5.8,2.27,.96,1.39,1.53,3.36,1.72,5.89,.37,6.49,.56,15.11,.56,25.83s-.28,19.19-.83,25.37c-.12,1.48-.68,2.81-1.67,3.99-.99,1.18-2.35,1.76-4.08,1.76-3.77,.06-7.96,.09-12.57,.09s-8.27-.09-10.99-.28c-.99-.06-1.87-.45-2.64-1.16-.77-.71-1.19-1.65-1.25-2.83l-.56-15.31c-.06-1.48-.39-2.32-.97-2.5-.59-.19-1.13,.22-1.62,1.21-3.28,5.81-7.36,12.31-12.25,19.48-1.17,1.79-2.72,2.69-4.64,2.69s-3.49-.9-4.73-2.69c-2.17-3.09-5.84-9.65-11.04-19.67-.31-.62-.67-.99-1.07-1.11-.4-.12-.76,.03-1.07,.46-.31,.43-.46,1.14-.46,2.13l-.46,15.31c-.06,1.17-.59,2.12-1.58,2.83-.99,.71-2.13,1.1-3.43,1.16h-9.18c-1.67-.06-3.02-.65-4.04-1.76-1.02-1.11-1.62-2.38-1.81-3.8-.5-5.5-.74-14.05-.74-25.65s.15-20.11,.46-25.56c.19-2.6,.77-4.61,1.76-6.03,.99-1.42,2.75-2.13,5.29-2.13,12.99,0,20,.09,21.06,.28,1.05,.19,2.72,1.7,5.01,4.54Z"/></g><g><path class="cls-1" d="M161.86,193.62c-7.57,0-14.37-1.3-20.2-3.87-6.45-2.84-11.63-7-15.38-12.36l-.07-.09c-5.69-8.27-8.58-18.51-8.58-30.44s4.02-23.58,11.94-33.22c8.33-10.14,19.93-15.88,33.53-16.59,6.77-.39,11.66-.58,14.88-.58,12.28,0,20.78,.81,26.74,2.55,9.44,2.7,15.34,11.03,15.34,21.73,0,6.6-1.63,11.44-4.05,14.94,2.43,3.35,3.77,7.43,3.77,11.78v13.54c0,7.56-1.6,14.05-4.75,19.28-2.95,4.89-8.99,10.99-21.04,12.24-7.29,.74-17.8,1.1-32.16,1.1Z"/><path class="cls-2" d="M187.46,127.79c-5.57,0-9.48,1.44-11.73,4.31-2.26,2.88-3.39,7.44-3.39,13.68,0,9.83,2.88,14.75,8.63,14.75,1.17,0,1.95-.03,2.32-.09-.74,0-1.35-1.3-1.81-3.9-.46-2.6-.7-5.32-.7-8.16s.77-4.68,2.32-5.52c1.54-.83,3.69-1.25,6.45-1.25s4.67,.02,5.75,.05c1.08,.03,2.32,.16,3.71,.37,1.39,.22,2.46,.54,3.2,.97,1.73,.99,2.6,2.47,2.6,4.45v13.54c0,4.82-.87,8.67-2.6,11.55-1.73,2.88-4.98,4.56-9.74,5.06-6.68,.68-16.88,1.02-30.61,1.02-5.5,0-10.22-.87-14.15-2.6-3.93-1.73-6.97-4.14-9.14-7.24-3.96-5.75-5.94-13.06-5.94-21.94s2.84-16.77,8.53-23.7c5.69-6.92,13.27-10.64,22.73-11.13,6.49-.37,11.19-.56,14.1-.56,10.58,0,18.09,.65,22.54,1.95,3.03,.87,4.55,3.31,4.55,7.33,0,5.38-1.58,8.07-4.73,8.07-.99-.06-2.97-.25-5.94-.56-2.97-.31-5.29-.46-6.96-.46Z"/></g></g></g></svg>