<?xml version="1.0" encoding="UTF-8"?><svg id="Horisontal_version" xmlns="http://www.w3.org/2000/svg" xmlns:xlink="http://www.w3.org/1999/xlink" viewBox="0 0 642.79 234.59"><defs><style>.cls-1{fill:#206346;}.cls-2{fill:#fcbb58;}.cls-3{fill:#e4393c;}.cls-4{fill:#fdf0e1;}.cls-5{clip-path:url(#clippath);}.cls-6{fill:none;}</style><clipPath id="clippath"><polygon class="cls-6" points="618.3 149.54 611.52 133.33 466.07 131.59 438.86 122.19 454.22 12.64 642.79 26.84 618.3 149.54"/></clipPath></defs><path class="cls-3" d="M242.79,234.59c-17.1,0-32.01-4.29-44.33-12.75-4.1,2.68-8.61,5.01-13.49,6.95-8.67,3.46-18.19,5.4-28.27,5.78l-.55,.02h-.57c-10.57,0-20.49-1.47-29.49-4.36-4.38-1.41-8.49-3.1-12.31-5.08-5.88,3.99-12.97,6.51-20.87,7.33-7.82,.8-18.83,1.18-33.71,1.18-9.67,0-18.5-1.73-26.24-5.14-9-3.97-16.28-9.85-21.62-17.49l-.13-.19C3.78,200.02,0,186.92,0,171.89c0-10.55,2.27-20.43,6.77-29.51-2.65-4.36-4.37-9.22-5.03-14.33l-.08-.6-.05-.62c-.58-6.43-.86-15.7-.86-28.31s.17-21.21,.51-27.26l.03-.43c.58-8.04,2.95-15.12,7.06-21.02,6.63-9.53,17.53-15,29.92-15,21.25,0,23.3,.21,26.26,.73,6.89,1.22,12.21,4.4,16.42,8.09,6.39-5.55,13.48-8.53,21.16-8.88,1.85-.08,4.02-.12,6.66-.12s5.49,.07,8.88,.21c3.7,.16,7.2,.74,10.48,1.73,3.71-1.17,7.69-1.75,11.9-1.75h24.86c3.95,0,7.71,.52,11.23,1.55,3.52-1.03,7.27-1.55,11.22-1.55h24.86c6.1,0,11.88,1.43,17.04,4.16,5.13-2.68,10.83-4.11,16.86-4.2,2.24-.03,4.59-.05,7.1-.05l7.48,.09c3.57,.03,7.07,.65,10.39,1.82,3.67-1.15,7.55-1.77,11.53-1.82,4.79-.06,11.38-.09,19.58-.09s15.22,.06,20.77,.19c11.8,.21,22.53,3.74,31.56,10.32,5.17-3.28,11.02-6,17.48-8.11,9.04-2.95,18.89-4.45,29.26-4.45s19.88,1.39,28.4,4.14c2.51,.81,4.93,1.72,7.25,2.73,.24-2.39,.54-5.01,1.02-7.76,1.89-10.87,8.26-20.13,17.94-26.09,6.14-3.78,12.99-5.69,20.36-5.69,1.43,0,2.9,.08,4.37,.22,2.03,.21,4.12,.37,6.33,.55,1.15,.09,2.23,.18,3.32,.27l41.9,3.54,9.02,.76s11.52,.99,14.08,1.2l15.32,1.29,16.62,1.42c3.33,.28,6.67,.57,10,.83,13.78,1.11,24.97,8.39,31.51,20.49,1.55,2.86,3.1,5.72,4.66,8.59l.07,.13c1.46,2.69,2.93,5.38,4.38,8.07,3.66,6.76,5.08,14.23,4.22,22.22-.24,2.21-.45,4.42-.67,6.63,0,.03-1.13,11.44-1.39,14.02l-1.17,12.02-1.2,12.07-.42,4.3c-.19,1.94-.37,3.87-.57,5.81,2.68,4.47,4.31,9.55,4.72,14.84,.15,1.99,.23,4.12,.23,6.52,0,1.98-.04,3.96-.12,5.86l-.04,.77c-.77,11.51-6.69,21.25-15.7,26.91,0,6.47-.1,12.77-.29,18.72l-.02,.41c-.4,8.79-3.94,16.84-10.24,23.31-6.33,6.51-14.62,10.29-23.96,10.91-4.12,.29-9.08,.44-14.69,.44s-10.68-.14-15.42-.42h-.22c-5.07-.35-9.84-1.62-14.16-3.76-4.74,2.49-10.01,3.82-15.47,3.82h-57.23c-3.61,0-7.18-.54-10.6-1.58-3.46,1.13-7.12,1.73-10.85,1.76-3.94,.06-8.28,.09-12.91,.09-5.32,0-9.57-.11-12.99-.34-2.59-.17-5.16-.64-7.63-1.38-4.46,1.98-9.33,3.03-14.3,3.03s-9.71-1.02-14.14-2.96c-2.69,.76-5.48,1.22-8.3,1.35l-.69,.03h-10.43l-.54-.02c-1.93-.07-3.84-.29-5.73-.67-2.21,.49-4.47,.75-6.78,.78-3.45,.06-6.91,.1-10.29,.1s-6.82-.03-10.26-.09c-3.42-.04-6.75-.53-9.96-1.48-2.79,.79-5.73,1.27-8.8,1.44-4,.21-8.39,.32-13.05,.32s-10.22-.17-16.6-.5l-.48-.03c-5.71-.39-11.02-1.97-15.74-4.65-9.25,4.43-19.32,6.67-30.07,6.67Z"/><g><g><g><path class="cls-1" d="M70.35,146.31c-4.81,0-9.33-1.66-12.98-4.68-3.05,1.86-6.53,2.92-10.16,3.08l-.35,.02h-10.08c-5.66-.21-10.83-2.57-14.55-6.63-3.09-3.38-5.04-7.52-5.62-11.99l-.04-.3-.03-.3c-.54-6-.8-14.83-.8-26.99s.16-20.63,.49-26.41v-.22c.39-5.31,1.88-9.86,4.42-13.53,2.22-3.2,7.47-8.57,17.6-8.57,20.79,0,22.06,.22,23.66,.51,6.26,1.11,10.47,5.42,14.09,9.91,1.55,1.93,3.19,4.12,4.95,6.6,2.01-2.89,3.8-5.29,5.4-7.26,3.29-4.05,8.58-9.48,16.42-9.84,1.62-.07,3.57-.11,5.97-.11s5.08,.07,8.24,.2c9.78,.42,14.92,4.98,17.51,8.74,2.49,3.62,3.95,8.1,4.33,13.31l.02,.24c.39,6.75,.58,15.73,.58,26.69s-.29,20.02-.9,26.71c-.38,4.48-2.16,8.77-5.13,12.3-3.83,4.54-9.29,7.06-15.4,7.1-3.89,.06-8.17,.09-12.72,.09-4.98,0-8.89-.1-11.98-.31-3.51-.23-6.8-1.38-9.66-3.36-3.67,3.21-8.3,4.97-13.29,4.97Z"/><path class="cls-1" d="M152.91,145.01c-4.89,0-9.62-.13-14.06-.4h-.14c-5.51-.39-10.36-2.59-14.04-6.38-3.33-3.43-5.42-7.69-6.02-12.32l-.04-.29-.03-.29c-.54-5.95-.8-14.78-.8-27.01s.15-20.15,.45-24.59c.48-6.95,1.68-11.47,4.01-15.1,2.13-3.31,7.26-8.84,17.77-8.84h24.86c10.51,0,15.64,5.53,17.76,8.83,2.34,3.64,3.54,8.16,4.02,15.11,.3,4.45,.45,12.49,.45,24.59s-.26,21.05-.8,27l-.03,.29-.04,.29c-.6,4.62-2.68,8.88-6.01,12.31-3.69,3.79-8.54,5.99-14.05,6.37-3.86,.27-8.33,.41-13.27,.41Z"/><path class="cls-1" d="M240.01,144.74c-5.08,0-9.69-1.58-13.27-4.5-.13,.09-.26,.19-.4,.28-3.12,2.15-6.72,3.43-10.67,3.79l-.4,.03c-4.18,.27-8.95,.4-14.17,.4s-10.17-.13-14.81-.39h-.15c-5.58-.38-10.49-2.6-14.21-6.42-3.53-3.63-5.62-8.13-6.05-13.02-.54-5.88-.8-14.62-.8-26.66s.15-19.88,.45-24.35c.47-6.93,1.65-11.43,3.93-15.07,2.11-3.37,7.24-9.02,17.85-9.02h24.86c6.46,0,12.34,2.74,16.55,7.72,.09,.1,.17,.2,.25,.31l1.94-1.81c4.22-4.01,9.54-6.17,15.39-6.26,2.15-.03,4.44-.05,6.87-.05l7.28,.09c7.01,.06,13.21,4.29,15.83,10.82,2.61,6.52,1.13,13.68-3.88,18.68-3.96,3.96-7.94,7.78-11.93,11.46,.67,.67,1.29,1.28,1.86,1.83,1.73,1.7,3.76,3.75,6.04,6.09,4.78,4.91,8.38,8.85,11.02,12.04,3.45,4.14,5.29,9.04,5.29,14.1,0,2.02-.31,4.06-.91,6.08l-.09,.3c-2.7,8.35-9.88,13.54-18.72,13.54h-24.95Z"/><path class="cls-1" d="M296.31,145.11c-4.37,0-9.69-.16-15.81-.48h-.24c-5.51-.39-10.36-2.59-14.04-6.38-3.33-3.43-5.42-7.69-6.02-12.32l-.04-.29-.03-.29c-.54-5.95-.8-14.78-.8-27.01s.19-20.79,.59-26.51c.91-13.01,10.09-21.87,22.85-22.03,4.76-.06,11.28-.09,19.39-.09s15,.06,20.43,.19c11.85,.21,22.15,4.92,29.8,13.64,7.33,8.36,11.05,18.02,11.05,28.72,0,6.6-1.57,12.82-4.66,18.49-.31,.57-.63,1.13-.97,1.68,.95,1.08,3.48,3.92,3.48,3.92l.3,.38c3.14,4.05,3.8,8.04,3.8,10.69,0,9.86-7.27,17.32-16.94,17.41-3.39,.06-6.78,.09-10.07,.09s-6.67-.03-10.06-.09c-3.58-.03-6.98-.91-10.08-2.6-2.65,1.44-5.87,2.38-9.67,2.58-3.74,.2-7.86,.3-12.25,.3Z"/><path class="cls-1" d="M401.6,146.59c-9.01,0-17.38-1.22-24.9-3.64-7.98-2.56-14.71-6.2-20-10.8-5.28-4.59-9.41-9.88-12.26-15.73-2.98-6.09-4.49-12.57-4.49-19.25s1.54-13.21,4.58-19.33c2.87-5.79,6.97-11.04,12.18-15.61,5.26-4.6,11.96-8.26,19.93-10.86,7.54-2.46,15.82-3.71,24.6-3.71s16.77,1.15,23.8,3.41c7.59,2.45,13.96,5.98,18.94,10.51,10.01,9.12,15.3,20.72,15.3,33.55,0,6.5-1.39,12.9-4.14,19.03-2.64,5.9-6.43,11.28-11.24,16.02-4.91,4.82-11.12,8.75-18.45,11.67-7.08,2.82-14.91,4.41-23.27,4.72h-.28s-.28,.01-.28,.01Z"/><path class="cls-1" d="M59.22,218.66c-7.57,0-14.37-1.3-20.2-3.87-6.45-2.84-11.63-7-15.38-12.36l-.07-.09c-5.69-8.27-8.58-18.51-8.58-30.44s4.02-23.58,11.94-33.22c8.33-10.14,19.93-15.88,33.53-16.59,6.77-.39,11.66-.58,14.88-.58,12.28,0,20.78,.81,26.74,2.55,9.44,2.7,15.34,11.03,15.34,21.73,0,6.6-1.63,11.44-4.05,14.94,2.43,3.35,3.77,7.43,3.77,11.78v13.54c0,7.56-1.6,14.05-4.75,19.28-2.95,4.89-8.99,10.99-21.04,12.24-7.29,.74-17.8,1.1-32.16,1.1Z"/><path class="cls-1" d="M155.6,219.59c-9.01,0-17.38-1.22-24.9-3.64-7.98-2.56-14.71-6.2-20-10.8-5.28-4.59-9.41-9.88-12.26-15.73-2.98-6.09-4.49-12.57-4.49-19.25s1.54-13.21,4.58-19.33c2.87-5.79,6.97-11.04,12.18-15.61,5.26-4.6,11.96-8.26,19.93-10.86,7.54-2.46,15.82-3.71,24.6-3.71s16.77,1.15,23.8,3.41c7.59,2.45,13.96,5.98,18.94,10.51,10.01,9.12,15.3,20.72,15.3,33.55,0,6.5-1.39,12.9-4.14,19.03-2.64,5.9-6.43,11.28-11.24,16.02-4.91,4.82-11.12,8.75-18.45,11.67-7.08,2.82-14.91,4.41-23.27,4.72h-.28s-.28,.01-.28,.01Z"/><path class="cls-1" d="M242.79,219.59c-14.39,0-26.72-3.59-36.64-10.68-5.77-4.14-10.33-9.62-13.56-16.31-3.08-6.38-4.69-13.69-4.78-21.72-.06-3.01-.09-7.29-.09-13.09s.08-10.35,.26-13.17c.31-5.08,1.54-9.27,3.75-12.8,2.12-3.37,7.24-9.02,17.76-9.02h24.77c6.82,0,11.35,2.39,14.26,5,2.9-2.57,7.46-5,14.31-5h8.53c7.04,0,13.09,3.1,16.62,8.53,3.11,4.7,4.59,10.92,4.59,32.63,0,4.88-.07,8.59-.2,11.32-.28,7.28-2.06,13.98-5.29,19.91-3.23,5.95-7.52,10.84-12.76,14.52-9.27,6.55-19.89,9.87-31.54,9.87Z"/><path class="cls-1" d="M305.68,218.11c-4.37,0-9.69-.16-15.81-.48h-.24c-5.51-.39-10.36-2.59-14.04-6.38-3.33-3.43-5.42-7.69-6.02-12.32l-.04-.29-.03-.29c-.54-5.95-.8-14.78-.8-27.01s.19-20.79,.59-26.51c.91-13.01,10.09-21.87,22.85-22.03,4.76-.06,11.28-.09,19.39-.09s15,.06,20.43,.19c11.85,.21,22.15,4.92,29.8,13.64,7.33,8.36,11.05,18.02,11.05,28.72,0,6.6-1.57,12.82-4.66,18.49-.31,.57-.63,1.13-.97,1.68,.95,1.08,3.48,3.92,3.48,3.92l.3,.38c3.14,4.05,3.8,8.04,3.8,10.69,0,9.86-7.27,17.32-16.94,17.41-3.39,.06-6.78,.09-10.07,.09s-6.67-.03-10.06-.09c-3.58-.03-6.98-.91-10.08-2.6-2.65,1.44-5.87,2.38-9.67,2.58-3.74,.2-7.86,.3-12.25,.3Z"/><path class="cls-1" d="M404.66,219.31c-4.81,0-9.33-1.66-12.98-4.68-3.05,1.86-6.53,2.92-10.16,3.08l-.35,.02h-10.08c-5.66-.21-10.83-2.57-14.55-6.63-3.09-3.38-5.04-7.52-5.62-11.99l-.04-.3-.03-.3c-.54-6-.8-14.83-.8-26.99s.16-20.63,.49-26.41v-.22c.39-5.31,1.88-9.86,4.42-13.53,2.22-3.2,7.47-8.57,17.6-8.57,20.79,0,22.06,.22,23.66,.51,6.26,1.11,10.47,5.42,14.09,9.91,1.55,1.93,3.19,4.12,4.95,6.6,2.01-2.89,3.8-5.29,5.4-7.26,3.29-4.05,8.58-9.48,16.42-9.84,1.62-.07,3.57-.11,5.97-.11s5.08,.07,8.24,.2c9.78,.42,14.92,4.98,17.51,8.74,2.49,3.62,3.95,8.1,4.33,13.31l.02,.24c.39,6.75,.58,15.73,.58,26.69s-.29,20.02-.9,26.71c-.38,4.48-2.16,8.77-5.13,12.3-3.83,4.54-9.29,7.06-15.4,7.1-3.89,.06-8.17,.09-12.72,.09-4.98,0-8.89-.1-11.98-.31-3.51-.23-6.8-1.38-9.66-3.36-3.67,3.21-8.3,4.97-13.29,4.97Z"/><path class="cls-1" d="M473.95,217.74c-5.53,0-10.77-2.07-14.73-5.83-3.77-3.58-6.08-8.5-6.87-14.62-.31-2.41-.63-7.34-.63-25.57s.41-24.3,.73-27.26c1.51-15.38,12.26-21.17,21.03-21.45,4.72-.13,22.97-.19,55.86-.19,9.86,0,20.47,6.87,20.47,21.96,0,6.84-2.77,12.6-7.33,16.25,1.08,2.74,1.58,5.83,1.58,9.63,0,2.41-.28,4.63-.84,6.66,.33,.22,.65,.44,.96,.68,3.33,2.5,7.3,7.35,7.3,16.27,0,4.97-1.26,9.57-3.76,13.67-3.79,6.24-9.81,9.81-16.53,9.81h-57.23Z"/><path class="cls-1" d="M576.45,218.11c-5.2,0-10.09-.13-14.53-.4h-.1c-5.58-.38-10.49-2.59-14.21-6.42-3.69-3.79-5.77-8.47-6-13.54v-.38c-.2-9.45-.29-17.65-.29-24.37,0-1.2,0-2.34,0-3.43-3.22-.54-6.19-1.8-8.71-3.75-2.47-1.9-6.7-6.28-7.17-14.24-.11-1.83-.17-3.75-.17-5.72,0-2.08,.06-3.86,.18-5.46,.43-5.63,3.15-10.53,7.65-13.79,3.4-2.47,7.4-3.79,11.56-3.82,8.11-.12,19.15-.19,32.8-.19s23.76,.06,29.81,.19h.29s.29,.02,.29,.02c3.76,.22,7.41,1.48,10.54,3.64,4.61,3.18,7.49,8.26,7.93,13.94,.12,1.6,.18,3.36,.18,5.37,0,1.77-.04,3.54-.11,5.25l-.02,.39c-.63,9.43-6.94,16.36-15.8,17.87,.04,3.41,.06,6.65,.06,9.71,0,6.44-.1,12.69-.29,18.57v.21c-.24,5.06-2.31,9.74-6.01,13.53-3.71,3.82-8.62,6.04-14.21,6.41-3.82,.27-8.45,.4-13.7,.4Z"/></g><g><path class="cls-2" d="M64.32,69.63c2.29,2.85,4.92,6.51,7.88,10.99,2.97,4.48,5.04,7.47,6.21,8.95,1.17,1.48,2.12,2.23,2.83,2.23s1.34-.4,1.9-1.21c.56-.8,2.6-3.9,6.12-9.28,3.52-5.38,6.43-9.48,8.72-12.29,2.29-2.81,4.11-4.25,5.47-4.31,1.36-.06,3.12-.09,5.29-.09s4.7,.06,7.61,.19c2.91,.12,4.84,.88,5.8,2.27,.96,1.39,1.53,3.36,1.72,5.89,.37,6.49,.56,15.11,.56,25.83s-.28,19.19-.83,25.37c-.12,1.48-.68,2.81-1.67,3.99-.99,1.18-2.35,1.76-4.08,1.76-3.77,.06-7.96,.09-12.57,.09s-8.27-.09-10.99-.28c-.99-.06-1.87-.45-2.64-1.16-.77-.71-1.19-1.65-1.25-2.83l-.56-15.31c-.06-1.48-.39-2.32-.97-2.5-.59-.19-1.13,.22-1.62,1.21-3.28,5.81-7.36,12.31-12.25,19.48-1.17,1.79-2.72,2.69-4.64,2.69s-3.49-.9-4.73-2.69c-2.17-3.09-5.84-9.65-11.04-19.67-.31-.62-.67-.99-1.07-1.11-.4-.12-.76,.03-1.07,.46-.31,.43-.46,1.14-.46,2.13l-.46,15.31c-.06,1.17-.59,2.12-1.58,2.83-.99,.71-2.13,1.1-3.43,1.16h-9.18c-1.67-.06-3.02-.65-4.04-1.76-1.02-1.11-1.62-2.38-1.81-3.8-.5-5.5-.74-14.05-.74-25.65s.15-20.11,.46-25.56c.19-2.6,.77-4.61,1.76-6.03,.99-1.42,2.75-2.13,5.29-2.13,12.99,0,20,.09,21.06,.28,1.05,.19,2.72,1.7,5.01,4.54Z"/><path class="cls-2" d="M140.01,64.8h24.86c2.6,0,4.31,.65,5.15,1.95,.83,1.3,1.39,3.97,1.67,8.02,.28,4.05,.42,11.91,.42,23.56s-.25,20.21-.74,25.65c-.19,1.42-.82,2.69-1.9,3.8-1.08,1.11-2.52,1.73-4.31,1.86-3.53,.25-7.61,.37-12.24,.37s-9.03-.12-13.17-.37c-1.79-.12-3.23-.74-4.31-1.86s-1.72-2.38-1.9-3.8c-.5-5.44-.74-13.99-.74-25.65s.14-19.51,.42-23.56c.28-4.05,.83-6.73,1.67-8.02,.83-1.3,2.55-1.95,5.15-1.95Z"/><path class="cls-2" d="M235.74,128.16l-10.85-12.99c-1.11-1.36-2.26-2.04-3.43-2.04-1.42,0-2.13,1.18-2.13,3.53v8.81c0,1.11-.5,2.01-1.48,2.69-.99,.68-2.17,1.08-3.52,1.21-3.9,.25-8.3,.37-13.22,.37s-9.57-.12-13.96-.37c-1.85-.12-3.34-.76-4.45-1.9-1.11-1.14-1.73-2.43-1.86-3.85-.5-5.44-.74-13.9-.74-25.37s.14-19.25,.42-23.33c.28-4.08,.83-6.79,1.67-8.12,.83-1.33,2.55-1.99,5.15-1.99h24.86c2.04,0,3.74,.8,5.1,2.41,1.36,1.61,2.04,3.59,2.04,5.94l.09,10.39c0,1.3,.34,1.95,1.02,1.95,.43,0,1.3-.52,2.6-1.58l18.18-16.98c1.48-1.42,3.26-2.15,5.33-2.18,2.07-.03,4.28-.05,6.63-.05l7.14,.09c.99,0,1.67,.46,2.04,1.39,.37,.93,.19,1.76-.56,2.5-7.11,7.11-14.22,13.7-21.33,19.76-.62,.56-.93,1.13-.93,1.72s.34,1.22,1.02,1.9l5.01,5.01c2.53,2.54,4.62,4.61,6.26,6.22,1.64,1.61,3.57,3.56,5.8,5.84,4.45,4.58,7.85,8.29,10.2,11.13,1.24,1.48,1.85,3,1.85,4.55,0,.56-.09,1.14-.28,1.76-.68,2.1-2.17,3.15-4.45,3.15h-24.95c-1.92,0-3.34-.52-4.27-1.58Z"/><path class="cls-2" d="M337.22,111.92c1.17,1.24,5.35,5.91,12.52,14.01,.43,.56,.65,1.05,.65,1.48,0,1.61-.71,2.41-2.13,2.41-3.28,.06-6.57,.09-9.88,.09s-6.6-.03-9.88-.09c-1.79,0-3.43-.71-4.92-2.13l-7.98-12.06c-.31-.37-.68-.62-1.11-.74-.99-.37-1.48,.03-1.48,1.21v9.46c0,2.66-1.75,4.08-5.24,4.27-3.49,.19-7.31,.28-11.46,.28s-9.15-.16-15.03-.46c-1.79-.12-3.23-.74-4.31-1.86s-1.72-2.38-1.9-3.8c-.5-5.44-.74-13.99-.74-25.65s.19-20.14,.56-25.46c.37-5.32,3.06-8.01,8.07-8.07,4.7-.06,11.1-.09,19.2-.09s14.81,.06,20.13,.19c7.67,.12,13.94,2.97,18.83,8.53,4.88,5.57,7.33,11.84,7.33,18.83,0,4.08-.94,7.85-2.83,11.32-1.89,3.46-4.68,6.25-8.39,8.35Zm-24.3-27.74l.19,17.16c0,1.17,.65,1.76,1.95,1.76,3.83,0,6.85-1.07,9.04-3.2,2.19-2.13,3.29-4.65,3.29-7.56s-1.04-5.41-3.11-7.51c-2.07-2.1-5.12-3.15-9.14-3.15-1.48,0-2.23,.83-2.23,2.5Z"/><path class="cls-2" d="M401.6,131.59c-7.48,0-14.25-.97-20.31-2.92-6.06-1.95-10.98-4.56-14.75-7.84-3.77-3.28-6.65-6.94-8.63-10.99-1.98-4.05-2.97-8.27-2.97-12.66s1-8.61,3.01-12.66c2.01-4.05,4.88-7.71,8.63-10.99,3.74-3.28,8.64-5.91,14.7-7.88,6.06-1.98,12.71-2.97,19.94-2.97s13.64,.9,19.2,2.69c5.57,1.79,10.05,4.24,13.45,7.33,6.92,6.31,10.39,13.79,10.39,22.45,0,4.39-.94,8.69-2.83,12.89-1.89,4.21-4.58,8.02-8.07,11.46-3.49,3.43-7.99,6.25-13.5,8.44-5.5,2.19-11.6,3.42-18.27,3.66Zm18.37-36.04c0-2.94-1.05-5.5-3.15-7.7-2.1-2.19-5.3-3.29-9.6-3.29s-7.71,1.15-10.25,3.43c-2.54,2.29-3.8,5.07-3.8,8.35s1.33,5.91,3.99,7.88c2.66,1.98,5.86,2.97,9.6,2.97s6.88-1.21,9.42-3.62c2.54-2.41,3.8-5.09,3.8-8.02Z"/><path class="cls-2" d="M84.82,152.83c-5.57,0-9.48,1.44-11.73,4.31-2.26,2.88-3.39,7.44-3.39,13.68,0,9.83,2.88,14.75,8.63,14.75,1.17,0,1.95-.03,2.32-.09-.74,0-1.35-1.3-1.81-3.9-.46-2.6-.7-5.32-.7-8.16s.77-4.68,2.32-5.52c1.54-.83,3.69-1.25,6.45-1.25s4.67,.02,5.75,.05c1.08,.03,2.32,.16,3.71,.37,1.39,.22,2.46,.54,3.2,.97,1.73,.99,2.6,2.47,2.6,4.45v13.54c0,4.82-.87,8.67-2.6,11.55-1.73,2.88-4.98,4.56-9.74,5.06-6.68,.68-16.88,1.02-30.61,1.02-5.5,0-10.22-.87-14.15-2.6-3.93-1.73-6.97-4.14-9.14-7.24-3.96-5.75-5.94-13.06-5.94-21.94s2.84-16.77,8.53-23.7c5.69-6.92,13.27-10.64,22.73-11.13,6.49-.37,11.19-.56,14.1-.56,10.58,0,18.09,.65,22.54,1.95,3.03,.87,4.55,3.31,4.55,7.33,0,5.38-1.58,8.07-4.73,8.07-.99-.06-2.97-.25-5.94-.56-2.97-.31-5.29-.46-6.96-.46Z"/><path class="cls-2" d="M155.6,204.59c-7.48,0-14.25-.97-20.31-2.92-6.06-1.95-10.98-4.56-14.75-7.84-3.77-3.28-6.65-6.94-8.63-10.99-1.98-4.05-2.97-8.27-2.97-12.66s1-8.61,3.01-12.66c2.01-4.05,4.88-7.71,8.63-10.99,3.74-3.28,8.64-5.91,14.7-7.88,6.06-1.98,12.71-2.97,19.94-2.97s13.64,.9,19.2,2.69c5.57,1.79,10.05,4.24,13.45,7.33,6.92,6.31,10.39,13.79,10.39,22.45,0,4.39-.94,8.69-2.83,12.89-1.89,4.21-4.58,8.02-8.07,11.46-3.49,3.43-7.99,6.25-13.5,8.44-5.5,2.19-11.6,3.42-18.27,3.66Zm18.37-36.04c0-2.94-1.05-5.5-3.15-7.7-2.1-2.19-5.3-3.29-9.6-3.29s-7.71,1.15-10.25,3.43c-2.54,2.29-3.8,5.07-3.8,8.35s1.33,5.91,3.99,7.88c2.66,1.98,5.86,2.97,9.6,2.97s6.88-1.21,9.42-3.62c2.54-2.41,3.8-5.09,3.8-8.02Z"/><path class="cls-2" d="M240.75,147.54l-.19,8.44v17.9c0,2.6,.8,4.61,2.41,6.03,1.61,1.42,3.49,2.13,5.66,2.13s4.04-.71,5.61-2.13c1.58-1.42,2.37-3.43,2.37-6.03v-27.64c0-2.91,.39-5.04,1.16-6.4,.77-1.36,2.46-2.04,5.05-2.04h8.53c1.98,0,3.34,.59,4.08,1.76,1.42,2.1,2.13,10.24,2.13,24.4,0,4.64-.06,8.2-.19,10.67-.18,5.01-1.34,9.48-3.48,13.4-2.13,3.93-4.87,7.07-8.21,9.42-6.74,4.76-14.38,7.14-22.91,7.14-11.26,0-20.56-2.63-27.92-7.88-3.71-2.66-6.63-6.2-8.77-10.62-2.13-4.42-3.23-9.57-3.29-15.45-.06-2.91-.09-7.19-.09-12.85s.08-9.74,.23-12.25c.15-2.5,.65-4.42,1.48-5.75,.83-1.33,2.52-1.99,5.06-1.99h24.77c2.47,0,4.11,.65,4.92,1.95,1.05,1.67,1.58,4.27,1.58,7.79Z"/><path class="cls-2" d="M346.59,184.92c1.17,1.24,5.35,5.91,12.52,14.01,.43,.56,.65,1.05,.65,1.48,0,1.61-.71,2.41-2.13,2.41-3.28,.06-6.57,.09-9.88,.09s-6.6-.03-9.88-.09c-1.79,0-3.43-.71-4.92-2.13l-7.98-12.06c-.31-.37-.68-.62-1.11-.74-.99-.37-1.48,.03-1.48,1.21v9.46c0,2.66-1.75,4.08-5.24,4.27-3.49,.19-7.31,.28-11.46,.28s-9.15-.16-15.03-.46c-1.79-.12-3.23-.74-4.31-1.86s-1.72-2.38-1.9-3.8c-.5-5.44-.74-13.99-.74-25.65s.19-20.14,.56-25.46c.37-5.32,3.06-8.01,8.07-8.07,4.7-.06,11.1-.09,19.2-.09s14.81,.06,20.13,.19c7.67,.12,13.94,2.97,18.83,8.53,4.88,5.57,7.33,11.84,7.33,18.83,0,4.08-.94,7.85-2.83,11.32-1.89,3.46-4.68,6.25-8.39,8.35Zm-24.3-27.74l.19,17.16c0,1.17,.65,1.76,1.95,1.76,3.83,0,6.85-1.07,9.04-3.2,2.19-2.13,3.29-4.65,3.29-7.56s-1.04-5.41-3.11-7.51c-2.07-2.1-5.12-3.15-9.14-3.15-1.48,0-2.23,.83-2.23,2.5Z"/><path class="cls-2" d="M398.63,142.63c2.29,2.85,4.92,6.51,7.88,10.99,2.97,4.48,5.04,7.47,6.21,8.95,1.17,1.48,2.12,2.23,2.83,2.23s1.34-.4,1.9-1.21c.56-.8,2.6-3.9,6.12-9.28,3.52-5.38,6.43-9.48,8.72-12.29,2.29-2.81,4.11-4.25,5.47-4.31,1.36-.06,3.12-.09,5.29-.09s4.7,.06,7.61,.19c2.91,.12,4.84,.88,5.8,2.27,.96,1.39,1.53,3.36,1.72,5.89,.37,6.49,.56,15.11,.56,25.83s-.28,19.19-.83,25.37c-.12,1.48-.68,2.81-1.67,3.99-.99,1.18-2.35,1.76-4.08,1.76-3.77,.06-7.96,.09-12.57,.09s-8.27-.09-10.99-.28c-.99-.06-1.87-.45-2.64-1.16-.77-.71-1.19-1.65-1.25-2.83l-.56-15.31c-.06-1.48-.39-2.32-.97-2.5-.59-.19-1.13,.22-1.62,1.21-3.28,5.81-7.36,12.31-12.25,19.48-1.17,1.79-2.72,2.69-4.64,2.69s-3.49-.9-4.73-2.69c-2.17-3.09-5.84-9.65-11.04-19.67-.31-.62-.67-.99-1.07-1.11-.4-.12-.76,.03-1.07,.46-.31,.43-.46,1.14-.46,2.13l-.46,15.31c-.06,1.17-.59,2.12-1.58,2.83-.99,.71-2.13,1.1-3.43,1.16h-9.18c-1.67-.06-3.02-.65-4.04-1.76-1.02-1.11-1.62-2.38-1.81-3.8-.5-5.5-.74-14.05-.74-25.65s.15-20.11,.46-25.56c.19-2.6,.77-4.61,1.76-6.03,.99-1.42,2.75-2.13,5.29-2.13,12.99,0,20,.09,21.06,.28,1.05,.19,2.72,1.7,5.01,4.54Z"/><path class="cls-2" d="M469.55,201.02c-1.21-1.14-1.98-3.03-2.32-5.66-.34-2.63-.51-10.51-.51-23.65s.22-21.72,.65-25.74c.49-5.2,2.69-7.85,6.59-7.98,4.45-.12,22.91-.19,55.38-.19,3.65,0,5.47,2.32,5.47,6.96,0,3.65-1.61,5.47-4.82,5.47h-20.41c-1.3,0-2.33,.43-3.11,1.3-.77,.87-1.16,1.98-1.16,3.34v6.68c0,1.85,.83,2.78,2.5,2.78h16.88c.99,0,1.75,.09,2.27,.28,.52,.19,1,.73,1.44,1.62,.43,.9,.65,2.37,.65,4.41s-.36,3.4-1.07,4.08c-.71,.68-1.87,1.02-3.48,1.02h-15.12c-1.55,0-2.61,.39-3.2,1.16-.59,.77-.88,1.96-.88,3.57v4.54c0,2.66,1.27,3.99,3.8,3.99h23.1c1.11,0,2.1,.32,2.97,.97,.87,.65,1.3,2.07,1.3,4.27s-.53,4.16-1.58,5.89c-1.05,1.73-2.29,2.6-3.71,2.6h-57.23c-1.73,0-3.2-.57-4.41-1.72Z"/><path class="cls-2" d="M595.38,197.08c-.06,1.36-.65,2.61-1.76,3.76-1.11,1.14-2.6,1.78-4.45,1.9-3.53,.25-7.76,.37-12.71,.37s-9.49-.12-13.64-.37c-1.86-.12-3.34-.76-4.45-1.9-1.11-1.14-1.7-2.4-1.76-3.76-.19-9.4-.28-17.42-.28-24.07s.03-11.52,.09-14.61c0-2.35-1.05-3.53-3.15-3.53h-8.35c-1.3,0-2.35-.31-3.15-.93s-1.25-1.7-1.34-3.25c-.09-1.54-.14-3.15-.14-4.82s.05-3.11,.14-4.31,.59-2.13,1.48-2.78c.9-.65,1.87-.97,2.92-.97,8.04-.12,18.92-.19,32.65-.19s23.56,.06,29.5,.19c1.05,.06,2.02,.4,2.92,1.02,.9,.62,1.39,1.53,1.48,2.74s.14,2.61,.14,4.22-.03,3.15-.09,4.64c-.19,2.78-1.7,4.17-4.54,4.17h-8.35c-2.1,0-3.15,1.08-3.15,3.25,.19,7.79,.28,14.84,.28,21.15s-.09,12.34-.28,18.09Z"/></g></g><polygon class="cls-1" points="454.56 111.47 465.68 118.35 472.67 126.37 458 128.55 445.73 125 454.56 111.47"/><g class="cls-5"><g><g><path class="cls-1" d="M453.08,104.9c.16-1.57,.35-3.56,.56-5.54,.36-3.43,.73-6.85,1.1-10.28,.36-3.35,.73-6.7,1.08-10.06,.39-3.67,.78-7.34,1.17-11.01,.44-4.08,.88-8.16,1.31-12.25,.32-3.02,.63-6.03,.96-9.05,.4-3.67,.65-7.36,1.28-10.99,.79-4.56,3.39-8.01,7.33-10.44,3.19-1.96,6.66-2.55,10.36-2.17,3.34,.34,6.68,.57,10.03,.86,4.24,.36,8.49,.72,12.73,1.08,3.79,.32,7.59,.64,11.38,.96,3.77,.32,7.55,.64,11.32,.96,5.16,.44,10.33,.87,15.49,1.3,4.69,.4,9.39,.81,14.08,1.2,5.11,.43,10.22,.85,15.32,1.29,4.69,.4,9.39,.8,14.08,1.2,4.21,.36,8.41,.72,12.62,1.06,5.9,.48,10.29,3.26,13.12,8.49,3.03,5.6,6.09,11.19,9.12,16.79,1.49,2.76,1.91,5.72,1.58,8.81-.35,3.28-.66,6.56-.98,9.84-.37,3.67-.73,7.35-1.1,11.02-.39,4.01-.78,8.02-1.17,12.04-.4,4.01-.8,8.02-1.2,12.03-.36,3.64-.7,7.28-1.07,10.91-.31,3.03-.48,6.1-1.01,9.09-1.08,6.11-6.02,10.84-12.14,11.95-1.71,.31-3.41,.24-5.13,.08-4.05-.38-8.11-.73-12.16-1.1-4.41-.4-8.82-.8-13.23-1.2-3.92-.35-7.85-.7-11.77-1.06-3.58-.32-7.17-.66-10.75-.98-3.96-.36-7.92-.71-11.88-1.06-3.94-.35-7.88-.71-11.82-1.07-3.98-.36-7.96-.72-11.94-1.08-3.58-.32-7.17-.66-10.75-.98-3.96-.36-7.92-.69-11.88-1.07-2.72-.26-5.44-.48-8.14-.88-2.27-.34-4.29-1.4-6.06-2.86-5.48-4.55-10.97-9.1-16.4-13.71-3.6-3.05-5.36-7-5.44-12.13Zm112.29-68.42c-.19-.03-.34-.05-.48-.06-1.93-.16-3.86-.31-5.79-.48-3.34-.29-6.67-.59-10-.87-2.44-.21-4.87-.39-7.31-.6-3.75-.32-7.49-.66-11.24-.98-2.02-.17-4.05-.32-6.07-.49-3.84-.33-7.68-.67-11.52-1-2.38-.2-4.76-.38-7.14-.59-3.32-.28-6.63-.58-9.95-.87-2.46-.21-4.91-.4-7.37-.6-4.12-.34-8.25-.73-12.37-1-4.59-.3-9.12,3.31-9.79,7.84-.4,2.71-.63,5.45-.93,8.19-.29,2.66-.56,5.32-.84,7.97-.28,2.66-.57,5.31-.86,7.97-.28,2.64-.55,5.28-.83,7.92-.32,3.03-.66,6.06-.98,9.09-.28,2.64-.55,5.28-.83,7.92-.32,3.05-.65,6.1-.98,9.15-.28,2.64-.61,5.27-.83,7.92-.11,1.36-.27,2.78,0,4.09,.8,3.86,3.15,6.48,7.03,7.33,2.35,.52,4.81,.58,7.23,.81,2.66,.26,5.33,.47,7.99,.71,3.67,.33,7.35,.67,11.02,.99,2.66,.24,5.33,.46,7.99,.7,3.71,.33,7.42,.67,11.14,1,2.63,.23,5.25,.46,7.88,.7,3.26,.29,6.53,.59,9.79,.89,2.21,.2,4.43,.39,6.64,.59,3.26,.29,6.53,.59,9.79,.88,2.32,.21,4.65,.43,6.97,.63,1.3,.12,2.61,.22,3.94,.33,2.91-28.72,5.82-57.38,8.73-86.07Zm38.67,12.11c-.06-.64-.09-1.2-.16-1.76-.55-4.03-4.37-7.55-8.44-7.83-1.9-.13-3.79-.31-5.68-.47-3.82-.33-7.65-.66-11.47-1-1.61-.14-3.22-.29-4.83-.42-1.46-.12-2.92-.22-4.39-.35-.3-.03-.45,.05-.47,.38-.06,.79-.16,1.57-.24,2.36-.28,2.75-.55,5.51-.83,8.26-.33,3.26-.67,6.52-1,9.77-.27,2.7-.54,5.39-.81,8.09-.33,3.26-.67,6.52-1,9.77-.28,2.71-.54,5.43-.82,8.15-.29,2.83-.58,5.65-.87,8.48-.24,2.4-.47,4.8-.71,7.19-.29,2.88-.59,5.77-.89,8.65-.25,2.4-.49,4.79-.74,7.19-.24,2.3-.48,4.6-.7,6.91-.09,.9-.04,.91,.89,.98,1.82,.15,3.64,.31,5.46,.47,3.3,.29,6.6,.59,9.9,.89,2.29,.21,4.57,.45,6.86,.62,1.82,.14,3.65,.33,5.46,.25,3.82-.18,7.49-3.28,8.37-7.01,.34-1.44,.45-2.93,.61-4.4,.31-2.86,.59-5.72,.88-8.59,.2-2.04,.39-4.08,.6-6.12,.29-2.96,.59-5.91,.89-8.87,.24-2.38,.47-4.76,.71-7.13,.29-2.92,.59-5.84,.88-8.76,.2-2.02,.39-4.04,.59-6.06,.29-2.86,.58-5.73,.87-8.59,.18-1.76,.36-3.52,.53-5.28,.19-1.95,.36-3.89,.54-5.78Z"/><path class="cls-1" d="M608.01,49.13c.54,.98,1.07,1.97,1.61,2.96,1.47,2.7,2.94,5.41,4.41,8.11,1.02,1.88,1.38,4,1.12,6.49-.25,2.29-.47,4.59-.69,6.88,0,0-1.13,11.43-1.39,14.03l-1.17,12.01-1.2,12.05c-.14,1.41-.27,2.82-.41,4.23v.13c-.22,2.18-.43,4.35-.65,6.53-.09,.85-.16,1.7-.24,2.55-.19,2.18-.38,4.24-.73,6.25-.78,4.39-4.36,7.89-8.92,8.71-.56,.1-1.17,.15-1.87,.15-.61,0-1.3-.04-2.17-.12-2.33-.22-4.66-.43-6.99-.63l-.87-.08-29.31-2.65-10.76-.98-35.64-3.21-10.78-.98-4.16-.37c-2.56-.23-5.12-.45-7.71-.7l-1.34-.12c-2.17-.2-4.42-.41-6.57-.73-1.39-.21-2.73-.86-4.09-1.99l-.7-.58c-3.41-2.83-6.9-5.73-10.38-8.65,1.66,.29,3.31,.42,4.79,.53,.63,.05,1.27,.1,1.91,.16,1.61,.16,3.22,.29,4.84,.43l.22,.02h.08c.95,.09,1.91,.17,2.86,.26l11.05,1,7.96,.7,11.15,1,7.86,.7,9.81,.89,6.63,.59c2.54,.23,8.81,.79,11.53,1.04l1.32,.12,10.52,.92,8.68,.78,8.01,.72,.25,.02c.75,.07,1.49,.14,2.25,.21h.13c1.47,.15,2.99,.3,4.52,.41l1,.08c1.24,.1,2.53,.2,3.88,.2,.38,0,.75,0,1.12-.03l.77-.04,.76-.14c4.7-.84,8.84-4.47,10.3-9.04l.14-.44,.11-.45c.33-1.39,.47-2.73,.6-4.05l.09-.85c.25-2.28,.48-4.54,.73-7.05l.75-7.66,2.48-24.8s.48-4.93,.59-6.02l1.05-10.36c.12-1.18,.24-2.35,.35-3.54,.13-1.33,.25-2.65,.37-3.95l.11-1.15,.05-.52M476.18,15c-4.55,0-8.75,1.17-12.5,3.47-6.05,3.72-9.86,9.21-11.02,15.88-.5,2.88-.78,5.7-1.04,8.42-.1,1.02-.2,2.05-.31,3.07-.21,1.87-.4,3.74-.6,5.61l-.37,3.47-1.31,12.25-1.17,11.01-1.33,12.39c-.29,2.65-.57,5.3-.85,7.96-.15,1.39-.28,2.77-.41,4.02l-.2,2.03v.47c.14,7.46,2.92,13.55,8.28,18.09,5.24,4.44,10.59,8.88,15.76,13.18l.7,.58c3.05,2.54,6.42,4.09,9.99,4.62,2.47,.37,4.89,.59,7.23,.81l1.34,.12c2.59,.25,5.19,.47,7.78,.7l4.13,.37,10.75,.98,35.65,3.21,10.75,.98,29.32,2.65c2.61,.23,5.22,.47,7.83,.71,1.25,.12,2.29,.17,3.27,.17,1.42,0,2.73-.11,4.01-.34,9.48-1.71,16.96-9.11,18.6-18.43,.44-2.51,.66-4.93,.87-7.27,.07-.8,.14-1.6,.22-2.4,.22-2.2,.44-4.39,.65-6.59,.14-1.45,.28-2.9,.42-4.34l1.2-12.03,1.17-12.04c.25-2.58,1.39-14.01,1.39-14.01,.22-2.26,.44-4.52,.68-6.78,.53-4.91-.31-9.44-2.5-13.48-1.47-2.72-2.95-5.44-4.43-8.16-1.57-2.88-3.13-5.75-4.69-8.63-4.1-7.59-10.85-11.96-19.52-12.66-3.36-.27-6.72-.56-10.08-.84l-16.6-1.42-15.32-1.29c-2.57-.22-14.08-1.2-14.08-1.2l-9.03-.76-41.9-3.54c-1.07-.09-2.13-.18-3.2-.26-2.31-.19-4.49-.36-6.69-.58-.97-.1-1.93-.15-2.86-.15h0Zm73.29,98.9c-.11,0-9.57-.87-12.83-1.16l-6.64-.59-9.79-.89-7.88-.7-11.14-1-7.99-.7-11.02-1c-1-.09-2-.18-3-.26-1.65-.14-3.3-.28-4.94-.44-.71-.07-1.43-.12-2.15-.18-1.52-.12-2.96-.23-4.12-.48-.56-.12-.7-.16-.9-1.06-.02-.3,.05-1.04,.09-1.54l.03-.36c.15-1.76,.34-3.52,.55-5.39,.09-.78,.17-1.56,.26-2.34l.98-9.16,.83-7.91,.98-9.09,.83-7.92,.86-7.97,.33-3.14c.17-1.6,.34-3.21,.51-4.81,.08-.78,.16-1.55,.24-2.33,.2-1.94,.38-3.77,.65-5.54,.06-.34,.81-1.03,1.34-1.03h.02c2.78,.18,5.64,.43,8.4,.67,1.28,.11,2.56,.22,3.84,.32l2.48,.2c1.62,.13,3.24,.26,4.86,.4,1.65,.14,3.3,.29,4.95,.43,1.67,.15,3.33,.29,5,.43,1.2,.1,2.4,.2,3.6,.3,1.18,.1,2.36,.19,3.54,.29,1.98,.17,11.53,1,11.53,1,.99,.08,1.98,.16,2.97,.24,1.03,.08,2.06,.16,3.1,.25,1.87,.16,9.36,.82,11.24,.98,1.26,.11,2.51,.21,3.77,.31,1.18,.09,2.36,.19,3.54,.29,1.78,.15,8.18,.71,8.18,.71l-7.12,70.15h0Zm38.18,3.3c-.86,0-1.86-.08-2.91-.17l-1.03-.08c-1.48-.11-2.96-.25-4.44-.39-.77-.07-1.53-.15-2.3-.21-2.75-.25-5.51-.5-8.28-.74l.91-8.87c.23-2.23,.46-4.47,.68-6.7,.12-1.21,.59-6,.71-7.2l.86-8.47,.82-8.14,1-9.77,.81-8.09,1-9.78,.32-3.22,14.64,1.27c1.48,.13,2.96,.26,4.43,.36,.35,.05,.98,.62,1.07,.92,.03,.21,.04,.43,.06,.65l-.11,1.15c-.12,1.28-.24,2.59-.36,3.89-.11,1.16-.23,2.31-.35,3.47l-1.05,10.37c-.11,1.11-.59,6.07-.59,6.07l-2.47,24.77-.75,7.68c-.23,2.32-.46,4.63-.72,6.95l-.09,.88c-.1,.97-.19,1.89-.35,2.54-.1,.31-.68,.82-.97,.87-.18,0-.36,.01-.54,.01h0Z"/></g><path class="cls-4" d="M565.37,36.48c-2.91,28.7-5.82,57.35-8.73,86.07-1.34-.11-2.64-.21-3.94-.33-2.32-.21-4.65-.42-6.97-.63-3.26-.29-6.53-.59-9.79-.88-2.21-.2-4.43-.39-6.64-.59-3.26-.29-6.53-.59-9.79-.89-2.63-.24-5.25-.46-7.88-.7-3.71-.33-7.42-.67-11.14-1-2.66-.24-5.33-.46-7.99-.7-3.67-.33-7.35-.67-11.02-.99-2.66-.24-5.33-.45-7.99-.71-2.41-.23-4.87-.29-7.23-.81-3.88-.86-6.23-3.48-7.03-7.33-.27-1.31-.11-2.73,0-4.09,.22-2.64,.55-5.28,.83-7.92,.33-3.05,.66-6.1,.98-9.15,.28-2.64,.55-5.28,.83-7.92,.32-3.03,.66-6.06,.98-9.09,.28-2.64,.55-5.28,.83-7.92,.28-2.66,.57-5.31,.86-7.97,.28-2.66,.55-5.32,.84-7.97,.3-2.73,.53-5.47,.93-8.19,.67-4.53,5.2-8.14,9.79-7.84,4.13,.27,8.25,.66,12.37,1,2.46,.2,4.91,.39,7.37,.6,3.32,.28,6.63,.58,9.95,.87,2.38,.2,4.76,.38,7.14,.59,3.84,.33,7.68,.67,11.52,1,2.02,.17,4.05,.32,6.07,.49,3.75,.32,7.49,.66,11.24,.98,2.44,.21,4.87,.39,7.31,.6,3.34,.28,6.67,.58,10,.87,1.93,.17,3.86,.32,5.79,.48,.14,.01,.29,.04,.48,.06Zm-79.94,3.71c-4.13,.06-7.11,1.89-9.01,5.47-.69,1.31-.89,2.74-1.03,4.19-.27,2.71-.58,5.42-.87,8.13-.2,1.93-.4,3.85-.6,5.78-.29,2.69-.58,5.38-.86,8.08-.24,2.28-.48,4.56-.72,6.85-.29,2.69-.58,5.38-.87,8.08-.21,2-.46,4-.63,6-.11,1.34-.26,2.71-.15,4.04,.36,4.23,3.81,7.89,8.61,8.27,2.33,.18,4.65,.39,6.97,.6,3.71,.33,7.42,.67,11.13,1,3.39,.3,6.78,.6,10.17,.9,2.79,.25,5.58,.52,8.37,.76,2.46,.22,4.91,.41,7.37,.62,3.28,.29,6.56,.59,9.83,.88,1.84,.16,3.68,.26,5.51,.49,4.26,.55,8.33-1.59,10.22-5.43,.83-1.69,.95-3.51,1.13-5.32,.28-2.75,.55-5.51,.83-8.26,.32-3.16,.65-6.33,.98-9.49,.28-2.75,.55-5.51,.83-8.26,.29-2.85,.58-5.69,.88-8.54,.25-2.43,.54-4.86,.74-7.3,.12-1.45,.29-2.94,.13-4.38-.49-4.35-4.19-7.73-8.54-8.03-1.54-.11-3.08-.25-4.62-.38-3.26-.28-6.53-.57-9.79-.85-2.46-.21-4.92-.4-7.37-.61-3.3-.28-6.6-.58-9.9-.86-2.44-.21-4.88-.4-7.32-.61-2.85-.24-5.7-.5-8.55-.74-2.1-.18-4.2-.37-6.3-.55-2.21-.19-4.43-.36-6.58-.54Z"/><path class="cls-4" d="M604.04,48.59c-.17,1.88-.35,3.83-.54,5.78-.17,1.76-.36,3.52-.53,5.28-.29,2.86-.58,5.73-.87,8.59-.2,2.02-.39,4.04-.59,6.06-.29,2.92-.59,5.84-.88,8.76-.24,2.38-.47,4.76-.71,7.13-.29,2.96-.59,5.91-.89,8.87-.2,2.04-.39,4.08-.6,6.12-.29,2.86-.57,5.73-.88,8.59-.16,1.47-.27,2.97-.61,4.4-.88,3.73-4.56,6.82-8.37,7.01-1.81,.09-3.64-.11-5.46-.25-2.29-.17-4.57-.41-6.86-.62-3.3-.3-6.6-.59-9.9-.89-1.82-.16-3.64-.32-5.46-.47-.93-.07-.97-.08-.89-.98,.22-2.3,.46-4.61,.7-6.91,.25-2.4,.49-4.79,.74-7.19,.3-2.88,.59-5.77,.89-8.65,.24-2.4,.47-4.8,.71-7.19,.28-2.83,.58-5.65,.87-8.48,.28-2.71,.54-5.43,.82-8.15,.33-3.26,.67-6.52,1-9.77,.27-2.7,.54-5.39,.81-8.09,.33-3.26,.67-6.52,1-9.77,.28-2.75,.55-5.51,.83-8.26,.08-.79,.17-1.57,.24-2.36,.03-.33,.17-.4,.47-.38,1.46,.12,2.92,.22,4.39,.35,1.61,.13,3.22,.28,4.83,.42,3.82,.33,7.64,.67,11.47,1,1.89,.16,3.78,.34,5.68,.47,4.07,.28,7.89,3.8,8.44,7.83,.08,.56,.11,1.12,.16,1.76Zm-31.21,7.41c-.13,1.88,1.26,3,2.55,3.13,2.99,.29,5.99,.54,8.99,.8,2.55,.22,5.1,.42,7.64,.66,1.56,.14,3.1-1.08,3.27-2.64,.15-1.35,.28-2.69,.42-4.04,.15-1.51-.96-2.99-2.41-3.13-3.02-.29-6.04-.54-9.05-.8-2.48-.22-4.95-.4-7.42-.66-1.82-.19-3.32,.82-3.57,2.58-.2,1.36-.28,2.73-.41,4.1Zm-1.33,50.29c-.11,4.13,3.19,7.51,7.35,7.58,4.3,.08,7.95-3.28,7.9-7.84-.05-4.19-3.33-7.28-7.35-7.38-4.63-.12-7.96,3.68-7.9,7.64Zm9.62-27.26c-4.25,0-7.68,3.45-7.68,7.69,0,4.12,3.42,7.54,7.6,7.47,4.44-.07,7.67-3.62,7.68-7.73,.01-4.16-3.36-7.44-7.6-7.43Zm6.43-14.22c-.12,0-.18,0-.24,0-.88,0-1.46,.48-1.53,1.24-.07,.78,.36,1.39,1.27,1.49,1.94,.22,3.89,.38,5.84,.51,.87,.06,1.54-.54,1.61-1.32,.06-.67-.55-1.36-1.39-1.45-1.87-.19-3.75-.32-5.56-.48Zm4.18,10.78v-.02c.11,0,.23,0,.34,.02,.85,.06,1.57-.47,1.64-1.21,.08-.85-.49-1.47-1.41-1.55-1.89-.17-3.79-.34-5.68-.51-.79-.07-1.52,.49-1.61,1.26-.09,.74,.47,1.44,1.27,1.52,1.82,.18,3.63,.33,5.45,.5Zm-18.87-4.46s0,.01,0,.02c-.08,0-.15,0-.23,0-.82,.02-1.5,.59-1.56,1.33-.05,.66,.53,1.28,1.34,1.4,.48,.07,.97,.13,1.45,.17,1.46,.13,2.92,.27,4.39,.35,.85,.05,1.5-.56,1.54-1.33,.04-.71-.51-1.36-1.31-1.44-1.87-.19-3.75-.33-5.63-.49Zm5.81-4.27c.27-.01,.52,0,.76-.04,.62-.11,1.16-.76,1.15-1.36,0-.6-.51-1.25-1.12-1.31-2.04-.21-4.08-.4-6.13-.54-.78-.06-1.42,.6-1.46,1.35-.04,.69,.51,1.35,1.26,1.42,1.85,.18,3.71,.33,5.54,.48Z"/><path class="cls-1" d="M485.43,40.19c2.15,.18,4.37,.35,6.58,.54,2.1,.18,4.2,.36,6.3,.55,2.85,.25,5.7,.5,8.55,.74,2.44,.21,4.88,.4,7.32,.61,3.3,.28,6.6,.58,9.9,.86,2.46,.21,4.92,.4,7.37,.61,3.26,.28,6.53,.57,9.79,.85,1.54,.13,3.08,.28,4.62,.38,4.36,.3,8.05,3.68,8.54,8.03,.16,1.44,0,2.92-.13,4.38-.2,2.44-.49,4.87-.74,7.3-.29,2.85-.59,5.69-.88,8.54-.28,2.75-.55,5.51-.83,8.26-.32,3.16-.65,6.33-.98,9.49-.28,2.75-.55,5.51-.83,8.26-.19,1.81-.3,3.64-1.13,5.32-1.9,3.84-5.96,5.98-10.22,5.43-1.83-.24-3.67-.33-5.51-.49-3.28-.29-6.56-.6-9.83-.88-2.46-.22-4.91-.41-7.37-.62-2.79-.25-5.58-.51-8.37-.76-3.39-.3-6.78-.6-10.17-.9-3.71-.33-7.42-.67-11.13-1-2.32-.21-4.65-.42-6.97-.6-4.79-.38-8.24-4.04-8.61-8.27-.11-1.33,.03-2.7,.15-4.04,.17-2,.42-4,.63-6,.29-2.69,.58-5.38,.87-8.08,.24-2.28,.48-4.56,.72-6.85,.29-2.69,.58-5.38,.86-8.08,.2-1.93,.4-3.85,.6-5.78,.29-2.71,.6-5.42,.87-8.13,.14-1.45,.34-2.88,1.03-4.19,1.9-3.58,4.87-5.41,9.01-5.47Z"/><path class="cls-1" d="M572.83,56c.13-1.37,.22-2.74,.41-4.1,.26-1.76,1.75-2.77,3.57-2.58,2.47,.25,4.95,.44,7.42,.66,3.02,.26,6.04,.51,9.05,.8,1.45,.14,2.56,1.62,2.41,3.13-.13,1.35-.27,2.7-.42,4.04-.17,1.56-1.72,2.78-3.27,2.64-2.55-.23-5.1-.43-7.64-.66-3-.26-6-.51-8.99-.8-1.28-.12-2.68-1.25-2.55-3.13Z"/><path class="cls-1" d="M571.5,106.29c-.06-3.96,3.27-7.75,7.9-7.64,4.02,.1,7.3,3.2,7.35,7.38,.05,4.56-3.6,7.92-7.9,7.84-4.16-.08-7.45-3.46-7.35-7.58Z"/><path class="cls-1" d="M581.12,79.03c4.24,0,7.61,3.27,7.6,7.43-.01,4.11-3.24,7.66-7.68,7.73-4.18,.06-7.59-3.35-7.6-7.47,0-4.24,3.43-7.68,7.68-7.69Z"/><path class="cls-1" d="M587.55,64.8c1.81,.15,3.69,.29,5.56,.48,.84,.08,1.45,.78,1.39,1.45-.07,.78-.74,1.38-1.61,1.32-1.95-.13-3.9-.29-5.84-.51-.9-.1-1.34-.71-1.27-1.49,.07-.76,.65-1.23,1.53-1.24,.06,0,.11,0,.24,0Z"/><path class="cls-1" d="M591.72,75.58c-1.82-.16-3.64-.32-5.45-.5-.8-.08-1.36-.78-1.27-1.52,.09-.76,.82-1.33,1.61-1.26,1.89,.17,3.79,.34,5.68,.51,.92,.08,1.49,.7,1.41,1.55-.07,.73-.79,1.26-1.64,1.21-.11,0-.23-.01-.34-.02v.02Z"/><path class="cls-1" d="M572.85,71.12c1.88,.16,3.75,.3,5.63,.49,.8,.08,1.35,.73,1.31,1.44-.04,.76-.69,1.38-1.54,1.33-1.46-.08-2.92-.22-4.39-.35-.49-.04-.97-.1-1.45-.17-.81-.12-1.39-.74-1.34-1.4,.06-.73,.73-1.31,1.56-1.33,.08,0,.15,0,.23,0,0,0,0-.01,0-.02Z"/><path class="cls-1" d="M578.66,66.85c-1.83-.16-3.69-.31-5.54-.48-.74-.07-1.3-.73-1.26-1.42,.04-.75,.68-1.41,1.46-1.35,2.05,.15,4.09,.34,6.13,.54,.61,.06,1.11,.72,1.12,1.31,0,.6-.54,1.25-1.15,1.36-.24,.04-.49,.03-.76,.04Z"/></g></g></g></svg>