<?xml version="1.0" encoding="UTF-8"?><svg id="Day_14" xmlns="http://www.w3.org/2000/svg" viewBox="0 0 768 768"><defs><style>.cls-1{fill:#229;stroke:#229;stroke-miterlimit:10;}.cls-2{fill:#dfdfff;}</style></defs><rect class="cls-2" x="0" width="768" height="768"/><g><g><rect class="cls-1" x="281.5" y="197.34" width="65.68" height="65.68" transform="translate(254.83 -154.85) rotate(45)"/><rect class="cls-1" x="327.94" y="243.78" width="65.68" height="65.68" transform="translate(301.27 -174.09) rotate(45)"/><rect class="cls-1" x="235.06" y="336.66" width="65.68" height="65.68" transform="translate(339.74 -81.21) rotate(45)"/><rect class="cls-1" x="374.38" y="197.34" width="65.68" height="65.68" transform="translate(282.03 -220.53) rotate(45)"/><rect class="cls-1" x="327.94" y="336.66" width="65.68" height="65.68" transform="translate(366.95 -146.89) rotate(45)"/><rect class="cls-1" x="467.26" y="197.34" width="65.68" height="65.68" transform="translate(309.24 -286.21) rotate(45)"/><rect class="cls-1" x="374.38" y="290.22" width="65.68" height="65.68" transform="translate(347.71 -193.33) rotate(45)"/><rect class="cls-1" x="420.82" y="336.66" width="65.68" height="65.68" transform="translate(394.15 -212.56) rotate(45)"/></g><g><path d="M152.88,474.08l-50.13,61.69h51.51v14.57H79.64v-12.06l49.25-61.44h-46.49v-14.45h70.48v11.68Z"/><path d="M177.01,550.34h-16.33v-87.95h16.33v87.95Z"/><path d="M226.13,462.39c25.63,0,37.44,9.55,37.44,30.53s-11.81,30.53-36.44,30.53h-21.48v26.89h-16.33v-87.95h36.81Zm-20.48,14.32v32.54h20.23c14.45,0,20.98-5.03,20.98-16.21s-6.53-16.33-21.11-16.33h-20.1Z"/><path d="M350.64,478.98l-13.57,8.54c-5.28-6.66-13.57-11.06-22.87-11.06-16.71,0-29.15,13.32-29.15,29.9s12.44,29.9,29.15,29.9c9.3,0,17.34-4.52,22.87-11.31l13.57,8.79c-8.29,10.93-21.61,17.84-36.56,17.84-25.5,0-46.24-20.23-46.24-45.23s20.73-45.23,46.24-45.23c14.95,0,28.27,6.91,36.56,17.84Z"/><path d="M373.63,535.64h46.49v14.7h-62.82v-87.95h16.33v73.25Z"/><path d="M511.96,506.37c0,25-20.86,45.23-46.61,45.23s-46.86-20.23-46.86-45.23,20.98-45.23,46.86-45.23,46.61,20.23,46.61,45.23Zm-76.26,0c0,16.58,12.69,29.9,29.65,29.9s29.53-13.32,29.53-29.9-12.69-29.9-29.53-29.9-29.65,13.32-29.65,29.9Z"/><path d="M599.54,510.64c0,26.26-14.07,40.96-39.2,40.96s-39.33-14.83-39.33-40.96v-48.25h16.33v48.25c0,16.58,8.42,25.88,22.99,25.88s22.87-9.3,22.87-25.88v-48.25h16.33v48.25Z"/><path d="M694.27,506.37c0,25-20.98,43.97-46.74,43.97h-35.68v-87.95h35.68c25.76,0,46.74,18.97,46.74,43.97Zm-66.09-29.27v58.55h18.85c16.71,0,30.53-12.69,30.53-29.27s-13.82-29.27-30.53-29.27h-18.85Z"/></g></g></svg>