<?xml version="1.0" encoding="UTF-8"?><svg id="Day_6" xmlns="http://www.w3.org/2000/svg" viewBox="0 0 768 768"><defs><style>.cls-1,.cls-2{fill:#5f7962;}.cls-2{stroke:#5f7962;stroke-miterlimit:10;}.cls-3{fill:#e4dad8;}</style></defs><rect class="cls-3" x="0" width="768" height="768"/><g><path class="cls-2" d="M269.06,552.46c-.25,0-1.11-.23-2.58-.69-1.47-.46-2.83-.69-4.09-.69-4.03,0-8.61,.21-13.73,.63-5.12,.42-9.36,1.01-12.72,1.76,.25,4.03,.48,10.39,.69,19.08,.21,8.69,.31,17.82,.31,27.4,0,4.03-.06,8.52-.19,13.48-.13,4.96-.31,8.02-.57,9.2-.17,.93-.74,1.68-1.7,2.27-.97,.59-1.95,.88-2.96,.88-.59,0-1.09-.25-1.51-.76-.42-.5-.63-1.09-.63-1.76l.13-4.41c.5-6.55,.76-14.61,.76-24.19,0-6.88-.08-14.76-.25-23.62-.17-8.86-.34-14.34-.5-16.44-16.8,1.85-28.01,3.57-33.63,5.16-1.01,.34-2.14,.5-3.4,.5-1.51,0-2.98-.55-4.41-1.64-1.43-1.09-2.14-2.27-2.14-3.53,0-.84,.25-1.45,.76-1.83s1.13-.57,1.89-.57c4.79-.25,8.82-.5,12.09-.76,7.47-.67,16.88-1.72,28.22-3.15,0-2.6,.06-4.45,.19-5.54,.13-1.09,.4-1.64,.82-1.64,1.59,0,3.02,.63,4.28,1.89,.25,.25,.46,.9,.63,1.95,.17,1.05,.25,1.74,.25,2.08,1.85-.08,4.87-.5,9.07-1.26,9.07-1.43,15.28-2.14,18.64-2.14,4.03,0,6.72,.5,8.06,1.51,.92,.67,1.39,1.89,1.39,3.65,0,.67-.3,1.37-.88,2.08-.59,.71-1.34,1.07-2.27,1.07Z"/><path class="cls-2" d="M346.9,590.38c-.59,.5-1.81,.94-3.65,1.32-1.85,.38-3.11,.61-3.78,.69,.67,3.19,1.01,4.75,1.01,4.66,.59,2.1,1.22,5,1.89,8.69,1.51,8.48,3.06,15.71,4.66,21.67,.42,1.93,.63,3.06,.63,3.4,0,.84-.34,1.55-1.01,2.14-.67,.59-1.47,.88-2.39,.88-.84,0-1.6-.44-2.27-1.32-.67-.88-1.13-1.66-1.39-2.33-.76-2.86-1.45-6.05-2.08-9.57-.63-3.53-1.37-7.77-2.2-12.72-.34-2.18-.88-4.89-1.64-8.12-.76-3.23-1.26-5.35-1.51-6.36-4.96,.67-13.48,2.02-25.57,4.03l-7.31,1.26-2.65,7.43-3.53,10.08c-2.94,9.15-5.04,16.21-6.3,21.16-.25,1.17-.76,2.16-1.51,2.96-.76,.8-1.68,1.2-2.77,1.2-.93,0-1.7-.25-2.33-.76-.63-.5-.94-1.22-.94-2.14s.5-2.88,1.51-5.86c1.01-2.98,1.59-4.77,1.76-5.35,.33-.84,1.01-2.77,2.02-5.79,1.09-3.27,2.5-7.24,4.22-11.9,1.72-4.66,2.88-7.75,3.46-9.26-4.28,1.01-7.48,1.81-9.57,2.39-3.19,.84-5.16,1.26-5.92,1.26-.93,0-1.62-.36-2.08-1.07-.46-.71-.69-1.49-.69-2.33,0-1.01,.25-1.7,.76-2.08s1.34-.73,2.52-1.07c3.19-.76,6.57-1.51,10.14-2.27,3.57-.76,6.02-1.26,7.37-1.51,.84-2.43,1.47-4.49,1.89-6.17,.33-1.09,.78-2.46,1.32-4.09,.55-1.64,1.15-3.67,1.83-6.11l1.89-6.42c3.19-11.25,5.04-17.68,5.54-19.27,.42-1.18,.82-2.1,1.2-2.77,.38-.67,.9-1.01,1.57-1.01,1.68,0,3.19,.25,4.54,.76,.17-.17,.44-.52,.82-1.07,.38-.54,.8-.92,1.26-1.13,.46-.21,1.07-.31,1.83-.31,1.51,0,3.25,1.72,5.23,5.16,1.97,3.44,3.88,7.52,5.73,12.22,1.09,2.77,2.48,6.91,4.16,12.41,1.68,5.5,2.77,9.13,3.27,10.9,1.26-.17,2.33-.4,3.21-.69,.88-.29,1.45-.48,1.7-.57,.42-.17,.88-.46,1.39-.88,.5-.42,.96-.73,1.39-.94,.42-.21,.88-.19,1.39,.06,1.09,.5,1.64,1.55,1.64,3.15,0,.59-.15,1.22-.44,1.89-.3,.67-.69,1.18-1.2,1.51Zm-21.29-23.81c-1.18-3.11-2.69-6.3-4.54-9.57-1.85-3.27-3.4-5.33-4.66-6.17l-1.39,3.28c-1.6,3.19-2.81,6.09-3.65,8.69-2.02,6.05-5.21,16.04-9.57,29.98l14.74-2.52,12.09-1.89,3.4-.5c-.42-1.51-1.3-4.68-2.65-9.51-1.34-4.83-2.6-8.75-3.78-11.78Z"/><path class="cls-2" d="M409.51,572.87c-1.18,1.09-2.88,1.91-5.1,2.46-2.23,.55-5.9,1.28-11.02,2.2-1.93,3.19-5.29,9.89-10.08,20.09-4.79,10.2-7.18,15.94-7.18,17.19,0,1.43,2.37,2.54,7.12,3.34,4.74,.8,9.26,1.2,13.54,1.2,2.94,0,6.28-.15,10.01-.44,3.74-.29,6.07-.57,6.99-.82,2.77-.76,4.93-1.76,6.49-3.02,1.55-1.26,2.5-1.89,2.83-1.89,.42,0,.71,.27,.88,.82,.17,.55,.25,1.62,.25,3.21,0,5.54-8.86,8.31-26.58,8.31-6.63,0-12.97-.8-19.02-2.39-6.05-1.59-9.07-3.74-9.07-6.42,0-1.93,1.91-6.95,5.73-15.05,3.82-8.1,7.7-15.89,11.65-23.37-1.85,.25-3.74,.69-5.67,1.32-1.93,.63-3.11,1.03-3.53,1.2-1.26,.42-2.52,.88-3.78,1.39s-2.02,.76-2.27,.76c-1.01,0-1.97-.55-2.9-1.64-.92-1.09-1.39-2.14-1.39-3.15,0-.59,.36-1.03,1.07-1.32,.71-.29,2.04-.61,3.97-.94l17.76-3.02c2.85-4.95,5.42-9.76,7.68-14.42,2.27-4.66,3.4-7.62,3.4-8.88,0-.5-.67-.76-2.02-.76s-4.87,.42-10.58,1.26l-4.66,.63c-9.66,1.51-15.2,2.27-16.63,2.27-1.76,0-2.65-.33-2.65-1.01,0-.84,.57-1.68,1.7-2.52,1.13-.84,2.75-1.47,4.85-1.89l3.15-.63c5.71-1.09,9.2-1.72,10.46-1.89,5.71-.76,8.94-1.22,9.7-1.39,4.11-.59,6.63-.88,7.56-.88,1.51,0,2.88,.25,4.09,.76,1.22,.5,1.83,1.18,1.83,2.02,0,1.09-1.24,4.52-3.72,10.27-2.48,5.75-5.15,11.23-8,16.44,4.03-.92,7.98-2.27,11.84-4.03,1.51-.59,2.35-.88,2.52-.88,.25,0,.5,.13,.76,.38s.38,.5,.38,.76c0,.67-.25,1.45-.76,2.33s-1.05,1.57-1.64,2.08Z"/><path class="cls-2" d="M484.84,572.87c-1.18,1.09-2.88,1.91-5.1,2.46-2.23,.55-5.9,1.28-11.02,2.2-1.93,3.19-5.29,9.89-10.08,20.09-4.79,10.2-7.18,15.94-7.18,17.19,0,1.43,2.37,2.54,7.12,3.34,4.74,.8,9.26,1.2,13.54,1.2,2.94,0,6.28-.15,10.01-.44,3.74-.29,6.07-.57,6.99-.82,2.77-.76,4.93-1.76,6.49-3.02,1.55-1.26,2.5-1.89,2.83-1.89,.42,0,.71,.27,.88,.82,.17,.55,.25,1.62,.25,3.21,0,5.54-8.86,8.31-26.58,8.31-6.63,0-12.97-.8-19.02-2.39-6.05-1.59-9.07-3.74-9.07-6.42,0-1.93,1.91-6.95,5.73-15.05,3.82-8.1,7.7-15.89,11.65-23.37-1.85,.25-3.74,.69-5.67,1.32-1.93,.63-3.11,1.03-3.53,1.2-1.26,.42-2.52,.88-3.78,1.39s-2.02,.76-2.27,.76c-1.01,0-1.97-.55-2.9-1.64-.92-1.09-1.39-2.14-1.39-3.15,0-.59,.36-1.03,1.07-1.32,.71-.29,2.04-.61,3.97-.94l17.76-3.02c2.85-4.95,5.42-9.76,7.68-14.42,2.27-4.66,3.4-7.62,3.4-8.88,0-.5-.67-.76-2.02-.76s-4.87,.42-10.58,1.26l-4.66,.63c-9.66,1.51-15.2,2.27-16.63,2.27-1.76,0-2.65-.33-2.65-1.01,0-.84,.57-1.68,1.7-2.52,1.13-.84,2.75-1.47,4.85-1.89l3.15-.63c5.71-1.09,9.2-1.72,10.46-1.89,5.71-.76,8.94-1.22,9.7-1.39,4.11-.59,6.63-.88,7.56-.88,1.51,0,2.88,.25,4.09,.76,1.22,.5,1.83,1.18,1.83,2.02,0,1.09-1.24,4.52-3.72,10.27-2.48,5.75-5.15,11.23-8,16.44,4.03-.92,7.98-2.27,11.84-4.03,1.51-.59,2.35-.88,2.52-.88,.25,0,.5,.13,.76,.38s.38,.5,.38,.76c0,.67-.25,1.45-.76,2.33s-1.05,1.57-1.64,2.08Z"/><path class="cls-2" d="M575.91,590.38c-.59,.5-1.81,.94-3.65,1.32-1.85,.38-3.11,.61-3.78,.69,.67,3.19,1.01,4.75,1.01,4.66,.59,2.1,1.22,5,1.89,8.69,1.51,8.48,3.06,15.71,4.66,21.67,.42,1.93,.63,3.06,.63,3.4,0,.84-.34,1.55-1.01,2.14-.67,.59-1.47,.88-2.39,.88-.84,0-1.6-.44-2.27-1.32-.67-.88-1.13-1.66-1.39-2.33-.76-2.86-1.45-6.05-2.08-9.57-.63-3.53-1.37-7.77-2.2-12.72-.34-2.18-.88-4.89-1.64-8.12-.76-3.23-1.26-5.35-1.51-6.36-4.96,.67-13.48,2.02-25.57,4.03l-7.31,1.26-2.65,7.43-3.53,10.08c-2.94,9.15-5.04,16.21-6.3,21.16-.25,1.17-.76,2.16-1.51,2.96-.76,.8-1.68,1.2-2.77,1.2-.93,0-1.7-.25-2.33-.76-.63-.5-.94-1.22-.94-2.14s.5-2.88,1.51-5.86c1.01-2.98,1.59-4.77,1.76-5.35,.33-.84,1.01-2.77,2.02-5.79,1.09-3.27,2.5-7.24,4.22-11.9,1.72-4.66,2.88-7.75,3.46-9.26-4.28,1.01-7.48,1.81-9.57,2.39-3.19,.84-5.16,1.26-5.92,1.26-.93,0-1.62-.36-2.08-1.07-.46-.71-.69-1.49-.69-2.33,0-1.01,.25-1.7,.76-2.08s1.34-.73,2.52-1.07c3.19-.76,6.57-1.51,10.14-2.27,3.57-.76,6.02-1.26,7.37-1.51,.84-2.43,1.47-4.49,1.89-6.17,.33-1.09,.78-2.46,1.32-4.09,.55-1.64,1.15-3.67,1.83-6.11l1.89-6.42c3.19-11.25,5.04-17.68,5.54-19.27,.42-1.18,.82-2.1,1.2-2.77,.38-.67,.9-1.01,1.57-1.01,1.68,0,3.19,.25,4.54,.76,.17-.17,.44-.52,.82-1.07,.38-.54,.8-.92,1.26-1.13,.46-.21,1.07-.31,1.83-.31,1.51,0,3.25,1.72,5.23,5.16,1.97,3.44,3.88,7.52,5.73,12.22,1.09,2.77,2.48,6.91,4.16,12.41,1.68,5.5,2.77,9.13,3.27,10.9,1.26-.17,2.33-.4,3.21-.69,.88-.29,1.45-.48,1.7-.57,.42-.17,.88-.46,1.39-.88,.5-.42,.96-.73,1.39-.94,.42-.21,.88-.19,1.39,.06,1.09,.5,1.64,1.55,1.64,3.15,0,.59-.15,1.22-.44,1.89-.3,.67-.69,1.18-1.2,1.51Zm-21.29-23.81c-1.18-3.11-2.69-6.3-4.54-9.57-1.85-3.27-3.4-5.33-4.66-6.17l-1.39,3.28c-1.6,3.19-2.81,6.09-3.65,8.69-2.02,6.05-5.21,16.04-9.57,29.98l14.74-2.52,12.09-1.89,3.4-.5c-.42-1.51-1.3-4.68-2.65-9.51-1.34-4.83-2.6-8.75-3.78-11.78Z"/></g><path class="cls-1" d="M550.81,199.51c-12.84-17.53-29.52-35.03-50.47-52.49-22.09-18.41-50.21-29.22-79.62-30.42-.27-.01-.54-.02-.8-.03-17.13-.64-34.23,2.02-50.28,7.72-41.31,14.68-80.54,31.84-118.01,51.08-32.71,16.8-54.76,47.64-59.31,82.59-5.94,45.72-8.3,86.3-4.67,118.29,3.45,30.38,20.17,58.03,46.11,76.24,16.8,11.79,29.73,20.32,40.17,26.75,6.14,3.78,12.52,7.14,19.08,10.1,12.65-31.02,32.04-59.38,56.18-85.8,21.67-24.22,45.65-46.28,66.26-71.26,20.66-24.67,35.85-54.54,35.58-87.43,6.96,69.35-55.04,117.19-95.89,164.02-24.22,26.46-43.26,53.34-56.58,82.85,20.9,8.55,43.54,12.95,66.49,12.56,31.59-.55,69.3-6.54,117.22-21.63,38.4-12.09,67.91-41.59,78.52-78.53,7.13-24.84,13.41-51.58,18.68-80.57,7.88-43.31-2.21-87.92-28.66-124.05ZM235.97,349.74c56.64-60.54,72.3,20.62,128,25.21-67.19,43.31-118.46,5.83-128-25.21Zm55.88-126.58c87.3,10.3,50.11,87.49,81.84,138.69-99.69-13.14-69.2-115.97-81.84-138.69Zm109.54,80.69c-10.32,.38-17.8-5.27-18.07-12.57-.27-7.3,6.76-13.5,17.09-13.88,10.32-.38,20.09,6.96,20.3,12.49,.21,5.69-9,13.58-19.32,13.96Zm18.96-26.55c-4.66,1.75-13.74-3.7-16.91-12.15-3.17-8.45-.55-16.2,5.42-18.45,5.98-2.24,13.05,1.87,16.23,10.32,3.17,8.45-.21,18.58-4.74,20.28Zm30.02-40.16c-48.38-23.16-36.66-50.38-34.62-91.11,26.22,20.36,38.52,54.5,34.62,91.11Zm-69.71,156.16c50.18,19.92,34.58,59.58,39.62,77.6-12.37,1.88-64.86-30.76-39.62-77.6Zm62.76-1.74c-1.82,9.94-8.18,15.99-14.44,14.84-6.26-1.15-10.06-9.06-8.24-19,1.82-9.94,10.09-17.86,14.84-17,4.88,.89,9.67,11.21,7.84,21.15Zm.42-56.8c5.3-8.12,13.67-10.8,19.4-7.06,5.73,3.74,6.66,12.48,1.36,20.6-5.3,8.12-16.21,11.65-20.55,8.81-4.47-2.91-5.51-14.23-.21-22.36Zm39,49.92c-2.68,5.77-12.02,7.13-22.21,2.4-10.19-4.73-16.73-15.17-14.7-19.54,2.09-4.5,14.22-6.11,24.41-1.37,10.19,4.73,15.17,12.74,12.49,18.52Zm-28.66-89.66c26.22-23.21,35.77-45.99,62.91-64.52,4.13,61.45-43.41,82.36-62.91,64.52Z"/></svg>