<?xml version="1.0" encoding="UTF-8"?><svg id="Day_5" xmlns="http://www.w3.org/2000/svg" viewBox="0 0 768 768"><defs><style>.cls-1{fill:#cfd8ff;}.cls-2{fill:#191919;}</style></defs><rect class="cls-1" width="768" height="768"/><g><path class="cls-2" d="M334.51,442.64v-5.46c0-.91,.65-1.68,1.53-1.86,5.69-1.14,11.1-2.5,16.24-4.09,60.58-18.24,84.3-63.24,84.3-101.06,0-37.85-23.75-82.85-84.33-101.11-5.13-1.56-10.55-2.91-16.21-4.06-.89-.18-1.53-.95-1.53-1.86v-5.43c0-1.3,1.28-2.22,2.52-1.8l224.93,77.26c35.22,12.1,35.22,61.91,0,74l-224.93,77.26c-1.23,.42-2.52-.49-2.52-1.8Z"/><path class="cls-2" d="M258.63,442.64v-5.46c0-.91,.65-1.68,1.53-1.86,5.69-1.14,11.1-2.5,16.24-4.09,60.58-18.24,84.3-63.24,84.3-101.06,0-37.85-23.75-82.85-84.33-101.11-5.13-1.56-10.55-2.91-16.21-4.06-.89-.18-1.53-.95-1.53-1.86v-5.43c0-1.3,1.28-2.22,2.52-1.8l124.48,42.75c68.06,23.38,68.06,119.63,0,143.01l-124.48,42.75c-1.23,.42-2.52-.49-2.52-1.8Z"/><path class="cls-2" d="M182.76,442.22v-5.46c0-.91,.65-1.68,1.53-1.86,5.69-1.14,11.1-2.5,16.24-4.09,60.58-18.24,84.3-63.24,84.3-101.06,0-37.85-23.75-82.85-84.33-101.11-5.13-1.56-10.55-2.91-16.21-4.06-.89-.18-1.53-.95-1.53-1.86v-5.43c0-1.3,1.28-2.22,2.52-1.8l124.48,42.75c68.06,23.38,68.06,119.63,0,143.01l-124.48,42.75c-1.23,.42-2.52-.49-2.52-1.8Z"/><g><path class="cls-2" d="M244.14,492.69c0,4.7-.8,9.32-2.39,13.86-1.59,4.54-3.9,8.51-6.93,11.9-3.31,3.7-7.18,6.53-11.59,8.49s-9.5,2.95-15.25,2.95c-7.83,0-13.96-2.02-18.39-6.06-4.43-4.04-6.64-9.61-6.64-16.69,0-4.98,.85-9.72,2.54-14.21,1.69-4.49,4.12-8.45,7.28-11.86,3.08-3.31,6.89-5.96,11.44-7.93,4.54-1.98,9.5-2.96,14.86-2.96,7.86,0,14,2.03,18.42,6.08,4.43,4.06,6.64,9.54,6.64,16.44Zm-21.14,19.56c1.75-2.28,3.11-4.93,4.1-7.95,.99-3.02,1.48-6.49,1.48-10.42s-.98-7.32-2.95-9.65-4.77-3.48-8.41-3.48c-2.39,0-4.67,.55-6.83,1.64-2.17,1.09-4.17,2.75-5.99,4.99-1.77,2.13-3.2,4.78-4.27,7.95s-1.62,6.73-1.62,10.69c0,4.39,1.01,7.7,3.02,9.93,2.01,2.23,4.81,3.35,8.38,3.35,2.46,0,4.84-.61,7.12-1.83,2.28-1.22,4.27-2.96,5.97-5.22Z"/><path class="cls-2" d="M299.99,528.69h-12.65l-16.83-39.7-9.16,39.7h-13.63l13.23-57.34h16.55l14.42,33.19,7.62-33.19h13.67l-13.23,57.34Z"/><path class="cls-2" d="M406.91,471.35l-27.85,57.34h-15.9l-2.47-38.04-18.58,38.04h-16.5l-2.62-57.34h15.46l.11,39.44,19.22-39.44h14.78l1.75,39.44,17.53-39.44h15.07Z"/><path class="cls-2" d="M457.08,528.69h-14.93l-1.32-11.71h-21.01l-6.71,11.71h-15.49l34.39-57.34h17.1l7.97,57.34Zm-17.32-21.99l-2.34-20.47-11.74,20.47h14.08Z"/><path class="cls-2" d="M522.32,485.79c0,4.6-1.4,8.46-4.2,11.59-2.8,3.13-6.6,5.49-11.4,7.08l13.25,24.22h-16.5l-10.8-21.02h-8.3l-4.87,21.02h-14.78l13.23-57.34h22.38c7.01,0,12.43,1.19,16.26,3.56,3.83,2.38,5.74,6,5.74,10.88Zm-15.94,2.49c0-2.3-.74-3.94-2.21-4.9-1.48-.96-3.65-1.44-6.53-1.44h-7.32l-3.57,15.4h7.27c3.92,0,6.97-.8,9.12-2.4,2.16-1.6,3.23-3.82,3.23-6.66Z"/><path class="cls-2" d="M588.16,493.73c0,6.5-1.71,12.49-5.12,17.98-3.41,5.49-7.79,9.7-13.13,12.63-3.23,1.75-6.61,2.91-10.13,3.48-3.52,.58-7.73,.87-12.63,.87h-20.76l13.23-57.34h18.57c5.47,0,9.87,.42,13.21,1.27,3.34,.85,6.03,1.99,8.09,3.43,2.82,1.95,4.98,4.38,6.45,7.3s2.21,6.37,2.21,10.38Zm-15.48,1.35c0-2.62-.49-4.87-1.46-6.76-.98-1.89-2.46-3.41-4.46-4.56-.92-.51-1.87-.9-2.83-1.17-.96-.27-2.06-.47-3.29-.6-1.18-.1-2.53-.15-4.04-.15h-4.46l-8.46,36.35h6.12c1.69,0,3.06-.06,4.12-.19,1.36-.13,2.58-.33,3.67-.62,1.09-.28,2.29-.76,3.6-1.42,3.69-1.9,6.53-4.74,8.52-8.51,1.99-3.77,2.98-7.89,2.98-12.36Z"/></g></g></svg>