<?xml version="1.0" encoding="UTF-8"?><svg id="Day_17" xmlns="http://www.w3.org/2000/svg" viewBox="0 0 768 768"><defs><style>.cls-1{fill:#ebdde9;}.cls-2{fill:#1e3d25;}.cls-3{fill:#2b1728;}.cls-4{fill:#4a2745;}</style></defs><rect class="cls-1" x="0" width="768" height="768"/><g><g><path class="cls-2" d="M556.39,350.8h-172.29c0-47.58,38.56-86.14,86.14-86.14,47.58,0,86.14,38.56,86.14,86.14Z"/><path class="cls-2" d="M383.9,351H211.61c0-47.58,38.56-86.14,86.14-86.14,47.58,0,86.14,38.56,86.14,86.14Z"/><path class="cls-4" d="M470.05,522.9v-172.29c47.58,0,86.14,38.56,86.14,86.14,0,47.58-38.56,86.14-86.14,86.14Z"/><path class="cls-4" d="M297.76,350.61v172.29c-47.58,0-86.14-38.56-86.14-86.14s38.56-86.14,86.14-86.14Z"/><path class="cls-4" d="M297.76,350.99h172.29c0,47.58-38.56,86.14-86.14,86.14-47.58,0-86.14-38.56-86.14-86.14Z"/><path class="cls-4" d="M297.76,437.52h172.29c0,47.58-38.56,86.14-86.14,86.14-47.58,0-86.14-38.56-86.14-86.14Z"/><path class="cls-4" d="M297.76,523.1h172.29c0,47.58-38.56,86.14-86.14,86.14-47.58,0-86.14-38.56-86.14-86.14Z"/></g><g><path class="cls-3" d="M101.1,230.25l40.66,59.38-6.4,10.23-71.23-10.57,7.05-11.26,54.79,8.4-31.38-45.79,6.5-10.39Z"/><path class="cls-3" d="M111.76,219.63l8.04-9.24,49.77,43.31-8.04,9.24-49.77-43.31Z"/><path class="cls-3" d="M182.99,153.59l41.57,51.24-7.83,6.35-56.4-11.77,28.15,34.7-9.44,7.66-41.57-51.24,7.83-6.35,56.4,11.77-28.15-34.7,9.44-7.66Z"/><path class="cls-3" d="M276.98,166.88l4.5,9.24-44.49,21.67-28.9-59.32,43.3-21.09,4.5,9.24-32.29,15.73,7.51,15.42,28.64-13.95,4.42,9.07-28.64,13.95,7.97,16.35,33.47-16.31Z"/><path class="cls-3" d="M364.19,159.38l-9.43-6.64c-5.28,6.16-12.17,9.9-20.67,11.22-4.53,.7-8.72,.59-12.55-.34-3.83-.93-6.98-2.56-9.44-4.88-2.46-2.32-3.95-5.16-4.47-8.51-.63-4.04,0-7.77,1.88-11.21,1.88-3.44,5.26-7.06,10.14-10.87-3.01-2.2-5.25-4.35-6.72-6.44-1.47-2.09-2.39-4.35-2.77-6.77-.71-4.59,.43-8.57,3.44-11.93,3.01-3.36,7.37-5.48,13.08-6.37,5.28-.82,9.7-.19,13.27,1.9,3.57,2.09,5.69,5.33,6.38,9.74,.52,3.35-.06,6.5-1.73,9.43-1.68,2.93-4.67,6.1-8.97,9.5l16.15,11.23c1.08-3.28,1.72-7.14,1.93-11.55l9.88,1.61c-.35,5.97-1.53,11.24-3.56,15.81l9.41,6.55-5.26,8.54Zm-17.34-12.19l-19.79-13.81c-3.41,2.63-5.73,5.01-6.95,7.14-1.23,2.13-1.66,4.38-1.29,6.73,.42,2.73,1.98,4.75,4.66,6.05,2.68,1.3,6.01,1.64,9.98,1.03,5.4-.84,9.87-3.22,13.39-7.13Zm-24.63-39.44c-1.29,1.5-1.78,3.28-1.46,5.33,.23,1.49,.85,2.84,1.87,4.05,1.01,1.21,2.85,2.79,5.5,4.73,3.41-2.63,5.72-4.81,6.95-6.56,1.22-1.75,1.69-3.52,1.42-5.32-.3-1.92-1.2-3.34-2.71-4.25-1.51-.91-3.44-1.18-5.8-.82-2.55,.4-4.47,1.35-5.76,2.85Z"/><path class="cls-3" d="M461.54,138.66c1.68,3.09,2.2,6.69,1.56,10.79-.88,5.65-3.74,9.67-8.57,12.06-4.83,2.39-11.4,2.94-19.72,1.64l-32.41-5.07,10.2-65.19,30.54,4.78c7.7,1.2,13.39,3.64,17.08,7.3,3.69,3.66,5.12,8.13,4.29,13.41-.5,3.23-1.7,5.97-3.57,8.22-1.88,2.25-4.23,3.85-7.05,4.81,3.42,1.74,5.96,4.16,7.64,7.25Zm-10.45,7.67c.98-6.27-3.22-10.14-12.59-11.6l-19.56-3.06-2.94,18.81,19.56,3.06c9.37,1.47,14.55-.93,15.53-7.21Zm-27.86-42.04l-2.81,17.97,17.14,2.68c4.22,.66,7.58,.41,10.09-.76,2.5-1.17,3.98-3.21,4.44-6.13,.47-2.98-.32-5.41-2.34-7.28-2.03-1.88-5.15-3.14-9.38-3.8l-17.13-2.68Z"/><path class="cls-3" d="M519.28,179.34l-3.79,9.55-46-18.24,24.32-61.34,44.78,17.75-3.79,9.55-33.38-13.23-6.32,15.95,29.62,11.74-3.72,9.38-29.62-11.74-6.7,16.91,34.61,13.72Z"/><path class="cls-3" d="M560.38,218.03l-.35-23.56c-.5-.26-1.22-.71-2.16-1.35l-12.34-8.34-10.76,15.93-10.15-6.86,36.94-54.67,22.49,15.2c4.74,3.2,8.34,6.77,10.8,10.71,2.46,3.94,3.64,8,3.55,12.18-.1,4.18-1.5,8.28-4.21,12.29-2.78,4.11-6.17,6.98-10.18,8.59-4.01,1.61-8.38,1.88-13.12,.81l.44,26.46-10.93-7.39Zm25.56-45.75c-1.03-3.42-3.75-6.63-8.18-9.62l-11.87-8.02-14.72,21.79,11.87,8.02c4.42,2.99,8.42,4.31,12,3.96,3.57-.35,6.54-2.27,8.9-5.76,2.36-3.49,3.02-6.94,2-10.37Z"/><path class="cls-3" d="M607.39,263.32l4.9-23.04c-.43-.37-1.03-.97-1.81-1.79l-10.17-10.88-14.04,13.14-8.37-8.95,48.18-45.08,18.55,19.82c3.91,4.17,6.62,8.46,8.14,12.84,1.52,4.39,1.77,8.61,.75,12.66-1.02,4.06-3.3,7.74-6.84,11.04-3.63,3.39-7.57,5.43-11.84,6.11-4.27,.68-8.59-.03-12.97-2.13l-5.46,25.89-9.02-9.64Zm35.1-38.91c-.24-3.56-2.18-7.3-5.83-11.2l-9.79-10.46-19.2,17.97,9.79,10.46c3.65,3.9,7.25,6.08,10.82,6.53,3.56,.45,6.88-.76,9.96-3.64,3.07-2.88,4.49-6.1,4.26-9.66Z"/><path class="cls-3" d="M655.38,292.61l-19.96,11.99-6.31-10.5,19.79-11.9,23.41-44.31,6.75,11.23-17.6,33.12,37.6,.17,6.21,10.34-49.9-.14Z"/></g></g></svg>