<?xml version="1.0" encoding="UTF-8"?><svg id="Layer_2" xmlns="http://www.w3.org/2000/svg" viewBox="0 0 768 768"><defs><style>.cls-1{fill:#577245;}.cls-2{fill:#bce5a1;}</style></defs><g id="Day_21"><rect class="cls-1" width="768" height="768"/><g><g><g><path class="cls-2" d="M59.05,295.56l.68-6.97-.5-6.97-.48-6.97,.83-6.97-1.58-6.97,1.22-6.97-.07-6.97,.86-6.97-1.14-6.97-.11-6.97-.73-6.97,2.01-6.97-1.26-6.98-.12-6.98-.57-6.98,1.39-.97,1.76,.36,1.71-2.01,2.44,.89,2.08,.12,7.08,.3,7.08-.95,7.08,.25,7.08,.66,7.08-.46,7.08-1.01h7.09s7.09,1.01,7.09,1.01l7.09,.6,7.52-.03,7.43,1.52,6.89,2.53,5.47,4.9,4.32,6.07,4.11,6.2,2.53,8.2,1.18,8.57,.17,6.51-2.56,6.06-3.39,10.23-7.5,6.31-7.71,4.91-8.63,3.17-8.65,2.32-8.4,2.36-7.55-.23-7.41-.04-1.13,6.43,.75,6.94-.76,6.9,.79,6.92,.13,8.8-3.21,2.56-7.43,.36-7.43-.94-7.43,.9-7.43,.64-7.44-1.5-7.53,1.22-2.28-6.48,.4-6.5Zm44.17-54.94l2.13,4.03,6.65-.83,5.64-2.11,5.36-2.37,2-5.55,2.39-6.08-.82-4.96-1.15-4.1-3.77-1.66-3.47-1.42-4.12-.05-3.95-2.32-4.12,1.22-1.6,6.11,.06,6.69-1.07,6.67-.15,6.74Z"/><path class="cls-2" d="M151.8,306.23l2.77-7.1,1.54-7.47,1.62-7.46,3.12-7.01,.56-7.81,3.7-6.98,2.33-7.42,3.36-7.08,1.22-7.79,2.36-7.42,1.71-7.64,4.59-6.4,1.04-7.59,2.27-7.18,1.77-7.34,3.29-6.84,1.33-.85,6.56-2.03,6.6,1.15,6.83,.13,6.84,.23,6.82-1.18,6.83,.23,6.6,.76,6.6-.52,2.02-1.11,1.98,.22,1.58,1.6,.56,1.32,1.04,1.04,2.53,6.62,2.75,6.55,1.24,7.03,1.24,7.03,2.84,6.52,2.27,6.7,2.62,6.59,2.73,6.56,.67,7.2,3.19,6.41,.56,7.24,1.92,6.82,2.01,6.79,2.5,6.63,3.68,6.26,1.89,6.83,2.11,6.78-2.02,1.58-3.91,1.57-7.22-.74-9.34,1.01-9.35,.23-3.82-.79-4.82,.49-4.28-1.3-3.95,.15-2.61-1.79,1.7-5.28-4.08-6.91-3.74-2.63-6.75-1.77-6.75,1.05h-6.76s-6.96-.41-6.96-.41l-2.96,8.26-.32,8.76-9.39,2.48-6.28-1.92-10.06,1.09-10.04-.02-2.2,.82-3.94,.63-3.98-1.55-2.37-2.01Zm54.35-47.65l1.89,4.44,5.56-.48,5.75-.72,5.85,.36,4.02-2.84-.32-7.81-1.76-7.52-.73-7.75-2.96-7.25-1.81-7.52-2.46-7.24-3.88,4.49-.92,6.51-1.5,6.16-.94,6.95-2.53,6.59-2.6,6.57-.66,7.05Z"/><path class="cls-2" d="M400.83,264.15l-1.9,7.02-1.51,7.08-2.5,6.86-4.16,5.03-2.92,6.07-5.77,3.35-5.35,3.59-6.14,2.02-5.64,3.3-6.94,1.78-7.04,1.71-7.22-1.83-6.57,1.11-6.55-.62-6.6-.77-7.43-3.4-6.66-4.48-6.83-2.78-4.26-5.89-3.91-5.54-3.02-6.03-3.46-5.9-1.65-6.61-.68-6.57-1.39-6.42-1.52-6.2-.13-6.32,1.06-6.91,1.51-6.96,1.1-7.03,2.35-6.77,2.55-5.75,4.41-4.52,4.92-3.75,6.65-5.74,7.74-4.24,7.87-3.53,8.28-2.7,8.09,.31,7.9-1.4,7.47,1.81,7.37,1.15,7.17,1.86,5.68,1.73,6.04,1.48,4.77,3.86,5.45,5.92,3.11,7.39,3.8,7.37,.83,8.22,.87,7.53-8.69,2.84-9.01-.6-5.67,.33-5.65-1.1-9.56,.79-1.11,.75-1.25-1.5-3.49-.6-1.87-4.24,.75-5.15-3.02-3.83-4.3-1.64-5.06,.52-4.17,2.62-.64,4.83-1.02,5.16-2.25,5.36,.59,6.02-.4,5.45,.61,3.48,.36,4.07-.93,8.46,2.72,8.25,7.83,3.38,4.97-1.73,1.36-5.06,2.32-5.09,1.86-3.96,7.13,.38,7.12-.89,7.11,1.33,7.12-1.31,7.12,1.03,7.14-1.15,2.75,3.89Z"/><path class="cls-2" d="M412.44,308.68l-2.35-1.01-1.24-.23-1.37-1.66,.86-6.99-1.65-6.98,1.27-6.98-.07-6.98,.9-6.98-1.2-6.98-.11-6.98-.76-6.97,2.1-6.98-1.32-6.98-.13-6.98-.59-6.98,.9-6.98,.97-6.98-1.86-6.99,1.05-6.99,.2-2.5,.57-1.73-.09-1.92,1.66-.57,2.4,.37,8.05-.48,8.05-1.06h8.05s8.05,1.06,8.05,1.06l6.07,.92,5.19,1.83,.39,.16,.53,7.26-.92,7.24-.92,7.25,.63,7.26,.1,7.25-.5,6.94,2.58-6.73,4.41-5.95,2.23-7,4.51-5.9,3.34-6.47,3.26-6.52,2.53-6.4,7.76-1.35,8.13,.28,6.7,.04,6.69,1.29,6.72-.85,6.66,.95,6.94,.65-.27,.62-4.1,5.66-3.07,6.28-4.27,5.61-2.61,6.54-2.86,6.4-4.81,5.29-2.34,6.7-3.13,6.25-4.96,5.42,.89,2.3,3.21,2.04,3.28,6.51,2.96,6.67,5.05,5.45,3.75,6.21,2.12,7.16,4.32,5.88,3.44,6.39,4.3,5.9,4.11,6.06-2.55,2.3-7.11-.23-7.2,1.03-7.2-.46-7.2,1.24-7.2-.81-7.21,.16-7.09-.35-3.9-5.76-2.04-6.85-4.36-5.67-2.3-6.72-4.22-5.74-3.37-6.18-3.01-6.23,1.24,5.87-.54,6.26-.71,5.41-.45,5.41-.61,6.17,.32,6.18-.1,6.16-9.04,2.86-6.91,.93-6.9-.35-6.91,.08-6.91-.75h-6.92Z"/></g><path class="cls-2" d="M166.73,454.87l-13.93-1.72-10.28-3-2.81-.98-13.28,5.52-14.05,2.68-6.9,1.13-13.92-2.72-14.04-1.91-9.74-6.21-9.67-6.41-7.21-18.45,4.04-15.57,10.67-12.06,13.76-6.1-11.19-11.61-4.47-15.28,4.13-13.12,9.25-9.54,14.42-5.21,18.07-2.3,17.73,.31,15.64,5.17,12.01,9.22,3.52,14.21-4.96,17.04-8.5,7.42-9.49,6.85,12.91,10.74,2.41-3.68,.48-4.77,1.48-3.71,4.99-2.72,9.27,.91,5.97,.54,6.28,.14,3.62,.43,3.47-1.05,1.52,1.57,.39,1.72v3.07s-3.15,17.62-3.15,17.62l-9.86,14.31,6.9,10.44,4.68,3.86,6.91,5.47,1.93,5.21-2.75,3.65-13.13-2.32-13.11,1.2Zm-75.05-33.94l1.14,6.15,5.24,2.98,5.01,3.25,5.86,.62,17.52-4.66-10.27-8.83-6.67-8.46-5.37-2.7-2.94-3.57-5.74,7.09-3.79,8.13Zm7.07-58.42l4.17,8.5,9.18,4.21,.14,.9,.35-.25,4.07-2.6,4.27-6.12,3.62-5.58-3.73-4.95-4.44-4.12-5.87,.61-7.47,2.8-4.29,6.6Z"/><g><path class="cls-2" d="M208.73,358.26v-4.2s-.34-3.81-.34-3.81l-.77-2.75,1.34-4.32,1.25-9.1,1.08,1.78,16.24,.15,16.22-.02,16.22-.57,16.07-1.79,16.09,.11,16.09-.04,4.62,1.89,1.76,2.09-.73,2.2,1,12.05,.23,12.14-2.8,3.79-13.12,.25-14.03-.46,.99,14.22,.71,14.02-1.68,14.03,1.38,14.03,.42,14.03-1.74,14.02-1.83,2.73-8.02-.09-8.01-.55-.36-.69-9.66,1.66-9.3,.05-4.73-1.89-4.35,1.05-2.79-3.72-.51-17.55-.02-17.77,2.16-17.7,.51-17.77-1.14-1.81,.46-2.04-1.44-1.88,.47-2.01-.82-1.41-.8-1.39-1.73,.56-11.23-1.41-11.25,1.39-2.09-11.51Z"/><path class="cls-2" d="M431.99,452.57l-7.21,2.17-13.66,.35-8.6,.15-7.69-1.66-7.89,1.1-2.05-6.13-2.08-13.12-1.09-9.06-3.1-10.73-8.61-1.14-2.92-.66v12.62s-1.33,12.78-1.33,12.78l1.06,12.78-2.09,1.14-4.07,1.71-4.97,.38-5.7-.93-4.33,.33-11.31-1.06-14.45,1.17-2.98-1.13,1.68-14.68-1.39-14.64-.42-14.64,1.74-14.64-1.03-14.65v-14.64s.48-14.65,.48-14.65l.85-14.65,5.15-2.81,13.69-.13,13.69,1.9,13.69-.84,13.7,.26,13.7-.81,14.53,1.43,12.04,7.93,6.74,9.97,3.14,12-5.52,16.63-13.07,11.79,5.77,2.45,4.84,4.09,2.95,5.58,3.1,5.6v6.82s2.2,6.35,2.2,6.35l-.5,6.65,1.81,5.95,.19,6.91,1.19,3.16,1.96,3.63-1.84,1.63Zm-66-85.05l.22,6.99,1.36,5.85,2.17,4.25,5.95,.73,5.23-3.26,5.5-3.61,1.93-7.81-.85-4.79-3.15-3.11-4.01-.36-3.68-1.14-3.62-.38-3.19-1.39-1.85,1.06-2.02,1.84v5.12Z"/><path class="cls-2" d="M425.79,452.33l3.25-12.24,3.04-12.34,3.1-12.34,6.4-14.29,3.72-15.16,6.7-14.17,4.26-11.81,4.14-11.85,3.52-12,.4-3.12,13.21,.29,13.65-.12,13.67,1.32,13.19-1.19,1.94,.86,1.98-.84,1.98,.36,.59,1.75,.86,1.26,3.39,14.69,5.61,14,5.29,14.1,2.71,14.91,6.01,13.87,4.98,14.19,2.66,14.94,5.64,14-1.25,2.41-4.38,.08-7.22-.96-9.34,2.05-9.35,.23-3.86-2.02-4.77,1.02-4.31-.52-4.02,.03-2.62-1.98,1.84-5.29-2.65-7.79-5.22-2.65-13.51-.56-12.85,1.24-4.76,15.95-8.78,2.07-6.28-.46-10.02,1.3-10.08-1.35-2.2,1.57-3.98-1.15-4.44,1.41-1.84-3.69Zm54.29-47.67l2.33,3.64,5.15-.58,11.31-1.43,5.76-1.14-4.58-14.81-1.59-15.48-3.15-15.2-6.19,5.12-3.54,12.44-1.38,14.03-4.12,13.41Z"/><path class="cls-2" d="M561.34,454.29l.24-16.66,.25-16.74-.58-13.37,1.62-13.37-.91-13.39,1.89-13.35,.56-13.41-.19-9.73-.39-2.39-1.92-5.62,2.16-3.22,13.15,.65,13.06,1.57,13.11-.99h8.17s.92,14.96,.92,14.96l.15,15.02-.9,15.02,.41,15.01-1.06,15.02,1.01,15.02,.72,15.02-1.47,14.44-11.99,1.07-12.68,.42-12.68-1.75-12.65,.76Z"/><path class="cls-2" d="M625.87,347.42l2.56-14.34,2.22-.36,2.51-.63,8.02,1.36,8.47-1.26,17.91,2.53,6.77,2.52-.28,13.46,.23,13.51,1.46,13.53-.41,13.5-.19,13.51-1.48,13.6,2.51-.36,8.8,.46,9.25-.62,12.9,.13,7.51,1.48,2.66,2.11-1.06,15.08,1.02,15.08-17.33,3.35-17.76-1.43-13.58,1.4-13.58,.43-13.59-1.76-13.61,1.04-2.05-8.99,.48-11.15,.86-11.15-1.71-14.53-.03-14.53,2.02-14.52-.79-14.53,.02-8.03-.72-9.87Z"/></g></g><g><g><polygon class="cls-2" points="96.51 540.24 90.8 541.05 85.09 540.28 79.38 541.7 73.67 542.1 67.96 540.97 62.25 540.19 56.54 542.64 51.9 540.84 54.36 536.96 56.48 531.62 59.92 527.06 61.31 521.27 66.04 517.47 68.51 512.32 70.76 506.55 75.48 502.67 79.98 498.7 85.47 496.17 90.07 492.23 95.53 489.76 101.54 488.78 106.55 484.99 112.7 484.82 118.48 483.48 124.48 483.5 130.26 481.91 136.17 481.22 142.12 480.83 147.83 481.02 153.54 481.51 159.25 480.11 164.96 480.54 170.66 481.02 176.38 481.7 182.09 480.74 187.15 481.45 186.01 486.62 181.36 490.46 179.03 495.68 175.39 500.12 172.09 504.77 170.9 510.69 167.78 515.92 162.73 519.44 158.43 523.56 153.75 527.31 147.86 528.99 143.4 533.46 137.01 533.53 131.78 536.56 126.27 539.1 120.39 540.35 114.36 540.57 108.5 542.01 102.4 540.02 96.51 540.24"/><polygon class="cls-2" points="202.38 542.45 196.67 542.59 190.96 542.6 185.26 542.56 179.55 542.17 173.84 541.49 168.13 541.55 162.41 542.82 157.86 540.8 160.7 537.24 161.6 531.16 166.12 527.26 169.09 522.41 170.24 516.47 173.76 511.95 178.26 507.88 181.6 502.92 185.68 498.47 190.95 495.54 196.85 493.95 202.08 491.31 207.25 488.35 213.1 487.22 218.44 484.3 224.2 482.64 230.26 482.8 236.22 482.89 241.99 480.04 248 482.32 253.71 481.81 259.41 480.89 265.12 481.5 270.83 479.72 276.54 481.84 282.25 481.32 287.97 479.83 294.07 480.86 291.23 486.23 287.41 490.56 285.46 496.01 282.43 500.82 278.37 505.02 277.18 510.93 272.53 515.01 268.57 519.4 263.45 522.45 259.15 526.56 254.15 529.77 248.89 532.58 243.29 534.63 237.5 536.04 232.11 538.96 226.16 539.8 220.2 540.3 214.22 540.31 208.35 541.67 202.38 542.45"/><polygon class="cls-2" points="308.25 542.09 302.55 541.61 296.84 541.44 291.13 542.03 285.42 542.22 279.71 541.7 274 540.84 268.29 542.08 262.03 541.77 265.77 536.76 268.06 531.52 270.19 526.17 274.07 521.87 277.25 517.15 280.27 512.33 284.34 508.04 287.86 503.33 291.58 498.5 296.38 494.84 302.02 492.6 307.07 489.28 312.6 486.91 318.3 485 324.11 483.46 330.06 482.58 336.06 482.28 341.97 481.53 347.86 479.86 353.87 482.42 359.58 482.35 365.29 480 371 481.89 376.71 481.95 382.41 479.89 388.12 480.59 393.84 481.93 399.63 481.03 397.35 486.38 393.92 490.94 389.67 495.02 386.85 499.95 384.63 505.25 381.05 509.74 378.82 515.35 375.03 520.02 369.76 523.02 364.5 525.73 360.58 530.82 354.16 531.22 348.89 533.89 343.55 536.64 337.65 537.61 332.19 540.61 325.96 539.49 320.13 540.69 314.26 542.58 308.25 542.09"/><polygon class="cls-2" points="414.13 540.83 408.42 541 402.71 541.05 397 541.19 391.29 542.13 385.59 542.69 379.88 540.95 374.16 541.2 368.18 541.61 372.21 537.1 373.86 531.47 376.77 526.59 380.46 522.18 383.68 517.48 385.55 511.97 388.97 507.03 393.82 503.42 398.77 500.22 402.85 495.78 408.44 493.65 413.09 489.61 418.81 487.83 424.51 486.11 430.11 483.97 435.92 482.53 441.91 482.07 447.91 482.25 453.77 480.6 459.75 480.46 465.45 481.41 471.16 480.69 476.87 479.78 482.58 480.91 488.29 481.21 494 481.33 499.71 482.19 505.02 481.31 503.2 486.36 500.51 491.37 496.85 495.79 494.62 501.08 491.83 506.04 488.92 510.93 485.37 515.9 480.95 520.06 475.95 523.43 471.1 526.88 466.53 530.98 460 531.14 454.58 533.39 449.68 537.49 443.44 537.23 437.65 538.42 432.1 541.42 426.07 541.41 420.04 540.48 414.13 540.83"/><polygon class="cls-2" points="520 541.32 514.29 540.89 508.59 540.97 502.88 542.15 497.17 540.72 491.46 540.54 485.75 542.82 480.03 541.11 474.96 541.1 477.07 536.49 481.23 532.36 482.13 526.29 485.75 521.83 490.01 517.75 491.36 511.94 494.33 506.6 498.73 502.4 504.32 499.8 508.63 495.63 514.15 493.34 519.46 490.76 524.89 488.41 530.5 486.48 536.18 484.79 541.81 482.61 547.64 481.09 553.77 482.14 559.68 481.47 565.62 480.78 571.33 482.07 577.04 480.61 582.74 480.6 588.45 481.51 594.16 481.86 599.87 480.64 605.59 480.59 610.78 481.38 607.22 485.25 605.43 490.8 601.71 495.19 600.19 500.9 596.86 505.54 593.8 510.33 590.83 515.56 586.86 520.1 581.96 523.6 576.59 526.28 572.06 530.32 566.66 532.93 560.78 534.27 555.36 536.83 549.81 539.28 543.72 539.45 537.79 540.11 531.87 540.68 525.91 540.22 520 541.32"/><polygon class="cls-2" points="625.88 541.95 620.17 541.56 614.46 542.19 608.75 540.31 603.04 540.73 597.34 540.52 591.62 541.37 585.91 542.65 579.45 541.89 583.85 537.03 586.02 531.72 588.2 526.41 590.86 521.38 594.19 516.74 597.37 512.01 600.63 506.95 605.66 503.52 609.35 498.7 614.14 495.06 619.75 492.81 625.14 490.31 630.8 488.5 636.39 486.56 641.83 483.86 647.95 484 653.82 483.22 659.48 480.27 665.56 481.56 671.49 481.82 677.2 480.89 682.91 482.34 688.62 480 694.33 480.82 700.04 482.39 705.75 480.57 711.46 479.92 717.88 480.68 713.54 485.52 711.46 490.89 707.88 495.37 704.99 500.26 702.21 505.22 699.34 510.13 696.06 515.03 692.67 520.04 688.43 524.39 682.53 526.37 677.53 529.55 672.41 532.64 666.42 533.65 661.26 536.91 655.49 538.49 649.48 538.85 643.58 539.47 637.81 541.36 631.85 541.82 625.88 541.95"/></g><g><polygon class="cls-2" points="96.51 541.15 90.8 540.1 85.09 542.24 79.38 541.23 73.67 540.41 67.96 541.9 62.25 540.2 56.54 540.23 49.64 540.79 54.88 545.65 56.12 551.52 58.9 556.48 61.34 561.64 66.33 565.28 68.11 570.85 72.02 575.35 76.3 579.4 80.17 583.99 85.46 586.78 90.52 589.85 95.91 592.3 101.27 594.87 107.09 596.15 112.35 599.52 118.3 600.38 124.19 601.56 130.22 601.41 136.22 600.53 142.12 600.99 147.83 602.72 153.54 601.86 159.25 601 164.96 600.71 170.66 601.18 176.38 601.49 182.09 601.24 188.44 602.22 184.43 597.25 181.29 592.51 179.12 587.2 176.28 582.28 173.73 577.17 170.75 572.33 166.36 568.16 163.36 562.83 158.88 558.78 152.71 557.27 148.44 552.84 143.21 549.89 137.33 548.53 132.11 545.26 125.75 545.96 120.14 543.91 114.49 541.39 108.35 542.51 102.41 542.76 96.51 541.15"/><polygon class="cls-2" points="202.38 540.71 196.67 542.48 190.96 541.11 185.26 540.62 179.55 541.03 173.84 540.92 168.13 542.64 162.41 542.35 155.79 540.94 160.41 545.86 161.56 551.79 164.7 556.52 169.35 560.37 171.05 565.97 173.61 571.07 177.65 575.55 181.77 579.83 186.24 583.73 190.57 587.98 196.62 589.41 201.46 593.03 206.64 596.24 212.98 596.1 218.44 598.63 224.12 600.7 230.25 600.2 235.99 602.57 241.99 602.95 248 603.21 253.71 600.51 259.41 602.46 265.12 602.62 270.83 603.17 276.54 600.75 282.25 602.08 287.97 601.47 293.03 601.48 290.97 596.85 287.43 592.35 284.64 587.41 281.61 582.6 279.03 577.52 275.58 572.95 273.66 567 269.22 562.84 264.76 558.77 259.36 556.04 253.6 554.2 248.44 551.35 243.57 547.54 237.62 546.47 231.68 545.74 225.85 544.78 220.09 543.35 214.24 542.36 208.31 542.21 202.38 540.71"/><polygon class="cls-2" points="308.25 541.93 302.55 542.51 296.84 542.65 291.13 541.67 285.42 540.85 279.71 540.56 274 540.89 268.29 541.26 262.78 541.59 265.09 546.58 269.25 550.7 271.08 556.22 273.16 561.6 276.83 566.03 280.82 570.27 283.79 575.34 288.19 579.25 291.8 584.14 296.9 587.26 301.62 591.07 307.16 593.44 313.33 594.01 318.53 597.19 324.17 599.23 330.11 600.09 335.99 601.17 342.09 600.13 347.96 600.83 353.87 602.89 359.58 600.92 365.29 602.97 371 602.7 376.71 600.68 382.41 602.1 388.12 602.51 393.84 601.79 399.42 601.77 396.57 597.02 394.53 591.62 390.09 587.66 388.17 582.19 386.16 576.77 381.4 572.98 378.82 567.58 375.32 562.61 369.8 559.86 365.86 555.05 360.6 552.06 355.21 549.32 348.68 549.61 343.67 545.89 337.94 544.16 332.18 542.36 325.91 543.78 320.17 541.78 314.19 541.98 308.25 541.93"/><polygon class="cls-2" points="414.13 540.77 408.42 541.37 402.71 540.72 397 540.26 391.29 542.09 385.59 540.56 379.88 542.78 374.16 541.58 369.19 541.89 370.2 547.03 373.43 551.72 377.92 555.64 380.87 560.5 382.38 566.23 385.84 570.78 389.16 575.75 393.25 580.11 398.65 582.87 403.43 586.22 408.33 589.48 413.52 592.32 419.22 593.98 424.84 595.71 430.3 598.2 435.95 600.26 441.81 601.52 447.8 601.88 453.78 601.92 459.75 601.61 465.45 602.31 471.16 600.85 476.87 602.11 482.58 603.08 488.29 602.21 494 600.96 499.71 601.45 504.6 601.38 502.89 596.76 499.68 592.06 497.57 586.7 494.43 581.96 489.99 577.99 488.25 572.4 485.18 567.19 480.77 563.06 476.27 559.09 470.42 557.12 465.49 553.93 460.96 549.61 454.7 549.23 449.69 545.4 443.83 544.08 437.59 544.8 431.97 542.44 426.08 541.34 420.08 541.66 414.13 540.77"/><polygon class="cls-2" points="520 540.19 514.29 542.77 508.59 540.39 502.88 541.08 497.17 541.39 491.46 540.3 485.75 540.5 480.03 542.61 473.51 541 476.71 546.65 480.5 551 483.5 555.82 485.14 561.46 488.12 566.31 491.81 570.73 494.6 576.1 499.99 579.2 503.17 584.63 508.14 588.07 514.03 589.82 518.93 593.38 524.7 595.05 530.16 597.55 535.84 599.57 542.05 599.05 547.69 601.52 553.85 600 559.67 601.6 565.62 600.99 571.33 603.2 577.04 602.83 582.74 600.98 588.45 600.95 594.16 602.59 599.87 601.95 605.59 602.1 611.5 601.97 607.38 597.58 604.49 592.69 601.91 587.62 599.25 582.59 595.84 578 592.8 573.19 590.23 567.86 586.76 562.93 582.36 558.8 577.24 555.63 571.87 552.97 566.31 550.79 561.05 547.92 554.96 547.43 549.56 544.66 543.91 542.45 537.86 542.34 531.82 542.89 525.94 542 520 540.19"/><polygon class="cls-2" points="625.88 542.17 620.17 542.58 614.46 540.28 608.75 540.73 603.04 541.44 597.34 541.54 591.62 542.73 585.91 540.42 579.73 541.2 583.95 545.83 587.16 550.53 589.23 555.91 591.35 561.26 593.75 566.45 596.63 571.36 601.25 575.47 604.54 580.59 609.74 583.73 614.83 586.79 620.15 589.36 624.57 593.91 631.06 593.74 635.94 597.87 641.9 598.78 647.8 599.73 653.53 601.79 659.51 602.27 665.59 600.57 671.49 602.78 677.2 602.46 682.91 601.43 688.62 601.33 694.33 602.82 700.04 602.74 705.75 601.84 711.46 602.66 716.29 601.34 715.17 596.44 712.24 591.57 708.11 587.43 706.13 581.99 702.69 577.42 700.33 572.21 697.2 566.97 691.79 563.82 688.23 558.8 682.1 557.24 677.6 553.25 671.94 551.36 667.23 547.09 661.4 545.53 655.17 545.75 649.39 544.54 643.79 541.96 637.78 541.91 631.84 541.35 625.88 542.17"/></g></g></g></g></svg>