<?xml version="1.0" encoding="UTF-8"?><svg id="Day_21" xmlns="http://www.w3.org/2000/svg" viewBox="0 0 768 768"><defs><style>.cls-1{fill:#608a44;}.cls-2{fill:#c9e2b8;}</style></defs><rect class="cls-1" width="768" height="768"/><g><g><g><path class="cls-2" d="M59.05,295.56l.68-6.97-.5-6.97-.48-6.97,.83-6.97-1.58-6.97,1.22-6.97-.07-6.97,.86-6.97-1.14-6.97-.11-6.97-.73-6.97,2.01-6.97-1.26-6.98-.12-6.98-.57-6.98,1.39-.97,1.76,.36,1.71-2.01,2.44,.89,2.08,.12,7.08,.3,7.08-.95,7.08,.25,7.08,.66,7.08-.46,7.08-1.01h7.09s7.09,1.01,7.09,1.01l7.09,.6,7.52-.03,7.43,1.52,6.89,2.53,5.47,4.9,4.32,6.07,4.11,6.2,2.53,8.2,1.18,8.57,.17,6.51-2.56,6.06-3.39,10.23-7.5,6.31-7.71,4.91-8.63,3.17-8.65,2.32-8.4,2.36-7.55-.23-7.41-.04-1.13,6.43,.75,6.94-.76,6.9,.79,6.92,.13,8.8-3.21,2.56-7.43,.36-7.43-.94-7.43,.9-7.43,.64-7.44-1.5-7.53,1.22-2.28-6.48,.4-6.5Zm44.17-54.94l2.13,4.03,6.65-.83,5.64-2.11,5.36-2.37,2-5.55,2.39-6.08-.82-4.96-1.15-4.1-3.77-1.66-3.47-1.42-4.12-.05-3.95-2.32-4.12,1.22-1.6,6.11,.06,6.69-1.07,6.67-.15,6.74Z"/><path class="cls-2" d="M151.8,306.23l2.77-7.1,1.54-7.47,1.62-7.46,3.12-7.01,.56-7.81,3.7-6.98,2.33-7.42,3.36-7.08,1.22-7.79,2.36-7.42,1.71-7.64,4.59-6.4,1.04-7.59,2.27-7.18,1.77-7.34,3.29-6.84,1.33-.85,6.56-2.03,6.6,1.15,6.83,.13,6.84,.23,6.82-1.18,6.83,.23,6.6,.76,6.6-.52,2.02-1.11,1.98,.22,1.58,1.6,.56,1.32,1.04,1.04,2.53,6.62,2.75,6.55,1.24,7.03,1.24,7.03,2.84,6.52,2.27,6.7,2.62,6.59,2.73,6.56,.67,7.2,3.19,6.41,.56,7.24,1.92,6.82,2.01,6.79,2.5,6.63,3.68,6.26,1.89,6.83,2.11,6.78-2.02,1.58-3.91,1.57-7.22-.74-9.34,1.01-9.35,.23-3.82-.79-4.82,.49-4.28-1.3-3.95,.15-2.61-1.79,1.7-5.28-4.08-6.91-3.74-2.63-6.75-1.77-6.75,1.05h-6.76s-6.96-.41-6.96-.41l-2.96,8.26-.32,8.76-9.39,2.48-6.28-1.92-10.06,1.09-10.04-.02-2.2,.82-3.94,.63-3.98-1.55-2.37-2.01Zm54.35-47.65l1.89,4.44,5.56-.48,5.75-.72,5.85,.36,4.02-2.84-.32-7.81-1.76-7.52-.73-7.75-2.96-7.25-1.81-7.52-2.46-7.24-3.88,4.49-.92,6.51-1.5,6.16-.94,6.95-2.53,6.59-2.6,6.57-.66,7.05Z"/><path class="cls-2" d="M400.83,264.15l-1.9,7.02-1.51,7.08-2.5,6.86-4.16,5.03-2.92,6.07-5.77,3.35-5.35,3.59-6.14,2.02-5.64,3.3-6.94,1.78-7.04,1.71-7.22-1.83-6.57,1.11-6.55-.62-6.6-.77-7.43-3.4-6.66-4.48-6.83-2.78-4.26-5.89-3.91-5.54-3.02-6.03-3.46-5.9-1.65-6.61-.68-6.57-1.39-6.42-1.52-6.2-.13-6.32,1.06-6.91,1.51-6.96,1.1-7.03,2.35-6.77,2.55-5.75,4.41-4.52,4.92-3.75,6.65-5.74,7.74-4.24,7.87-3.53,8.28-2.7,8.09,.31,7.9-1.4,7.47,1.81,7.37,1.15,7.17,1.86,5.68,1.73,6.04,1.48,4.77,3.86,5.45,5.92,3.11,7.39,3.8,7.37,.83,8.22,.87,7.53-8.69,2.84-9.01-.6-5.67,.33-5.65-1.1-9.56,.79-1.11,.75-1.25-1.5-3.49-.6-1.87-4.24,.75-5.15-3.02-3.83-4.3-1.64-5.06,.52-4.17,2.62-.64,4.83-1.02,5.16-2.25,5.36,.59,6.02-.4,5.45,.61,3.48,.36,4.07-.93,8.46,2.72,8.25,7.83,3.38,4.97-1.73,1.36-5.06,2.32-5.09,1.86-3.96,7.13,.38,7.12-.89,7.11,1.33,7.12-1.31,7.12,1.03,7.14-1.15,2.75,3.89Z"/><path class="cls-2" d="M412.44,308.68l-2.35-1.01-1.24-.23-1.37-1.66,.86-6.99-1.65-6.98,1.27-6.98-.07-6.98,.9-6.98-1.2-6.98-.11-6.98-.76-6.97,2.1-6.98-1.32-6.98-.13-6.98-.59-6.98,.9-6.98,.97-6.98-1.86-6.99,1.05-6.99,.2-2.5,.57-1.73-.09-1.92,1.66-.57,2.4,.37,8.05-.48,8.05-1.06h8.05s8.05,1.06,8.05,1.06l6.07,.92,5.19,1.83,.39,.16,.53,7.26-.92,7.24-.92,7.25,.63,7.26,.1,7.25-.5,6.94,2.58-6.73,4.41-5.95,2.23-7,4.51-5.9,3.34-6.47,3.26-6.52,2.53-6.4,7.76-1.35,8.13,.28,6.7,.04,6.69,1.29,6.72-.85,6.66,.95,6.94,.65-.27,.62-4.1,5.66-3.07,6.28-4.27,5.61-2.61,6.54-2.86,6.4-4.81,5.29-2.34,6.7-3.13,6.25-4.96,5.42,.89,2.3,3.21,2.04,3.28,6.51,2.96,6.67,5.05,5.45,3.75,6.21,2.12,7.16,4.32,5.88,3.44,6.39,4.3,5.9,4.11,6.06-2.55,2.3-7.11-.23-7.2,1.03-7.2-.46-7.2,1.24-7.2-.81-7.21,.16-7.09-.35-3.9-5.76-2.04-6.85-4.36-5.67-2.3-6.72-4.22-5.74-3.37-6.18-3.01-6.23,1.24,5.87-.54,6.26-.71,5.41-.45,5.41-.61,6.17,.32,6.18-.1,6.16-9.04,2.86-6.91,.93-6.9-.35-6.91,.08-6.91-.75h-6.92Z"/></g><path class="cls-2" d="M166.73,454.87l-13.93-1.72-10.28-3-2.81-.98-13.28,5.52-14.05,2.68-6.9,1.13-13.92-2.72-14.04-1.91-9.74-6.21-9.67-6.41-7.21-18.45,4.04-15.57,10.67-12.06,13.76-6.1-11.19-11.61-4.47-15.28,4.13-13.12,9.25-9.54,14.42-5.21,18.07-2.3,17.73,.31,15.64,5.17,12.01,9.22,3.52,14.21-4.96,17.04-8.5,7.42-9.49,6.85,12.91,10.74,2.41-3.68,.48-4.77,1.48-3.71,4.99-2.72,9.27,.91,5.97,.54,6.28,.14,3.62,.43,3.47-1.05,1.52,1.57,.39,1.72v3.07s-3.15,17.62-3.15,17.62l-9.86,14.31,6.9,10.44,4.68,3.86,6.91,5.47,1.93,5.21-2.75,3.65-13.13-2.32-13.11,1.2Zm-75.05-33.94l1.14,6.15,5.24,2.98,5.01,3.25,5.86,.62,17.52-4.66-10.27-8.83-6.67-8.46-5.37-2.7-2.94-3.57-5.74,7.09-3.79,8.13Zm7.07-58.42l4.17,8.5,9.18,4.21,.14,.9,.35-.25,4.07-2.6,4.27-6.12,3.62-5.58-3.73-4.95-4.44-4.12-5.87,.61-7.47,2.8-4.29,6.6Z"/><g><path class="cls-2" d="M208.73,358.26v-4.2s-.34-3.81-.34-3.81l-.77-2.75,1.34-4.32,1.25-9.1,1.08,1.78,16.24,.15,16.22-.02,16.22-.57,16.07-1.79,16.09,.11,16.09-.04,4.62,1.89,1.76,2.09-.73,2.2,1,12.05,.23,12.14-2.8,3.79-13.12,.25-14.03-.46,.99,14.22,.71,14.02-1.68,14.03,1.38,14.03,.42,14.03-1.74,14.02-1.83,2.73-8.02-.09-8.01-.55-.36-.69-9.66,1.66-9.3,.05-4.73-1.89-4.35,1.05-2.79-3.72-.51-17.55-.02-17.77,2.16-17.7,.51-17.77-1.14-1.81,.46-2.04-1.44-1.88,.47-2.01-.82-1.41-.8-1.39-1.73,.56-11.23-1.41-11.25,1.39-2.09-11.51Z"/><path class="cls-2" d="M431.99,452.57l-7.21,2.17-13.66,.35-8.6,.15-7.69-1.66-7.89,1.1-2.05-6.13-2.08-13.12-1.09-9.06-3.1-10.73-8.61-1.14-2.92-.66v12.62s-1.33,12.78-1.33,12.78l1.06,12.78-2.09,1.14-4.07,1.71-4.97,.38-5.7-.93-4.33,.33-11.31-1.06-14.45,1.17-2.98-1.13,1.68-14.68-1.39-14.64-.42-14.64,1.74-14.64-1.03-14.65v-14.64s.48-14.65,.48-14.65l.85-14.65,5.15-2.81,13.69-.13,13.69,1.9,13.69-.84,13.7,.26,13.7-.81,14.53,1.43,12.04,7.93,6.74,9.97,3.14,12-5.52,16.63-13.07,11.79,5.77,2.45,4.84,4.09,2.95,5.58,3.1,5.6v6.82s2.2,6.35,2.2,6.35l-.5,6.65,1.81,5.95,.19,6.91,1.19,3.16,1.96,3.63-1.84,1.63Zm-66-85.05l.22,6.99,1.36,5.85,2.17,4.25,5.95,.73,5.23-3.26,5.5-3.61,1.93-7.81-.85-4.79-3.15-3.11-4.01-.36-3.68-1.14-3.62-.38-3.19-1.39-1.85,1.06-2.02,1.84v5.12Z"/><path class="cls-2" d="M425.79,452.33l3.25-12.24,3.04-12.34,3.1-12.34,6.4-14.29,3.72-15.16,6.7-14.17,4.26-11.81,4.14-11.85,3.52-12,.4-3.12,13.21,.29,13.65-.12,13.67,1.32,13.19-1.19,1.94,.86,1.98-.84,1.98,.36,.59,1.75,.86,1.26,3.39,14.69,5.61,14,5.29,14.1,2.71,14.91,6.01,13.87,4.98,14.19,2.66,14.94,5.64,14-1.25,2.41-4.38,.08-7.22-.96-9.34,2.05-9.35,.23-3.86-2.02-4.77,1.02-4.31-.52-4.02,.03-2.62-1.98,1.84-5.29-2.65-7.79-5.22-2.65-13.51-.56-12.85,1.24-4.76,15.95-8.78,2.07-6.28-.46-10.02,1.3-10.08-1.35-2.2,1.57-3.98-1.15-4.44,1.41-1.84-3.69Zm54.29-47.67l2.33,3.64,5.15-.58,11.31-1.43,5.76-1.14-4.58-14.81-1.59-15.48-3.15-15.2-6.19,5.12-3.54,12.44-1.38,14.03-4.12,13.41Z"/><path class="cls-2" d="M561.34,454.29l.24-16.66,.25-16.74-.58-13.37,1.62-13.37-.91-13.39,1.89-13.35,.56-13.41-.19-9.73-.39-2.39-1.92-5.62,2.16-3.22,13.15,.65,13.06,1.57,13.11-.99h8.17s.92,14.96,.92,14.96l.15,15.02-.9,15.02,.41,15.01-1.06,15.02,1.01,15.02,.72,15.02-1.47,14.44-11.99,1.07-12.68,.42-12.68-1.75-12.65,.76Z"/><path class="cls-2" d="M625.87,347.42l2.56-14.34,2.22-.36,2.51-.63,8.02,1.36,8.47-1.26,17.91,2.53,6.77,2.52-.28,13.46,.23,13.51,1.46,13.53-.41,13.5-.19,13.51-1.48,13.6,2.51-.36,8.8,.46,9.25-.62,12.9,.13,7.51,1.48,2.66,2.11-1.06,15.08,1.02,15.08-17.33,3.35-17.76-1.43-13.58,1.4-13.58,.43-13.59-1.76-13.61,1.04-2.05-8.99,.48-11.15,.86-11.15-1.71-14.53-.03-14.53,2.02-14.52-.79-14.53,.02-8.03-.72-9.87Z"/></g></g><g><g><polygon class="cls-2" points="96.51 541.44 90.8 542.03 85.09 542.22 79.38 541.7 73.67 540.84 67.96 542.08 62.25 542.09 56.54 541.13 50.48 541.66 52.62 535.92 56.5 531.63 59.67 526.91 62.69 522.09 66.34 517.65 68.71 512.44 71.11 506.83 75.06 502.22 80.2 498.99 84.67 494.9 89.83 491.77 95.26 489.14 100.86 486.93 106.68 485.41 112.62 484.5 118.43 483.18 124.13 480.96 130.35 482.95 136.23 482.48 142.12 480 147.83 481.89 153.54 481.95 159.25 479.89 164.96 480.59 170.66 481.93 176.38 480.99 182.09 480.25 188 480.97 183.75 485.27 180.93 490.2 178.72 495.49 175.14 499.97 173.44 505.58 170.87 510.67 166.51 514.89 161.96 518.63 159.03 524.35 152.77 525.76 147.94 529.13 142.99 532.54 137.25 534.18 132.14 537.75 125.83 537.28 120.14 539.04 114.49 541.48 108.44 541.37 102.48 541.87 96.51 541.44"/><polygon class="cls-2" points="202.38 541.37 196.67 542.65 190.96 542.32 185.26 540.6 179.55 541.46 173.84 542.31 168.13 542.61 162.41 542.13 156.38 541.64 159.08 536.27 163.15 532.09 164.96 526.56 167.66 521.55 171.31 517.11 174.3 512.27 178.05 507.7 182 503.35 185.77 498.58 191.47 496.36 196.65 493.58 201.04 488.94 207.23 488.29 212.97 486.79 218.45 484.34 224.55 484.51 230.04 481.23 236.08 481.36 242.1 482.53 248 480.57 253.71 479.92 259.41 480.27 265.12 481.92 270.83 480.96 276.54 481.73 282.25 481.71 287.97 481.55 293.32 481.28 290.54 485.81 288.43 491.17 286 496.33 281.59 500.31 278.89 505.33 276.46 510.5 272.01 514.58 269.04 519.9 264.48 523.79 259.08 526.44 253.79 529.09 248.97 532.76 243.44 535.04 237.45 535.88 231.56 536.69 226.05 539.22 220.05 539.25 214.33 541.54 208.34 541.47 202.38 541.37"/><polygon class="cls-2" points="308.25 542.46 302.55 541.2 296.84 540.23 291.13 541.11 285.42 542.35 279.71 541.86 274 542.42 268.29 541.03 262.64 541.42 266.36 537.12 269.05 532.1 270.43 526.32 274.53 522.15 277.86 517.52 280.43 512.42 283.9 507.68 286.72 502.13 291.53 498.43 297.5 496.62 301.67 491.94 307.91 491.21 313.28 488.76 318.29 484.97 324.43 484.76 330.31 483.92 336.06 482.25 341.96 481.46 347.91 481.13 353.87 482.01 359.58 480.23 365.29 481.39 371 482.44 376.71 480.3 382.41 481.31 388.12 482.14 393.84 480.64 398.45 481.71 395.58 485.32 392.56 490.13 391.97 496.39 387.38 500.27 384.33 505.07 380.94 509.67 379.5 515.9 374.43 519.39 370.29 523.71 365.58 527.44 359.92 529.57 354.86 532.81 349.26 534.91 343.64 536.93 337.78 538.11 332.07 539.98 325.9 539.1 320.08 540.19 314.16 540.39 308.25 542.46"/><polygon class="cls-2" points="414.13 540.24 408.42 541.65 402.71 540.57 397 541.56 391.29 541.95 385.59 542.38 379.88 540.19 374.16 542.77 369.37 540.93 371.69 536.79 374.33 531.75 378.18 527.44 380.92 522.46 382.03 516.49 386.73 512.68 389.82 507.72 393.12 502.68 397.62 498.72 403.34 496.55 408.39 493.55 413.33 490.18 419.14 488.73 424.21 485.11 430.49 485.54 436.26 484.29 441.88 481.91 447.92 482.31 453.8 481.31 459.75 481.82 465.45 482.28 471.16 480.46 476.87 481.98 482.58 479.76 488.29 480.97 494 480.22 499.71 482.42 504.58 481.57 503.26 486.4 500.38 491.29 496.06 495.32 493.7 500.53 490.65 505.33 487.75 510.23 485.43 515.95 481.26 520.39 476.41 524.03 471.3 527.2 466.39 530.71 461.01 533.44 455.09 534.77 449.19 535.87 443.41 537.14 437.7 538.71 431.91 540.04 426.04 541.17 420.06 540.87 414.13 540.24"/><polygon class="cls-2" points="520 542.37 514.29 541.18 508.59 541.52 502.88 540.17 497.17 542.03 491.46 542.05 485.75 542.02 480.03 541.68 473.91 541.7 477.01 536.46 481.1 532.29 484.22 527.54 484.99 521.38 489.77 517.61 491.56 512.06 495.21 507.33 498.43 502.09 503.23 498.37 509.06 496.32 513.53 492.16 519.24 490.24 525.02 488.75 530.69 487.14 536.17 484.74 542.15 484.38 547.87 482.73 553.83 482.73 559.61 479.99 565.62 480.89 571.33 482.2 577.04 480.62 582.74 482.18 588.45 480.12 594.16 480.59 599.87 480.8 605.59 480.18 610.92 481.3 607.65 485.51 604.31 490.13 601.6 495.12 600.22 500.92 596.69 505.43 594.42 510.7 591.26 515.91 585.53 518.7 581.37 522.83 576.92 526.79 571.81 529.84 566.92 533.52 560.53 533.6 555.09 535.95 549.74 538.98 543.93 540.58 537.86 540.58 531.84 540.35 525.9 540.16 520 542.37"/><polygon class="cls-2" points="625.88 542.17 620.17 541.62 614.46 542.69 608.75 540.84 603.04 541.29 597.34 541.79 591.62 541.37 585.91 542.53 580.41 541.34 583.58 536.87 585.18 531.21 589.67 527.28 591.84 521.96 594.93 517.18 598.38 512.62 600.28 506.67 605.31 503.15 609.14 498.41 614.16 495.08 619.3 491.95 625.51 491.16 630.72 488.28 636.21 485.94 641.93 484.25 647.89 483.68 653.66 482.09 659.64 482.02 665.51 480.41 671.49 482.12 677.2 482.03 682.91 480.58 688.62 480.25 694.33 482.22 700.04 480.49 705.75 480.92 711.46 481.37 717.48 480.91 713.16 485.29 710.81 490.5 709.13 496.11 706.26 501.02 703.51 506 699.67 510.33 696.49 515.38 692.68 520.05 687.11 522.66 682.97 527.07 677.49 529.48 672.44 532.71 666.32 533.37 661.33 537.14 655.07 536.75 649.34 538.14 643.86 541.51 637.73 540.47 631.88 542.52 625.88 542.17"/></g><g><polygon class="cls-2" points="96.51 540.43 90.8 542.17 85.09 540.96 79.38 542.76 73.67 541.55 67.96 540.78 62.25 541.79 56.54 540.71 50.32 541.17 54.2 546.06 56.2 551.48 59.09 556.37 62.89 560.72 64.45 566.41 67.77 571.05 72.46 574.99 76.65 579.04 80.72 583.26 84.88 587.69 90.84 589.23 96.12 591.83 100.8 596.16 107.02 596.39 112.66 598.26 118.52 599.26 124.45 599.64 130.22 601.37 136.12 602.73 142.12 602.55 147.83 602.93 153.54 603.03 159.25 602.97 164.96 601.07 170.66 602.64 176.38 601.62 182.09 601.75 188.78 602.41 184.97 596.93 182.82 591.6 178.68 587.46 176.65 582.06 172.15 578.12 171.12 572.11 166.44 568.1 163.34 562.85 157.87 560.09 153.05 556.72 148.9 551.97 142.53 551.45 137.56 547.88 131.65 546.81 125.99 544.96 120.39 542.61 114.24 543.19 108.46 541.36 102.45 541.84 96.51 540.43"/><polygon class="cls-2" points="202.38 541.51 196.67 540.52 190.96 541.75 185.26 541.36 179.55 541.96 173.84 540.59 168.13 540.32 162.41 541.22 155.95 541.04 159.19 546.59 162.55 551.2 165.81 555.86 168.75 560.72 171.72 565.58 174.03 570.82 177.34 575.81 181.92 579.67 185.36 584.88 191.55 586.44 195.73 591.11 201.82 592.21 206.89 595.57 212.78 596.75 218.76 597.34 224.45 598.94 230.04 601.68 236 602.43 241.99 602.83 248 601.89 253.71 602.42 259.41 601.25 265.12 600.9 270.83 601.62 276.54 602.34 282.25 603.09 287.97 601.89 294.12 602.1 289.84 597.53 288.26 591.86 284.8 587.31 282.2 582.25 280.25 576.79 275.82 572.81 272.03 568.34 269.25 562.82 264.28 559.39 259.96 555.08 254.68 552.15 248.4 551.46 243.35 548.12 237.41 547.16 231.73 545.51 226.01 543.93 220.29 541.96 214.18 542.99 208.34 541.54 202.38 541.51"/><polygon class="cls-2" points="308.25 540.21 302.55 542.68 296.84 541.87 291.13 540.61 285.42 540.48 279.71 541.42 274 542.63 268.29 542.25 263.14 541.79 265.97 546.05 268.16 551.35 272.09 555.62 273.8 561.22 277.83 565.43 280.81 570.28 282.8 576.15 286.86 580.65 291.41 584.65 297.67 586.05 301.73 590.86 307.91 591.72 313.33 594.03 318.77 596.38 324.25 598.89 330.23 599.45 336.08 600.49 342 601.03 347.94 601.17 353.87 600.55 359.58 601.78 365.29 601.65 371 602.08 376.71 602.36 382.41 600.81 388.12 600.52 393.84 600.92 399.85 602.02 397.6 596.4 393.08 592.49 391.15 587.03 388.12 582.22 385.04 577.44 383.03 572.01 378.41 567.92 374.69 563.27 370.88 558.45 364.9 556.56 359.4 554.35 354.97 549.88 349.16 548.31 343.61 546.11 337.57 545.67 332.05 543.08 326.01 543.06 320.16 541.84 314.2 541.86 308.25 540.21"/><polygon class="cls-2" points="414.13 540.5 408.42 540.22 402.71 541.48 397 540.92 391.29 542.43 385.59 541.45 379.88 541.64 374.16 541.18 369.13 541.86 370.66 546.76 374.93 550.82 376.77 556.33 380.88 560.5 383.99 565.27 386.74 570.25 390.38 574.75 394.07 579.25 398.11 583.57 402.83 587.18 407.63 590.81 413.2 593.06 418.7 595.4 424.51 596.83 430.52 597.28 436.2 598.95 442.05 599.82 447.84 601.41 453.83 600.91 459.75 602.04 465.45 602.57 471.16 601.45 476.87 602.74 482.58 602.24 488.29 601.62 494 600.51 499.71 601.37 505.4 601.83 502.54 596.96 499.98 591.88 496.33 587.44 494.15 582.13 491.46 577.11 488.56 572.22 483.85 568.28 479.53 564.35 476.64 558.6 471.44 555.52 465.72 553.5 460.62 550.37 454.64 549.37 449.7 545.4 443.34 546.1 438.05 542.4 432.11 541.42 425.96 542.71 420.1 541.3 414.13 540.5"/><polygon class="cls-2" points="520 540.33 514.29 542.61 508.59 541.32 502.88 541.12 497.17 540.74 491.46 541.95 485.75 541.63 480.03 540.78 474.23 541.41 478.26 545.73 481.16 550.61 482.97 556.14 485.23 561.41 488.83 565.88 492.16 570.52 496.12 574.86 499.36 579.87 503.24 584.54 508.64 587.28 513.88 590.11 519.47 592.16 525.2 593.7 530.27 597.19 536.33 597.55 541.76 600.61 547.65 601.83 553.6 602.66 559.63 602.63 565.62 600.94 571.33 601.23 577.04 601.26 582.74 602.75 588.45 601.55 594.16 602.38 599.87 601.33 605.59 601.17 611.59 602.02 608.28 597.04 606.4 591.55 602.5 587.27 598.89 582.8 597.62 576.94 593.35 572.87 589.6 568.38 587 562.68 581.68 559.69 576.82 556.3 571.93 552.86 566.93 549.39 560.65 549 555 547.28 549.81 543.64 543.75 543.3 537.9 542.05 531.87 542.28 525.92 542.5 520 540.33"/><polygon class="cls-2" points="625.88 542.8 620.17 541.44 614.46 541.62 608.75 540.8 603.04 541.63 597.34 541.84 591.62 540.17 585.91 542.15 581.12 542 583.92 545.85 586.83 550.73 588.55 556.31 590.99 561.48 595.84 565.2 596.86 571.22 600.2 576.33 605.58 579.5 610.06 583.32 614.12 587.9 620.15 589.35 625.58 591.63 630.38 595.58 636.02 597.6 642.17 597.7 647.89 599.24 653.66 600.82 659.71 600.09 665.57 600.98 671.49 601.4 677.2 601.76 682.91 601.5 688.62 600.75 694.33 603.11 700.04 601.73 705.75 600.87 711.46 600.83 716.13 601.25 714.87 596.62 711.81 591.83 708.51 587.19 706.34 581.86 702.88 577.31 699.43 572.74 696.85 567.25 691.34 564.29 687.87 559.28 682.92 555.94 678.26 551.99 672.22 550.71 666.66 548.63 660.77 547.64 655.7 543.6 649.51 543.91 643.63 543.11 637.67 543.15 631.83 541.65 625.88 542.8"/></g></g></g></svg>