<?xml version="1.0" encoding="UTF-8"?><svg id="Layer_2" xmlns="http://www.w3.org/2000/svg" viewBox="0 0 768 768"><defs><style>.cls-1{fill:#134728;}.cls-2{fill:#ddd4d4;}</style></defs><g id="Day_20"><rect class="cls-2" width="768" height="768"/><g><g><path class="cls-1" d="M119.08,686.31v-84.45h8.03l23.98,56.09v-56.09h9.8v84.45h-7.51l-24.29-57.66v57.66h-10.01Z"/><path class="cls-1" d="M164.33,686.31l17.93-84.45h11.36l18.04,84.45h-11.16l-3.86-21.27h-17.2l-4.07,21.27h-11.05Zm16.68-29.71h14.08l-7.09-38.06-6.99,38.06Z"/><path class="cls-1" d="M220,686.31v-75.69h-14.28v-8.76h39.93v8.76h-13.87v75.69h-11.78Z"/><path class="cls-1" d="M249.19,686.31v-84.45h11.57v84.45h-11.57Z"/><path class="cls-1" d="M290.79,687.25c-5.7,0-10.25-1.11-13.66-3.34-3.41-2.22-5.84-5.4-7.3-9.54-1.46-4.13-2.19-8.98-2.19-14.54v-32.01c0-5.56,.75-10.34,2.24-14.34,1.49-4,3.93-7.05,7.3-9.17,3.37-2.12,7.91-3.18,13.61-3.18s10.22,1.08,13.55,3.23c3.34,2.16,5.75,5.21,7.25,9.17,1.49,3.96,2.24,8.72,2.24,14.28v32.11c0,5.49-.75,10.29-2.24,14.39-1.5,4.1-3.91,7.28-7.25,9.54-3.34,2.26-7.86,3.39-13.55,3.39Zm0-9.28c3.13,0,5.49-.64,7.09-1.93,1.6-1.29,2.67-3.09,3.23-5.42,.56-2.33,.83-5.06,.83-8.18v-37.01c0-3.13-.28-5.82-.83-8.08-.56-2.26-1.63-4-3.23-5.21-1.6-1.21-3.96-1.82-7.09-1.82s-5.51,.61-7.14,1.82c-1.63,1.22-2.73,2.96-3.28,5.21-.56,2.26-.83,4.95-.83,8.08v37.01c0,3.13,.28,5.86,.83,8.18,.56,2.33,1.65,4.14,3.28,5.42,1.63,1.29,4.01,1.93,7.14,1.93Z"/><path class="cls-1" d="M320.19,686.31v-84.45h8.03l23.98,56.09v-56.09h9.8v84.45h-7.51l-24.29-57.66v57.66h-10.01Z"/><path class="cls-1" d="M365.44,686.31l17.93-84.45h11.36l18.04,84.45h-11.16l-3.86-21.27h-17.2l-4.07,21.27h-11.05Zm16.68-29.71h14.08l-7.09-38.06-6.99,38.06Z"/><path class="cls-1" d="M416.11,686.31v-84.45h11.78v76.01h21.58v8.45h-33.36Z"/><path class="cls-1" d="M470.95,686.31v-84.45h20.96c5.07,0,9.12,.92,12.15,2.76,3.02,1.84,5.23,4.5,6.62,7.98,1.39,3.48,2.08,7.68,2.08,12.62,0,4.45-.78,8.31-2.35,11.57-1.56,3.27-3.88,5.79-6.93,7.56-3.06,1.77-6.88,2.66-11.47,2.66h-9.28v39.31h-11.78Zm11.78-47.75h5.42c3.41,0,6.08-.38,8.03-1.15,1.95-.76,3.34-2.1,4.17-4.01,.83-1.91,1.25-4.6,1.25-8.08,0-4.03-.3-7.12-.89-9.28-.59-2.15-1.82-3.65-3.7-4.48s-4.8-1.25-8.76-1.25h-5.53v28.25Z"/><path class="cls-1" d="M506.5,686.31l17.93-84.45h11.36l18.04,84.45h-11.16l-3.86-21.27h-17.2l-4.07,21.27h-11.05Zm16.68-29.71h14.08l-7.09-38.06-6.99,38.06Z"/><path class="cls-1" d="M557.17,686.31v-84.45h17c5.63,0,10.29,.75,13.97,2.24,3.68,1.5,6.41,3.89,8.18,7.19,1.77,3.3,2.66,7.63,2.66,12.98,0,3.27-.35,6.24-1.04,8.91-.7,2.68-1.81,4.94-3.34,6.78-1.53,1.84-3.54,3.18-6.05,4.01l11.99,42.33h-11.36l-11.05-39.62h-9.18v39.62h-11.78Zm11.78-48.06h4.48c3.34,0,6.05-.42,8.13-1.25,2.08-.83,3.61-2.26,4.59-4.27,.97-2.02,1.46-4.83,1.46-8.45,0-4.93-.9-8.5-2.71-10.69-1.81-2.19-5.39-3.28-10.74-3.28h-5.21v27.94Z"/><path class="cls-1" d="M606.07,686.31v-84.45h11.78v39.83l19.39-39.83h10.95l-16.68,37.22,19.39,47.23h-11.47l-16.16-39.62-5.42,9.8v29.82h-11.78Z"/></g><g><path class="cls-1" d="M171.88,185.36c19.17,18.97,13.37,39.2-3.11,55.85l-5.39,5.45,24.02,23.77c.66,.65,.66,1.49,.01,2.15l-19.21,19.4c-.65,.66-1.49,.66-2.15,.01l-58.81-58.21-9.62,5.65c-.77,.42-1.49,.31-2.09-.29l-11.62-11.5c-.66-.65-.66-1.49-.01-2.15l35.09-35.46c16.12-16.29,36.12-21.28,52.89-4.68Zm-21.35,42.65c6.4-6.47,7.2-13.86,.55-20.44-6.89-6.82-13.08-5.12-19.12,.99l-3.5,3.53,19.1,18.91,2.96-2.99Z"/><path class="cls-1" d="M219.25,119.8l8.31,14.08c.43,.73,.36,1.45-.23,2.09l-10.59,10.75,30.4,51.54,14.53-4.07c.85-.21,1.52,.08,1.95,.81l8.31,14.08c.47,.8,.26,1.61-.54,2.08l-50.81,29.97c-.8,.47-1.61,.26-2.08-.54l-8.31-14.08c-.43-.73-.36-1.45,.23-2.09l10.59-10.75-30.4-51.54-14.53,4.07c-.85,.21-1.52-.08-1.95-.81l-8.31-14.08c-.47-.8-.26-1.61,.54-2.08l50.81-29.97c.8-.47,1.61-.26,2.08,.54Z"/><path class="cls-1" d="M356.81,161.42c.9-.23,1.62,.19,1.85,1.09l5.57,21.63c.23,.9-.11,1.59-1.09,1.85-2.51,.73-5.51,1.59-9.69,2.58-15.3,3.77-22.91,3.64-31.98-7.6-9.52-11.3-11.69-22.75-20.5-20.48l-4.24,1.09,9.62,37.38c.23,.9-.19,1.62-1.09,1.85l-26.44,6.81c-.9,.23-1.62-.19-1.85-1.09l-20.61-80.05-11.34-.12c-.88-.03-1.43-.5-1.64-1.32l-4.08-15.83c-.23-.9,.19-1.62,1.09-1.85l38.27-9.85c.9-.23,1.62,.19,1.85,1.09l10,38.84,4.16-1.07c6.2-1.6,6.19-18.21,6.54-22.92,1.11-18.99,7.9-24.05,29.63-29.56l4.08-1.05c.9-.23,1.62,.19,1.85,1.09l5.55,21.54c.23,.9-.19,1.62-1.09,1.85l-3.67,.95c-10.04,2.58-10.64,9.7-11.46,18-.3,4.25-.77,9.16-2.48,13.69,6.82,4.16,10.52,11.47,14.3,16.33,4.73,6.53,6.5,8.33,18.41,5.27l.49-.13Z"/><path class="cls-1" d="M465.93,197.24l-28.71-3.31c-.84-.1-1.46-.59-1.52-1.53l-2.31-19.69-30.89-3.56-6.82,18.64c-.26,.82-.99,1.24-1.83,1.15l-28.13-3.25c-1.09-.13-1.43-.84-1.06-1.82l32.09-78.92-12.09-4.79c-.81-.35-1.16-.98-1.06-1.82l1.87-16.24c.11-.92,.76-1.44,1.68-1.33l62.28,7.19c.84,.1,1.38,.5,1.53,1.45l16.4,106.31c.14,1.03-.36,1.65-1.45,1.53Zm-54.62-52.28l19,2.19-4.86-40.94-14.14,38.75Z"/><path class="cls-1" d="M563.14,219.18c.82,.43,1.07,1.22,.65,2.05l-10.3,19.81c-.43,.82-1.15,1.11-2.05,.65-2.36-1.13-5.16-2.49-8.94-4.55-13.9-7.42-19.48-12.6-18.72-27.02,.46-14.77,6.5-24.74-1.58-28.94l-3.89-2.02-17.81,34.24c-.43,.82-1.22,1.07-2.05,.65l-24.22-12.6c-.82-.43-1.07-1.22-.65-2.05l38.14-73.35-8.36-7.67c-.63-.61-.73-1.33-.34-2.08l7.54-14.5c.43-.82,1.22-1.07,2.05-.65l35.07,18.23c.82,.43,1.07,1.22,.65,2.05l-18.51,35.59,3.81,1.98c5.68,2.95,16.77-9.42,20.18-12.68,13.52-13.39,21.95-12.62,41.8-2.2l3.74,1.94c.82,.43,1.07,1.22,.65,2.05l-10.26,19.74c-.43,.82-1.22,1.07-2.05,.65l-3.37-1.75c-9.2-4.78-14.4,.11-20.56,5.74-3.06,2.97-6.7,6.3-10.99,8.53,2.29,7.65,.17,15.57-.27,21.71-.84,8.02-.73,10.54,10.18,16.22l.45,.23Z"/><path class="cls-1" d="M684.07,230.13l-15.96,15.13c-.67,.64-1.51,.62-2.14-.06l-27.31-28.81-11.13,10.55,19.48,20.55c.64,.67,.62,1.51-.06,2.14l-15.96,15.13c-.67,.64-1.51,.62-2.14-.06l-19.48-20.55-11.8,11.19,27.31,28.81c.64,.67,.62,1.51-.06,2.14l-15.96,15.13c-.67,.64-1.51,.62-2.14-.06l-47.14-49.72c-.64-.67-.62-1.51,.06-2.14l60.06-56.94-5.34-9.8c-.4-.79-.26-1.5,.35-2.08l11.86-11.25c.67-.64,1.51-.62,2.14,.06l55.43,58.47c.64,.67,.62,1.51-.06,2.14Z"/></g><path class="cls-1" d="M383.42,302.92c-25.31,0-45.89-20.59-45.89-45.89s20.59-45.89,45.89-45.89,45.89,20.59,45.89,45.89-20.59,45.89-45.89,45.89Zm0-81.78c-19.79,0-35.89,16.1-35.89,35.89s16.1,35.89,35.89,35.89,35.89-16.1,35.89-35.89-16.1-35.89-35.89-35.89Z"/><g><path class="cls-1" d="M429.65,351.31h-92.46c-2.76,0-5-2.24-5-5s2.24-5,5-5h92.46c2.76,0,5,2.24,5,5s-2.24,5-5,5Z"/><path class="cls-1" d="M480.76,325.17h-194.68c-2.76,0-5-2.24-5-5s2.24-5,5-5h194.68c2.76,0,5,2.24,5,5s-2.24,5-5,5Z"/><g><g><path class="cls-1" d="M506.44,248.81h-52.33c-2.76,0-5-2.24-5-5s2.24-5,5-5h52.33c2.76,0,5,2.24,5,5s-2.24,5-5,5Z"/><path class="cls-1" d="M546.89,275.01h-77.35c-2.76,0-5-2.24-5-5s2.24-5,5-5h77.35c2.76,0,5,2.24,5,5s-2.24,5-5,5Z"/></g><g><path class="cls-1" d="M312.22,248.81h-52.33c-2.76,0-5-2.24-5-5s2.24-5,5-5h52.33c2.76,0,5,2.24,5,5s-2.24,5-5,5Z"/><path class="cls-1" d="M296.79,275.01h-77.35c-2.76,0-5-2.24-5-5s2.24-5,5-5h77.35c2.76,0,5,2.24,5,5s-2.24,5-5,5Z"/></g></g></g><g><path class="cls-1" d="M250.54,430.75c-20.1,0-36.82-14.78-39.87-34.04v-1.79c8.58,8.77,20.54,14.23,33.75,14.23,3.59,0,6.5-2.91,6.5-6.5s-2.91-6.5-6.5-6.5c-16.91,0-30.99-12.32-33.75-28.46v-3.83c7.31,6.64,17.01,10.69,27.64,10.69,3.59,0,6.5-2.91,6.5-6.5s-2.91-6.5-6.5-6.5c-13.72,0-25.17-9.87-27.64-22.88v-6.15c5.94,4.64,13.41,7.42,21.52,7.42,3.59,0,6.5-2.91,6.5-6.5s-2.91-6.5-6.5-6.5c-10.54,0-19.38-7.45-21.52-17.37v-4.66c0-3.86-3.14-7-7-7s-7,3.14-7,7v4.66c-2.14,9.91-10.98,17.37-21.52,17.37-3.59,0-6.5,2.91-6.5,6.5s2.91,6.5,6.5,6.5c8.11,0,15.58-2.78,21.52-7.42v6.15c-2.47,13.01-13.92,22.88-27.64,22.88-3.59,0-6.5,2.91-6.5,6.5s2.91,6.5,6.5,6.5c10.63,0,20.33-4.05,27.64-10.69v3.83c-2.76,16.14-16.84,28.46-33.75,28.46-3.59,0-6.5,2.91-6.5,6.5s2.91,6.5,6.5,6.5c13.21,0,25.17-5.46,33.75-14.23v1.79c-3.05,19.26-19.76,34.04-39.87,34.04-3.59,0-6.5,2.91-6.5,6.5s2.91,6.5,6.5,6.5c15.84,0,30.08-6.94,39.87-17.94v50.03c0,3.86,3.14,7,7,7s7-3.14,7-7v-50.03c9.78,11,24.02,17.94,39.87,17.94,3.59,0,6.5-2.91,6.5-6.5s-2.91-6.5-6.5-6.5Z"/><path class="cls-1" d="M611.41,430.75c-20.1,0-36.82-14.78-39.87-34.04v-1.79c8.58,8.77,20.54,14.23,33.75,14.23,3.59,0,6.5-2.91,6.5-6.5s-2.91-6.5-6.5-6.5c-16.91,0-30.99-12.32-33.75-28.46v-3.83c7.31,6.64,17.01,10.69,27.64,10.69,3.59,0,6.5-2.91,6.5-6.5s-2.91-6.5-6.5-6.5c-13.72,0-25.17-9.87-27.64-22.88v-6.15c5.94,4.64,13.41,7.42,21.52,7.42,3.59,0,6.5-2.91,6.5-6.5s-2.91-6.5-6.5-6.5c-10.54,0-19.38-7.45-21.52-17.37v-4.66c0-3.86-3.14-7-7-7s-7,3.14-7,7v4.66c-2.14,9.91-10.98,17.37-21.52,17.37-3.59,0-6.5,2.91-6.5,6.5s2.91,6.5,6.5,6.5c8.11,0,15.58-2.78,21.52-7.42v6.15c-2.47,13.01-13.92,22.88-27.64,22.88-3.59,0-6.5,2.91-6.5,6.5s2.91,6.5,6.5,6.5c10.63,0,20.33-4.05,27.64-10.69v3.83c-2.76,16.14-16.84,28.46-33.75,28.46-3.59,0-6.5,2.91-6.5,6.5s2.91,6.5,6.5,6.5c13.21,0,25.17-5.46,33.75-14.23v1.79c-3.05,19.26-19.76,34.04-39.87,34.04-3.59,0-6.5,2.91-6.5,6.5s2.91,6.5,6.5,6.5c15.84,0,30.08-6.94,39.87-17.94v50.03c0,3.86,3.14,7,7,7s7-3.14,7-7v-50.03c9.78,11,24.02,17.94,39.87,17.94,3.59,0,6.5-2.91,6.5-6.5s-2.91-6.5-6.5-6.5Z"/><path class="cls-1" d="M489.41,476.79c-15.72,0-28.82-11.41-31.48-26.38v-11.91c6.5,5.42,14.85,8.68,23.95,8.68,3.59,0,6.5-2.91,6.5-6.5s-2.91-6.5-6.5-6.5c-11.79,0-21.66-8.39-23.95-19.51v-15.02c4.72,3.11,10.36,4.92,16.42,4.92,3.59,0,6.5-2.91,6.5-6.5s-2.91-6.5-6.5-6.5c-7.94,0-14.61-5.51-16.42-12.91v-4.01c0-3.86-3.14-7-7-7s-7,3.14-7,7v4.01c-1.81,7.4-8.47,12.91-16.42,12.91-3.59,0-6.5,2.91-6.5,6.5s2.91,6.5,6.5,6.5c6.06,0,11.7-1.82,16.42-4.92v15.02c-2.29,11.12-12.15,19.51-23.95,19.51-3.59,0-6.5,2.91-6.5,6.5s2.91,6.5,6.5,6.5c9.1,0,17.45-3.27,23.95-8.68v11.91c-2.65,14.97-15.75,26.38-31.48,26.38-3.59,0-6.5,2.91-6.5,6.5s2.91,6.5,6.5,6.5c12.25,0,23.36-4.92,31.48-12.89v38.07c0,3.86,3.14,7,7,7s7-3.14,7-7v-38.07c8.12,7.97,19.23,12.89,31.48,12.89,3.59,0,6.5-2.91,6.5-6.5s-2.91-6.5-6.5-6.5Z"/><path class="cls-1" d="M365.61,476.79c-15.72,0-28.82-11.41-31.48-26.38v-11.91c6.5,5.42,14.85,8.68,23.95,8.68,3.59,0,6.5-2.91,6.5-6.5s-2.91-6.5-6.5-6.5c-11.79,0-21.66-8.39-23.95-19.51v-15.02c4.72,3.11,10.36,4.92,16.42,4.92,3.59,0,6.5-2.91,6.5-6.5s-2.91-6.5-6.5-6.5c-7.94,0-14.61-5.51-16.42-12.91v-4.01c0-3.86-3.14-7-7-7s-7,3.14-7,7v4.01c-1.81,7.4-8.47,12.91-16.42,12.91-3.59,0-6.5,2.91-6.5,6.5s2.91,6.5,6.5,6.5c6.06,0,11.7-1.82,16.42-4.92v15.02c-2.29,11.12-12.15,19.51-23.95,19.51-3.59,0-6.5,2.91-6.5,6.5s2.91,6.5,6.5,6.5c9.1,0,17.45-3.27,23.95-8.68v11.91c-2.65,14.97-15.75,26.38-31.48,26.38-3.59,0-6.5,2.91-6.5,6.5s2.91,6.5,6.5,6.5c12.25,0,23.36-4.92,31.48-12.89v38.07c0,3.86,3.14,7,7,7s7-3.14,7-7v-38.07c8.12,7.97,19.23,12.89,31.48,12.89,3.59,0,6.5-2.91,6.5-6.5s-2.91-6.5-6.5-6.5Z"/></g><g><path class="cls-1" d="M654.45,577.96l-33.06-33.06c-6.69-6.69-17.53-6.69-24.22,0l-20.95,20.95c-6.69,6.69-17.53,6.69-24.22,0l-20.95-20.95c-6.69-6.69-17.53-6.69-24.22,0l-20.95,20.95c-6.69,6.69-17.53,6.69-24.22,0l-20.95-20.95c-6.69-6.69-17.53-6.69-24.22,0l-20.95,20.95c-6.69,6.69-17.53,6.69-24.22,0l-20.95-20.95c-6.69-6.69-17.53-6.69-24.22,0l-20.95,20.95c-6.69,6.69-17.53,6.69-24.22,0l-20.95-20.95c-6.69-6.69-17.53-6.69-24.22,0l-20.95,20.95c-6.69,6.69-17.53,6.69-24.22,0l-20.95-20.95c-6.69-6.69-17.53-6.69-24.22,0l-33.06,33.06H654.45Z"/><path class="cls-1" d="M247.84,533.43H112.51v-38.08c4.32,.05,8.64,1.73,11.93,5.02l20.95,20.95c6.69,6.69,17.53,6.69,24.22,0l20.95-20.95c6.69-6.69,17.53-6.69,24.22,0l33.06,33.06Z"/><path class="cls-1" d="M654.33,495.41v38.08h-135.33l33.06-33.07c6.69-6.68,17.53-6.68,24.22,0l20.95,20.95c6.69,6.69,17.53,6.69,24.22,0l20.95-20.95c3.29-3.29,7.61-4.96,11.93-5.01Z"/></g></g></g></svg>