<?xml version="1.0" encoding="UTF-8"?><svg id="Day_9" xmlns="http://www.w3.org/2000/svg" xmlns:xlink="http://www.w3.org/1999/xlink" viewBox="0 0 768 768"><defs><style>.cls-1{fill:url(#linear-gradient-2);}.cls-2{fill:url(#linear-gradient-6);}.cls-3{fill:#2c171c;}.cls-4{fill:#c3dfc6;}.cls-5{fill:url(#linear-gradient-5);}.cls-6{fill:url(#linear-gradient-3);}.cls-7{fill:url(#linear-gradient);}.cls-8{fill:url(#linear-gradient-4);}</style><linearGradient id="linear-gradient" x1="236.9" y1="306.89" x2="311.53" y2="306.89" gradientUnits="userSpaceOnUse"><stop offset="0" stop-color="#4b83c4"/><stop offset=".08" stop-color="#5d91c4"/><stop offset=".27" stop-color="#82adc5"/><stop offset=".45" stop-color="#9ec3c6"/><stop offset=".64" stop-color="#b2d3c6"/><stop offset=".82" stop-color="#bedcc6"/><stop offset="1" stop-color="#c3e0c7"/></linearGradient><linearGradient id="linear-gradient-2" x1="456.47" y1="222.54" x2="531.1" y2="222.54" xlink:href="#linear-gradient"/><linearGradient id="linear-gradient-3" x1="456.47" y1="391.25" x2="531.1" y2="391.25" xlink:href="#linear-gradient"/><linearGradient id="linear-gradient-4" x1="346.68" y1="306.89" x2="421.32" y2="306.89" xlink:href="#linear-gradient"/><linearGradient id="linear-gradient-5" x1="346.68" y1="169.88" x2="421.32" y2="169.88" xlink:href="#linear-gradient"/><linearGradient id="linear-gradient-6" x1="346.68" y1="443.91" x2="421.32" y2="443.91" xlink:href="#linear-gradient"/></defs><rect class="cls-3" width="768" height="768"/><g><path class="cls-7" d="M274.21,458.25c-20.61,0-37.32-16.71-37.32-37.32V192.85c0-20.61,16.71-37.32,37.32-37.32s37.32,16.71,37.32,37.32v228.08c0,20.61-16.71,37.32-37.32,37.32Z"/><path class="cls-1" d="M493.79,289.54c-20.61,0-37.32-16.71-37.32-37.32v-59.37c0-20.61,16.71-37.32,37.32-37.32s37.32,16.71,37.32,37.32v59.37c0,20.61-16.71,37.32-37.32,37.32Z"/><path class="cls-6" d="M493.79,458.25c-20.61,0-37.32-16.71-37.32-37.32v-59.37c0-20.61,16.71-37.32,37.32-37.32s37.32,16.71,37.32,37.32v59.37c0,20.61-16.71,37.32-37.32,37.32Z"/><circle class="cls-8" cx="384" cy="306.89" r="37.32"/><path class="cls-5" d="M384,234.51c-20.61,0-37.32-16.71-37.32-37.32v-54.62c0-20.61,16.71-37.32,37.32-37.32s37.32,16.71,37.32,37.32v54.62c0,20.61-16.71,37.32-37.32,37.32Z"/><path class="cls-2" d="M384,508.53c-20.61,0-37.32-16.71-37.32-37.32v-54.62c0-20.61,16.71-37.32,37.32-37.32s37.32,16.71,37.32,37.32v54.62c0,20.61-16.71,37.32-37.32,37.32Z"/></g><g><path class="cls-4" d="M303.18,607.99c4.19,5.01,6.29,11.5,6.29,19.45,0,9.92-3.13,17.54-9.4,22.88-6.27,5.34-14.25,8.01-23.94,8.01h-45.11c-.87,0-1.63-.33-2.29-.98-.65-.65-.98-1.42-.98-2.29v-107.87c0-.87,.33-1.63,.98-2.29,.65-.65,1.41-.98,2.29-.98h43.97c8.72,0,15.69,2.51,20.92,7.52,5.23,5.01,7.85,11.77,7.85,20.27,0,6.1-1.53,11.63-4.58,16.59-3.05,4.96-7.3,8.36-12.75,10.21,6.97,1.31,12.56,4.47,16.75,9.48Zm-12.26-51.81c-3.98-3.81-9.56-5.72-16.75-5.72h-39.55v45.93h39.55c6.75-.11,12.23-2.31,16.43-6.62,4.19-4.3,6.29-10.38,6.29-18.22,0-6.43-1.99-11.55-5.96-15.36Zm4.17,89.48c5.01-4.09,7.52-10.16,7.52-18.22s-2.51-14.14-7.52-18.22c-5.01-4.09-11.6-6.13-19.78-6.13h-40.7v48.71h40.7c8.17,0,14.76-2.04,19.78-6.13Z"/><path class="cls-4" d="M397.57,639.62c.54,.6,.82,1.28,.82,2.04s-.22,1.42-.65,1.96c-3.6,4.8-8.07,8.72-13.4,11.77-5.34,3.05-11.06,4.58-17.16,4.58-8.17,0-15.42-1.74-21.74-5.23-6.32-3.49-11.25-8.44-14.79-14.87-3.54-6.43-5.31-13.89-5.31-22.39s1.72-16.37,5.15-22.96c3.43-6.59,7.98-11.63,13.65-15.12,5.67-3.49,11.71-5.23,18.14-5.23s12.39,1.39,17.9,4.17c5.5,2.78,10,6.95,13.48,12.5,3.49,5.56,5.34,12.42,5.56,20.59,0,.87-.33,1.66-.98,2.37-.65,.71-1.42,1.06-2.29,1.06h-64.23v2.12c0,6.76,1.36,12.94,4.09,18.55,2.72,5.61,6.75,10.05,12.09,13.32,5.34,3.27,11.77,4.9,19.29,4.9,5.23,0,10.16-1.28,14.79-3.84,4.63-2.56,8.25-5.8,10.87-9.72,.76-.98,1.69-1.47,2.78-1.47,.76,0,1.42,.3,1.96,.9Zm-47.64-55.73c-4.2,2.12-7.9,5.29-11.11,9.48-3.21,4.2-5.37,9.29-6.46,15.28h60.15v-1.47c-.55-5.56-2.32-10.32-5.31-14.3-3-3.98-6.7-7-11.11-9.07-4.41-2.07-9.02-3.11-13.81-3.11-4.03,0-8.15,1.06-12.34,3.19Z"/><path class="cls-4" d="M490.48,577.76c.6,.65,.9,1.42,.9,2.29v75.02c0,.87-.33,1.63-.98,2.29-.65,.65-1.42,.98-2.29,.98-.98,0-1.77-.33-2.37-.98-.6-.65-.9-1.42-.9-2.29v-14.71c-2.72,5.56-6.92,10.21-12.58,13.97-5.67,3.76-11.93,5.64-18.8,5.64s-13.68-1.88-19.45-5.64c-5.78-3.76-10.3-8.93-13.57-15.53-3.27-6.59-4.9-13.97-4.9-22.15s1.66-15.34,4.99-21.82c3.32-6.48,7.87-11.55,13.65-15.2,5.77-3.65,12.2-5.48,19.29-5.48s13.46,1.85,19.12,5.56c5.66,3.71,9.75,8.66,12.26,14.87v-14.55c0-.87,.3-1.63,.9-2.29,.6-.65,1.39-.98,2.37-.98s1.77,.33,2.37,.98Zm-20.43,71.18c4.85-3.21,8.63-7.65,11.36-13.32,2.72-5.66,4.09-11.98,4.09-18.96s-1.36-12.75-4.09-18.31c-2.72-5.56-6.51-9.94-11.36-13.16-4.85-3.21-10.27-4.82-16.26-4.82s-11.42,1.55-16.26,4.66c-4.85,3.11-8.64,7.41-11.36,12.91-2.72,5.5-4.09,11.74-4.09,18.71s1.36,13.29,4.09,18.96c2.72,5.67,6.48,10.11,11.28,13.32,4.79,3.22,10.24,4.82,16.34,4.82s11.41-1.61,16.26-4.82Z"/><path class="cls-4" d="M551.04,577.1c.65,.65,.98,1.36,.98,2.12,0,.87-.3,1.61-.9,2.21-.6,.6-1.33,.9-2.21,.9h-17.98v58.19c0,4.8,.84,7.98,2.53,9.56,1.69,1.58,3.84,2.37,6.46,2.37,.43,0,1.06-.11,1.88-.33,.82-.22,1.5-.33,2.04-.33,.76,0,1.41,.3,1.96,.9,.54,.6,.82,1.28,.82,2.04,0,.98-.65,1.83-1.96,2.53-1.31,.71-2.83,1.06-4.58,1.06-2.72,0-5.01-.19-6.86-.57-1.85-.38-3.79-1.85-5.8-4.41-2.02-2.56-3.02-6.73-3.02-12.5v-58.51h-13.4c-.76,0-1.47-.33-2.12-.98-.65-.65-.98-1.36-.98-2.12,0-.87,.3-1.61,.9-2.21,.6-.6,1.33-.9,2.21-.9h13.4v-20.76c0-.87,.33-1.63,.98-2.29,.65-.65,1.41-.98,2.29-.98,.98,0,1.77,.33,2.37,.98,.6,.65,.9,1.42,.9,2.29v20.76h17.98c.76,0,1.47,.33,2.12,.98Z"/></g></svg>