<?xml version="1.0" encoding="UTF-8"?><svg id="Layer_2" xmlns="http://www.w3.org/2000/svg" viewBox="0 0 768 768"><defs><style>.cls-1{fill:#e3ebd0;}.cls-2{fill:#0b4740;}.cls-3{fill:#c36c29;}</style></defs><g id="Day_13"><rect class="cls-1" width="768" height="768"/><g><g><path class="cls-2" d="M134.09,397.98c0-9.84,1.97-14.21,5.47-18.37,5.03-5.9,11.81-10.72,18.59-13.78,2.62-1.31,4.81-1.75,7.22-1.75s5.03,.44,7.22,1.09l22.74,6.56c2.41,.66,2.41,2.4,1.31,3.94l-7.87,12.03c-1.31,1.97-2.84,2.4-6.12,1.53l-13.78-3.94c-4.59-1.53-8.31,.22-10.5,1.97-2.62,2.19-4.81,5.25-4.81,10.5v72.6c0,5.47,.87,7.43,5.68,8.75l28.65,8.31c2.4,.66,2.4,2.4,1.31,3.94l-7.65,12.03c-.87,1.31-1.97,1.97-3.72,1.97-.87,0-2.41-.44-4.59-1.09l-26.9-7.65c-10.28-3.06-12.25-7.22-12.25-18.37v-80.26Z"/><path class="cls-2" d="M201.88,375.01c0-3.06,.44-5.03,3.5-6.12l11.15-4.15c1.31-.44,2.19-.66,2.84-.66,1.31,0,1.75,.66,1.75,2.41v110.87c0,4.59,1.53,5.9,6.34,5.9h29.96c3.5,0,4.37,1.53,3.72,4.59l-3.28,15.96h-43.74c-8.97,0-12.25-3.94-12.25-12.46v-116.34Z"/><path class="cls-2" d="M265.73,397.98c0-9.84,1.97-14.21,5.47-18.37,5.03-5.9,11.81-10.72,18.59-13.78,2.62-1.31,4.81-1.75,7.22-1.75s5.03,.44,7.22,1.09l22.74,6.56c2.41,.66,2.41,2.4,1.31,3.94l-7.87,12.03c-1.31,1.97-2.84,2.4-6.12,1.53l-13.78-3.94c-4.59-1.53-8.31,.22-10.5,1.97-2.62,2.19-4.81,5.25-4.81,10.5v18.15c0,4.59,1.31,5.9,6.12,5.9h19.46c4.81,0,5.9,1.31,5.9,5.69v14.43h-31.49v28.43c0,5.47,.87,7.43,5.68,8.75l28.65,8.31c2.4,.66,2.4,2.4,1.31,3.94l-7.65,12.03c-.87,1.31-1.97,1.97-3.72,1.97-.87,0-2.41-.44-4.59-1.09l-26.9-7.65c-10.28-3.06-12.25-7.22-12.25-18.37v-80.26Z"/><path class="cls-2" d="M388.19,503.82c-4.81,0-6.12-1.53-6.12-6.34v-47.24c0-4.59-1.31-5.9-6.34-5.9h-22.96v59.48h-13.12c-4.81,0-6.34-1.53-6.34-6.34v-99.5c0-9.84,1.97-14.21,5.47-18.37,5.03-5.9,11.81-10.72,18.59-13.78,2.62-1.31,4.81-1.75,7.22-1.75,2.62,0,5.03,.44,7.22,1.09l18.37,5.25c10.28,3.06,11.16,6.34,11.16,17.71v115.68h-13.12Zm-6.12-107.81c0-5.25-.66-7-5.25-8.31l-8.31-2.41c-5.25-1.53-9.18,0-11.81,2.84-2.62,2.41-3.94,5.25-3.94,9.84v20.34c0,4.59,1.31,5.9,6.12,5.9h23.18v-28.21Z"/><path class="cls-2" d="M417.71,374.8c0-3.06,.22-5.9,3.28-7l8.75-3.06c.87-.44,1.97-.66,2.41-.66,1.97,0,2.62,1.09,3.06,2.62l25.37,70.2c2.41,6.34,5.9,16.84,8.75,25.37-.44-8.97-.87-17.71-.87-25.37v-62.98c0-3.28,1.09-4.81,3.28-5.69l9.62-3.5c1.31-.44,2.19-.66,2.84-.66,1.31,0,1.97,.66,1.97,2.19v137.55h-11.81c-3.5,0-5.25-.44-6.78-4.15l-23.62-65.17c-3.5-9.4-7.22-19.46-9.84-27.99,.44,8.75,.66,17.49,.66,28.21v69.1h-10.93c-4.81,0-6.13-1.53-6.13-6.34v-122.68Z"/><path class="cls-2" d="M501.9,397.98c0-9.84,1.97-14.21,5.47-18.37,5.03-5.9,11.81-10.72,18.59-13.78,2.62-1.31,4.81-1.75,7.22-1.75s5.03,.44,7.22,1.09l22.74,6.56c2.4,.66,2.4,2.4,1.31,3.94l-7.87,12.03c-1.31,1.97-2.84,2.4-6.12,1.53l-13.78-3.94c-4.59-1.53-8.31,.22-10.5,1.97-2.63,2.19-4.81,5.25-4.81,10.5v18.15c0,4.59,1.31,5.9,6.12,5.9h19.46c4.81,0,5.9,1.31,5.9,5.69v14.43h-31.49v28.43c0,5.47,.88,7.43,5.69,8.75l28.65,8.31c2.41,.66,2.41,2.4,1.31,3.94l-7.66,12.03c-.87,1.31-1.97,1.97-3.72,1.97-.88,0-2.41-.44-4.59-1.09l-26.9-7.65c-10.28-3.06-12.25-7.22-12.25-18.37v-80.26Z"/><path class="cls-2" d="M571.44,373.92c0-5.9,2.63-8.31,7.87-8.31h34.11c16.62,0,26.02,6.56,26.02,26.02v79.82c0,9.84-1.75,14.21-5.47,18.37-5.03,5.9-11.59,10.72-18.59,13.78-2.62,1.31-4.59,1.75-7.22,1.75s-5.03-.44-7.22-1.09l-17.28-5.03c-10.28-3.06-12.25-7.22-12.25-18.37v-106.94Zm24.93,108.03l8.31,2.19c4.59,1.53,8.31-.22,10.72-1.97,2.41-2.19,4.81-5.25,4.81-10.5v-70.85c0-10.28-2.19-14.87-12.68-14.87h-10.72c-4.59,0-6.12,1.53-6.12,6.34v80.69c0,5.47,.88,7.65,5.69,8.97Z"/><path class="cls-2" d="M316.03,533.81c0-3.06,.44-5.03,3.5-6.12l11.15-4.15c1.31-.44,2.19-.66,2.84-.66,1.31,0,1.75,.66,1.75,2.41v107.37c0,5.47,.87,7.65,5.69,8.97l8.31,2.4c4.59,1.31,8.09,0,10.72-1.97,2.4-1.97,4.81-5.03,4.81-10.5v-97.75c0-3.06,.22-5.03,3.28-6.12l11.15-4.15c1.31-.44,2.19-.66,3.06-.66,1.31,0,1.75,.66,1.75,2.41v106.5c0,7.65,1.09,10.93,4.37,14.87l4.59,5.03-12.46,10.93c-1.53,1.09-2.62,1.53-3.5,1.53-1.31,0-1.97-.44-3.28-1.97l-4.81-5.9c-1.31-1.53-3.06-1.75-4.81-.22-2.84,2.41-4.81,3.94-7.43,5.9-2.19,1.31-4.59,2.19-7.44,2.19-2.62,0-5.47-.66-8.31-1.31l-12.68-3.72c-10.28-3.06-12.25-7.22-12.25-18.37v-106.94Z"/><path class="cls-2" d="M401.31,556.99c0-9.84,1.97-14.21,5.47-18.59,5.03-5.69,11.81-10.72,18.59-13.78,2.84-1.31,4.81-1.75,7.44-1.75,2.41,0,4.81,.44,7.22,1.09l17.71,5.03c10.28,3.06,12.25,7.22,12.25,18.59v25.15c0,20.77-12.9,29.96-30.61,29.96h-18.59v59.92h-13.12c-4.81,0-6.34-1.53-6.34-6.34v-99.28Zm35.43,26.02c10.5,0,14-4.81,14-14v-13.78c0-5.47-1.09-7.44-5.91-8.75l-8.53-2.41c-4.59-1.53-8.53,.22-10.72,2.19-2.63,1.97-4.81,5.03-4.81,10.5v20.34c0,4.59,1.31,5.9,6.12,5.9h9.84Z"/></g><g><g><path class="cls-3" d="M154.3,578.91h-16.33v8.03h15.08v3.33h-15.08v8.33h16.67v3.41h-20.49v-26.52h20.15v3.41Z"/><path class="cls-3" d="M179.94,577.92l-1.71,3.11c-2.76-1.55-6.29-2.5-9.13-2.5-3.14,0-5.72,1.17-5.72,3.94,0,1.67,.95,2.5,5.76,3.79l3.11,.83c5.23,1.4,8.41,2.92,8.41,7.35,0,5.34-4.55,7.96-10.72,7.96-4.21,0-8.6-1.21-11.82-3.41l1.78-2.92c3.07,1.86,7.05,2.92,10.34,2.92,3.52,0,6.36-1.21,6.36-4.36,0-2.23-1.48-2.95-5.38-3.94l-3.18-.8c-6.1-1.55-8.79-3.18-8.79-7.24,0-5.23,4.55-7.54,10.11-7.54,3.79,0,7.69,1.06,10.57,2.8Z"/><path class="cls-3" d="M205.27,578.91h-8.86v23.11h-3.83v-23.11h-8.86v-3.41h21.55v3.41Z"/><path class="cls-3" d="M232.68,594.89c0,3.56-2.2,7.12-9.09,7.12h-13.49v-26.52h12.61c5.45,0,8.67,2.24,8.67,6.63,0,3.07-1.7,5.11-4.62,6.02,4.4,.91,5.91,3.79,5.91,6.74Zm-18.75-8.07h7.73c3.6,0,5.76-1.36,5.76-4.02s-2.08-4.05-5.76-4.05h-7.73v8.07Zm14.77,7.58c0-2.23-1.44-4.39-6.02-4.39h-8.75v8.75h8.75c4.58,0,6.02-2.2,6.02-4.36Z"/></g><g><path class="cls-3" d="M567.54,598.61v3.41h-19.24v-2.95l11.44-9.92c2.5-2.2,3.33-3.52,3.33-5.45,0-2.42-2.12-4.28-5.15-4.28s-5.23,1.25-7.27,4.02l-2.58-2.16c2.42-3.6,5.83-5.38,9.85-5.38,5.34,0,9.05,3.26,9.05,7.61,0,2.88-1.13,4.89-5.49,8.68l-7.39,6.44h13.45Z"/><path class="cls-3" d="M594.24,589.14c0,8.14-4.51,13.26-11.63,13.26s-11.63-5.11-11.63-13.26,4.47-13.26,11.63-13.26,11.63,5.11,11.63,13.26Zm-19.36,0c0,6.02,2.95,9.73,7.73,9.73s7.73-3.75,7.73-9.73-2.95-9.74-7.73-9.74-7.73,3.71-7.73,9.74Z"/><path class="cls-3" d="M617.03,598.61v3.41h-19.24v-2.95l11.44-9.92c2.5-2.2,3.33-3.52,3.33-5.45,0-2.42-2.12-4.28-5.15-4.28s-5.23,1.25-7.27,4.02l-2.58-2.16c2.42-3.6,5.83-5.38,9.85-5.38,5.34,0,9.05,3.26,9.05,7.61,0,2.88-1.13,4.89-5.49,8.68l-7.39,6.44h13.45Z"/><path class="cls-3" d="M639.33,593.68c0,5.15-4.13,8.71-10.38,8.71-3.68,0-7.01-1.25-9.28-3.6l2.31-2.84c1.97,1.93,4.43,2.99,7.05,2.99,3.83,0,6.48-2.2,6.48-5.42,0-3.03-2.31-5.08-5.95-5.08-2.12,0-4.17,.76-5.87,2.24l-2.58-1.44,.49-12.99h16.29v3.41h-12.84l-.26,7.01c1.78-.87,3.56-1.25,5.45-1.25,5.42,0,9.09,3.41,9.09,8.26Z"/></g><g><path class="cls-3" d="M179.32,254.59l-1.1,5.89-16.54-3.09-4.58,24.51,16.54,3.09-1.1,5.89-37.71-7.04,1.1-5.89,16.27,3.04,4.58-24.51-16.27-3.04,1.1-5.89,37.71,7.04Z"/><path class="cls-3" d="M185.29,215.02l-8.87,20.41,6.76,7.67-2.6,5.99-27.97-31.84,3.15-7.24,42.38-1.31-2.6,5.99-10.24,.34Zm-5.25,.11l-20.88,.63,13.78,15.7,7.1-16.33Z"/><path class="cls-3" d="M205.54,198.79l-3.2,5.07-32.45-20.47,3.2-5.07,32.45,20.47Z"/><path class="cls-3" d="M230.23,167.25l-16.57-1.19c-.3,.44-.65,.85-1.04,1.3l-7.95,9.3,10.13,8.65-3.89,4.56-29.17-24.91,11.65-13.64c8.06-9.44,14.3-10.67,20.59-5.3,4.83,4.13,5.9,8.87,3.22,14.54l17.7,1.21-4.67,5.46Zm-29.3,6.21l7.94-9.3c5.05-5.91,5.43-9.65,1.31-13.17-4.17-3.56-7.8-2.6-12.85,3.32l-7.95,9.3,11.55,9.86Z"/><path class="cls-3" d="M249.43,110.66l-1.94,5.36c-4.2-.78-8.98,.2-12.85,3.17-6.97,5.36-8.4,14.61-3.49,20.99,4.91,6.39,14.22,7.39,21.19,2.04,3.86-2.97,5.91-7.31,6.3-11.68l5.75-.41c-.3,6.04-3.42,12.02-8.93,16.26-9.56,7.35-22.66,6.28-29.3-2.36-6.65-8.65-4.3-21.58,5.26-28.92,5.51-4.23,12.1-5.7,18.01-4.44Z"/><path class="cls-3" d="M300.44,101.21c4.74,10.18,1.4,18.88-9.09,23.77-10.49,4.89-19.38,1.84-24.1-8.3l-8.96-19.22,5.43-2.53,8.96,19.22c3.35,7.2,9.46,9.49,16.51,6.21,6.99-3.26,9.17-9.41,5.81-16.62l-8.95-19.22,5.43-2.53,8.96,19.22Z"/><path class="cls-3" d="M338.29,74.61l-13.5,3.24,7.78,32.49-5.83,1.4-7.78-32.49-13.5,3.24-1.15-4.79,32.84-7.88,1.15,4.79Z"/><path class="cls-3" d="M381.15,70.01l-2.43,4.63c-4.45-2.01-10.04-3.08-14.48-2.84-4.92,.26-8.86,2.18-8.65,6.17,.13,2.41,1.68,3.53,9.31,4.99l4.93,.94c8.29,1.58,13.39,3.5,13.73,9.91,.42,7.72-6.49,11.87-16.16,12.39-6.58,.35-13.55-1.03-18.76-3.93l2.56-4.36c4.95,2.42,11.25,3.62,16.41,3.34,5.51-.3,9.87-2.29,9.62-6.83-.17-3.23-2.54-4.14-8.73-5.24l-5.04-.88c-9.67-1.73-14-3.86-14.32-9.71-.41-7.55,6.53-11.27,15.24-11.74,5.93-.32,12.12,.88,16.76,3.16Z"/><path class="cls-3" d="M435.03,87.25s.77,1.63,.41,4.68c-.4,3.48-2.21,7.19-5.23,10.04,3.69,3.79,7.32,6.47,9.79,6.76l-.3,2.61c-3.3-.38-7.75-3.27-12.11-7.42-3.29,2.05-7.54,3.16-12.72,2.55-7.78-.9-12.27-5.01-11.53-11.37,.67-5.77,5.1-8.46,9.98-10.37-1.52-3.38-2.29-6.55-2-9.06,.52-4.52,4.85-8.32,11.92-7.5,6.54,.76,8.84,4.66,8.44,8.15-.63,5.39-7.34,7.09-13.56,9.3,2.5,4.7,6.26,9.94,10.07,14.18,1.91-2.04,3.13-4.82,3.5-8.04,.36-3.1-.27-4.94-.27-4.94l3.6,.42Zm-9.42,14.8c-4.33-4.42-8.36-9.85-11.05-14.96-3.65,1.62-6.54,3.82-6.99,7.69-.6,5.17,3.56,8.47,9.16,9.11,3.42,.4,6.43-.3,8.88-1.84Zm-8.6-18.65c5.28-1.71,10.17-3.18,10.61-6.99,.27-2.34-1.09-5.04-5.28-5.52-4.42-.51-6.87,2.02-7.2,4.85-.22,1.96,.47,4.69,1.86,7.66Z"/><path class="cls-3" d="M499.13,93l-4.13,3.21c-3.22-3.67-7.86-6.96-12.01-8.58-4.59-1.8-8.97-1.69-10.43,2.04-.88,2.24,.06,3.91,6.4,8.39l4.09,2.9c6.89,4.87,10.73,8.73,8.39,14.7-2.82,7.19-10.83,8.11-19.84,4.59-6.14-2.4-11.91-6.55-15.45-11.34l4.14-2.91c3.5,4.25,8.74,7.95,13.55,9.84,5.14,2.01,9.93,2,11.59-2.23,1.18-3.01-.6-4.82-5.77-8.38l-4.22-2.89c-8.08-5.58-11.15-9.31-9.01-14.76,2.76-7.04,10.61-7.55,18.74-4.37,5.53,2.16,10.66,5.82,13.95,9.81Z"/><path class="cls-3" d="M524.5,149.28l-5.01-3.3,9.25-14.05-20.83-13.72-9.25,14.05-5.01-3.3,21.09-32.03,5.01,3.3-9.1,13.82,20.83,13.72,9.1-13.82,5.01,3.3-21.09,32.03Z"/><path class="cls-3" d="M558.7,170.07l-15.42-16.05-9.68,3.29-4.52-4.71,40.14-13.56,5.47,5.69-15.11,39.63-4.52-4.71,3.63-9.58Zm1.92-4.89l7.46-19.52-19.79,6.67,12.33,12.84Z"/><path class="cls-3" d="M614,199.15l-41.81,5.57-4.17-6.63,23.16-35.21,3.48,5.53-19.82,30.02,35.69-4.8,3.48,5.53Z"/><path class="cls-3" d="M625.9,242.97l-8.98-23.97-10.88,4.07,8.29,22.13-4.52,1.69-8.29-22.13-11.29,4.23,9.17,24.47-4.62,1.73-11.27-30.08,35.93-13.46,11.09,29.58-4.62,1.73Z"/><path class="cls-3" d="M635.78,286.71l-4.87-1.89c1.49-4.65,1.93-10.32,1.19-14.71-.82-4.86-3.16-8.56-7.11-7.9-2.38,.4-3.32,2.06-3.91,9.81l-.38,5c-.64,8.42-1.97,13.7-8.29,14.76-7.62,1.28-12.53-5.12-14.14-14.66-1.09-6.5-.51-13.58,1.79-19.09l4.62,2.05c-1.85,5.19-2.33,11.59-1.47,16.69,.91,5.45,3.38,9.55,7.87,8.79,3.19-.54,3.83-2.99,4.22-9.26l.31-5.11c.63-9.8,2.25-14.35,8.04-15.32,7.46-1.25,11.93,5.22,13.38,13.83,.98,5.86,.49,12.14-1.25,17.01Z"/></g><g><path class="cls-3" d="M379.44,144.52c-49.68,0-90.1,40.42-90.1,90.1,0,45.8,34.35,83.73,78.65,89.37l-2.67-45.99c-.14-2.36,.54-4.68,1.83-6.67,1.9-2.93,3.01-6.44,3.01-10.2,0-1.84-.27-3.62-.76-5.3-1.05-3.57-3.13-6.7-5.89-9.03-3.27-2.77-7.49-4.43-12.11-4.43-15.85,0-28.63-13.17-28.01-29.16,0-.05,.01-.11,.01-.16-1.01-10.14-10.87-12.54-11.32-12.64-1.59-.37-2.58-1.95-2.22-3.54,.37-1.59,1.95-2.58,3.54-2.22,3.48,.8,8.82,3.38,12.36,8.35,4.24-9.5,13.63-16.27,24.53-16.68,13.54-.51,25.03,8.57,28.24,20.98v65.86c-1.81,.4-3.16,2.02-3.16,3.94s1.35,3.54,3.16,3.94v43.64c.3,0,.6,.01,.9,.01s.58,0,.87-.01v-43.64c1.81-.4,3.16-2.02,3.16-3.94s-1.35-3.54-3.16-3.94v-65.86c3.2-12.41,14.7-21.49,28.24-20.98,14.52,.55,26.35,12.37,26.92,26.89,.63,15.99-12.15,29.16-28,29.16-4.62,0-8.84,1.67-12.11,4.43-2.77,2.33-4.85,5.46-5.89,9.03-.5,1.68-.76,3.46-.76,5.3,0,3.76,1.11,7.26,3.01,10.2,1.29,1.99,1.97,4.3,1.83,6.67l-2.67,45.99c44.31-5.63,78.67-43.57,78.67-89.38,0-49.68-40.42-90.1-90.1-90.1Z"/><path class="cls-3" d="M332.49,214.35c0,10.44,8.46,18.9,18.9,18.9s18.91-8.46,18.91-18.9-8.46-18.91-18.91-18.91-18.9,8.46-18.9,18.91Z"/><path class="cls-3" d="M407.46,233.25c10.44,0,18.9-8.46,18.9-18.9s-8.46-18.91-18.9-18.91-18.91,8.46-18.91,18.91,8.46,18.9,18.91,18.9Z"/></g></g></g></g></svg>