<?xml version="1.0" encoding="UTF-8"?><svg id="Layer_2" xmlns="http://www.w3.org/2000/svg" viewBox="0 0 768 768"><defs><style>.cls-1{font-family:InkFree, 'Ink Free';font-size:125.97px;stroke:#5f7962;stroke-miterlimit:10;}.cls-1,.cls-2{fill:#5f7962;}.cls-3{fill:#e4dad8;}</style></defs><g id="Day_6"><rect class="cls-3" width="768" height="768"/><text class="cls-1" transform="translate(185.91 626.28)"><tspan x="0" y="0">TAZZA</tspan></text><path class="cls-2" d="M550.81,199.51c-12.84-17.53-29.52-35.03-50.47-52.49-22.09-18.41-50.21-29.22-79.62-30.42-.27-.01-.54-.02-.8-.03-17.13-.64-34.23,2.02-50.28,7.72-41.31,14.68-80.54,31.84-118.01,51.08-32.71,16.8-54.76,47.64-59.31,82.59-5.94,45.72-8.3,86.3-4.67,118.29,3.45,30.38,20.17,58.03,46.11,76.24,16.8,11.79,29.73,20.32,40.17,26.75,6.14,3.78,12.52,7.14,19.08,10.1,12.65-31.02,32.04-59.38,56.18-85.8,21.67-24.22,45.65-46.28,66.26-71.26,20.66-24.67,35.85-54.54,35.58-87.43,6.96,69.35-55.04,117.19-95.89,164.02-24.22,26.46-43.26,53.34-56.58,82.85,20.9,8.55,43.54,12.95,66.49,12.56,31.59-.55,69.3-6.54,117.22-21.63,38.4-12.09,67.91-41.59,78.52-78.53,7.13-24.84,13.41-51.58,18.68-80.57,7.88-43.31-2.21-87.92-28.66-124.05ZM235.97,349.74c56.64-60.54,72.3,20.62,128,25.21-67.19,43.31-118.46,5.83-128-25.21Zm55.88-126.58c87.3,10.3,50.11,87.49,81.84,138.69-99.69-13.14-69.2-115.97-81.84-138.69Zm109.54,80.69c-10.32,.38-17.8-5.27-18.07-12.57-.27-7.3,6.76-13.5,17.09-13.88,10.32-.38,20.09,6.96,20.3,12.49,.21,5.69-9,13.58-19.32,13.96Zm18.96-26.55c-4.66,1.75-13.74-3.7-16.91-12.15-3.17-8.45-.55-16.2,5.42-18.45,5.98-2.24,13.05,1.87,16.23,10.32,3.17,8.45-.21,18.58-4.74,20.28Zm30.02-40.16c-48.38-23.16-36.66-50.38-34.62-91.11,26.22,20.36,38.52,54.5,34.62,91.11Zm-69.71,156.16c50.18,19.92,34.58,59.58,39.62,77.6-12.37,1.88-64.86-30.76-39.62-77.6Zm62.76-1.74c-1.82,9.94-8.18,15.99-14.44,14.84-6.26-1.15-10.06-9.06-8.24-19,1.82-9.94,10.09-17.86,14.84-17,4.88,.89,9.67,11.21,7.84,21.15Zm.42-56.8c5.3-8.12,13.67-10.8,19.4-7.06,5.73,3.74,6.66,12.48,1.36,20.6-5.3,8.12-16.21,11.65-20.55,8.81-4.47-2.91-5.51-14.23-.21-22.36Zm39,49.92c-2.68,5.77-12.02,7.13-22.21,2.4-10.19-4.73-16.73-15.17-14.7-19.54,2.09-4.5,14.22-6.11,24.41-1.37,10.19,4.73,15.17,12.74,12.49,18.52Zm-28.66-89.66c26.22-23.21,35.77-45.99,62.91-64.52,4.13,61.45-43.41,82.36-62.91,64.52Z"/></g></svg>