<?xml version="1.0" encoding="UTF-8"?><svg id="Day_19" xmlns="http://www.w3.org/2000/svg" viewBox="0 0 768 768"><defs><style>.cls-1{fill:#e0f8fb;}.cls-2{fill:#e56f35;}.cls-3{fill:#eae6f0;}</style></defs><rect class="cls-1" x="0" width="768" height="768"/><g id="Expanded"><g><path class="cls-2" d="M580.9,316.88c-2.82-2.53-6.77,1.29-4.36,4.21,13.53,16.38,21.66,37.4,21.66,60.29,0,52.28-42.3,94.64-94.55,94.78h-.24c-9.4,0-18.48-1.36-27.04-3.92-32.06-9.51-57.01-35.53-65.02-68.22-.95-3.87-1.67-7.85-2.11-11.91-.06-.73-.14-1.47-.23-2.19-1.39-12.78-4.9-24.92-10.13-36.1-17.8-38-55.71-64.7-100.01-66.41-.92-.03-1.84-.06-2.76-.06h-.26c-.29,0-.58,0-.86-.02-19.21-.46-34.64-16.17-34.64-35.5s14.33-33.89,32.58-35.38c37.92-3.26,45.48-38.24,46.94-49.42,.23-1.82-1.18-3.43-3.02-3.43h-104.87c-29.31,0-53.08,23.76-53.08,53.08v124.52c0,10.59,.92,20.96,2.73,31.02,.23,1.28-.38,2.54-1.51,3.18-6.37,3.65-12.21,8.49-17.17,14.49-15.16,18.36-18.08,42.79-9.72,63.41,.84,2.08,3.64,2.46,5.07,.73l31.99-38.73c1.41-1.71,4.14-1.38,5.07,.63,3.52,7.56,7.54,14.84,12.05,21.78,8.93,13.81,19.75,26.27,32.06,37.08,1.85,1.61,1.12,4.59-1.26,5.2-21.6,5.59-40.66,17.54-55.07,33.73-1.76,1.96-.4,5.07,2.24,5.07h168.09s-.03-.03-.03-.05c1.01,.03,2.04,.05,3.06,.05h145.54c63.9,0,116.93-51.09,117.33-114.99,.23-34.54-14.68-65.58-38.47-86.94Zm-381.61-58.36c.14,.12,.29,.23,.43,.34h-.61c.06-.11,.12-.23,.18-.34Z"/><g><path class="cls-2" d="M245.54,97.18l-67.34,81.53c-1.44,1.75-4.27,1.36-5.12-.74-8.43-20.8-5.48-45.45,9.81-63.97,15.28-18.51,38.93-26.06,60.95-21.71,2.23,.44,3.14,3.14,1.7,4.89Z"/><path class="cls-2" d="M178.78,94.43l.03,82.18c0,2.39-2.59,3.9-4.67,2.71-15.17-8.7-25.4-25.05-25.41-43.8,0-18.73,10.21-35.09,25.38-43.8,2.07-1.19,4.67,.32,4.67,2.71Z"/></g></g><g><circle class="cls-2" cx="260.31" cy="191.75" r="11.94"/><path class="cls-3" d="M260.31,205.22c-7.42,0-13.47-6.04-13.47-13.47s6.04-13.47,13.47-13.47,13.47,6.04,13.47,13.47-6.04,13.47-13.47,13.47Zm0-23.87c-5.74,0-10.4,4.67-10.4,10.4s4.67,10.4,10.4,10.4,10.4-4.67,10.4-10.4-4.67-10.4-10.4-10.4Z"/></g></g><g><path class="cls-2" d="M229.66,556.57v89.52h-15.86v-37.85h-51.67v37.85h-15.86v-89.52h15.86v36.83h51.67v-36.83h15.86Z"/><path class="cls-2" d="M326.85,631.25v14.83h-71.1v-89.52h69.95v14.83h-54.1v22h51.92v14.83h-51.92v23.02h55.25Z"/><path class="cls-2" d="M409.21,624.34h-45.01l-9.34,21.74h-17.14l39.9-89.52h18.42l39.77,89.52h-17.26l-9.34-21.74Zm-6.39-14.83l-16.11-37.73-16.11,37.73h32.23Z"/><path class="cls-2" d="M527.5,586.87c0,18.03-13.68,30.31-36.32,30.31h-22.38v28.9h-15.86v-89.52h38.24c22.64,0,36.32,12.4,36.32,30.31Zm-16.62,0c0-9.72-7.03-15.35-19.82-15.35h-22.25v30.69h22.25c12.79,0,19.82-5.5,19.82-15.35Z"/><path class="cls-2" d="M541.19,636.24l7.8-13.43c8.57,6.01,22,10.1,33.63,10.1,12.53,0,21.23-4.09,21.23-11.89,0-8.44-10.74-9.59-22.51-11.77-28.26-5.63-37.34-11.25-37.34-25.7,0-22.38,21.87-28.65,40.03-28.65,13.04,0,24.55,3.2,34.53,8.82l-7.67,13.3c-8.95-4.99-18.03-7.29-27.75-7.29-14.83,0-22.12,4.86-22.12,12.4,0,6.39,4.86,8.95,22.89,11.77,12.79,2.05,37.09,5.5,37.09,26.34,0,16.5-15.35,27.5-38.75,27.5-17.14,0-33.76-6.65-41.05-11.51Z"/></g></svg>