<?xml version="1.0" encoding="UTF-8"?><svg id="Day_26" xmlns="http://www.w3.org/2000/svg" viewBox="0 0 768 768"><defs><style>.cls-1{fill:#fff;}.cls-2{fill:#54d3d6;}.cls-3{fill:#2a6a6b;}</style></defs><rect class="cls-3" x="0" width="768" height="768"/><path class="cls-1" d="M332.79,302.27c73.31-40.41,153.39-82.91,227.41-122.08-58.94,49.68-124.86,105.19-184.14,154.43,0,0,.71-11.97,.71-11.97,34.73,35.25,104.54,106.48,139.13,141.87,0,0-15.86,4.16-15.86,4.16,0,0,20.64-80.11,20.64-80.11,10.27-39.93,31.26-120.24,41.65-160.13,0,0,21.04-80.01,21.04-80.01,0,0,11.97,12.13,11.97,12.13-131,32.24-287.32,69.76-418.67,100.51,0,0,.77-12.9,.77-12.9,34.88,13.63,104.75,41.18,139.55,54.96,0,0,2.61,1.03,2.61,1.03l.36,2.62c5.03,34.86,11.95,86.4,16.65,120.89,0,0-3.44-1.26-3.44-1.26,16.31-13.34,34.33-27.95,50.84-41.19,0,0-11.98,11.14-11.98,11.14-12.58,11.59-26.25,24.28-38.86,35.74,0,0-.69-3.77-.69-3.77-6.47-34.05-15.48-85.54-21.76-120.07,0,0,2.97,3.65,2.97,3.65l-70.54-25.45c-13.98-5.11-77.86-28.28-90.86-33.02,0,0,21.14-5.5,21.14-5.5,136.52-35.71,296.5-76.52,433.35-110.66-27.61,106.27-60.2,230.03-88.52,336.18,0,0-4.31,16.21-4.31,16.21-5.22-5.38-72.94-76.2-80.27-83.8,0,0-68.59-71.88-68.59-71.88,0,0-6.19-6.49-6.19-6.49,35.6-28.38,82.05-65.22,117.84-93.43,0,0,37.09-29.18,37.09-29.18l5.95,9.17c-59.71,28.65-126.81,60.54-186.98,88.22h0Z"/><g><path class="cls-1" d="M158.58,563.16c0,3.83,.73,7.15,2.19,9.96,1.46,2.81,3.64,4.97,6.53,6.47,2.89,1.5,6.43,2.25,10.64,2.25s7.84-.75,10.69-2.25c2.85-1.5,4.99-3.66,6.42-6.47,1.42-2.81,2.14-6.13,2.14-9.96v-46.72h23.42v47.84c0,7.73-1.78,14.47-5.35,20.21-3.57,5.74-8.54,10.21-14.92,13.4-6.38,3.19-13.85,4.78-22.4,4.78s-15.93-1.59-22.34-4.78c-6.42-3.19-11.41-7.65-14.97-13.4-3.57-5.74-5.35-12.48-5.35-20.21v-47.84h23.3v46.72Z"/><path class="cls-1" d="M232.65,536.59h23.08v18.46l-1.01,2.7v18.01l1.01,5.29v38.39h-23.08v-82.85Zm15.76,32.2c.97-6.98,3.02-13,6.14-18.07,3.11-5.07,7.07-9.01,11.88-11.82,4.8-2.81,10.24-4.22,16.32-4.22s11.84,1.43,16.6,4.28c4.76,2.85,8.48,6.83,11.14,11.93,2.66,5.1,4,11.07,4,17.9s-1.33,12.59-4,17.73c-2.67,5.14-6.38,9.12-11.14,11.93-4.77,2.81-10.3,4.22-16.6,4.22s-11.52-1.41-16.32-4.22c-4.8-2.81-8.74-6.77-11.82-11.88-3.08-5.1-5.14-11.03-6.19-17.79Zm42.89,0c0-3.23-.66-6.08-1.97-8.55-1.31-2.48-3.15-4.43-5.52-5.85-2.36-1.42-5.05-2.14-8.05-2.14s-6,.71-8.78,2.14c-2.78,1.43-5.22,3.38-7.32,5.85-2.1,2.48-3.71,5.33-4.84,8.55,1.12,3.15,2.74,5.97,4.84,8.44,2.1,2.48,4.54,4.41,7.32,5.8,2.78,1.39,5.7,2.08,8.78,2.08s5.69-.69,8.05-2.08c2.36-1.39,4.2-3.32,5.52-5.8,1.31-2.48,1.97-5.29,1.97-8.44Z"/><path class="cls-2" d="M307.06,516.44h87.81v20.71h-87.81v-20.71Zm32.2,10.24h23.42v74.18h-23.42v-74.18Z"/><path class="cls-2" d="M426.5,602.67c-8.26,0-15.46-1.41-21.61-4.22-6.15-2.81-10.96-6.79-14.41-11.93-3.45-5.14-5.18-11.05-5.18-17.73s1.73-12.79,5.18-17.9c3.45-5.1,8.25-9.08,14.41-11.93,6.15-2.85,13.36-4.28,21.61-4.28s15.37,1.43,21.56,4.28c6.19,2.85,11.01,6.83,14.46,11.93,3.45,5.1,5.18,11.03,5.18,17.79s-1.73,12.7-5.18,17.84c-3.45,5.14-8.27,9.12-14.46,11.93-6.19,2.81-13.38,4.22-21.56,4.22Zm0-17c3.75,0,6.96-.67,9.62-2.03,2.66-1.35,4.71-3.28,6.13-5.8,1.42-2.51,2.14-5.53,2.14-9.06s-.71-6.66-2.14-9.17c-1.43-2.51-3.47-4.45-6.13-5.8-2.67-1.35-5.87-2.03-9.62-2.03s-6.98,.68-9.68,2.03c-2.7,1.35-4.77,3.28-6.19,5.8-1.43,2.51-2.14,5.54-2.14,9.06s.71,6.57,2.14,9.12c1.42,2.55,3.49,4.5,6.19,5.85,2.7,1.35,5.93,2.03,9.68,2.03Z"/><path class="cls-2" d="M551.9,579.93c0,4.95-1.5,9.12-4.5,12.5-3,3.38-7.28,5.93-12.83,7.65-5.55,1.73-12.23,2.59-20.04,2.59s-15.07-.98-21.11-2.93c-6.04-1.95-10.75-4.69-14.13-8.22-3.38-3.53-5.18-7.62-5.4-12.27h23.3c.52,1.73,1.56,3.21,3.1,4.45,1.54,1.24,3.58,2.18,6.14,2.81,2.55,.64,5.59,.96,9.12,.96,4.58,0,8.05-.45,10.41-1.35,2.36-.9,3.55-2.25,3.55-4.05,0-1.42-.9-2.49-2.7-3.21-1.8-.71-4.88-1.26-9.23-1.63l-11.37-.9c-7.58-.52-13.6-1.67-18.07-3.43-4.47-1.76-7.67-4.05-9.62-6.87-1.95-2.81-2.93-6.02-2.93-9.62,0-4.88,1.52-8.91,4.56-12.1,3.04-3.19,7.28-5.59,12.72-7.21,5.44-1.61,11.8-2.42,19.08-2.42s13.62,.94,19.25,2.81c5.63,1.88,10.13,4.48,13.51,7.82,3.38,3.34,5.33,7.26,5.85,11.76h-23.3c-.38-1.42-1.2-2.72-2.48-3.88-1.28-1.16-3.04-2.12-5.29-2.87-2.25-.75-5.14-1.13-8.67-1.13-4.13,0-7.26,.45-9.4,1.35s-3.21,2.18-3.21,3.83c0,1.28,.66,2.29,1.97,3.04,1.31,.75,3.77,1.28,7.37,1.58l14.97,1.12c7.43,.45,13.28,1.52,17.56,3.21,4.28,1.69,7.32,3.92,9.12,6.7,1.8,2.78,2.7,6.08,2.7,9.91Z"/><path class="cls-2" d="M636.1,579.93c0,4.95-1.5,9.12-4.5,12.5-3,3.38-7.28,5.93-12.83,7.65-5.55,1.73-12.23,2.59-20.04,2.59s-15.07-.98-21.11-2.93c-6.04-1.95-10.75-4.69-14.13-8.22-3.38-3.53-5.18-7.62-5.4-12.27h23.3c.52,1.73,1.56,3.21,3.1,4.45,1.54,1.24,3.58,2.18,6.14,2.81,2.55,.64,5.59,.96,9.12,.96,4.58,0,8.05-.45,10.41-1.35,2.36-.9,3.55-2.25,3.55-4.05,0-1.42-.9-2.49-2.7-3.21-1.8-.71-4.88-1.26-9.23-1.63l-11.37-.9c-7.58-.52-13.6-1.67-18.07-3.43-4.47-1.76-7.67-4.05-9.62-6.87-1.95-2.81-2.93-6.02-2.93-9.62,0-4.88,1.52-8.91,4.56-12.1,3.04-3.19,7.28-5.59,12.72-7.21,5.44-1.61,11.8-2.42,19.08-2.42s13.62,.94,19.25,2.81c5.63,1.88,10.13,4.48,13.51,7.82,3.38,3.34,5.33,7.26,5.85,11.76h-23.3c-.38-1.42-1.2-2.72-2.48-3.88-1.28-1.16-3.04-2.12-5.29-2.87-2.25-.75-5.14-1.13-8.67-1.13-4.13,0-7.26,.45-9.4,1.35s-3.21,2.18-3.21,3.83c0,1.28,.66,2.29,1.97,3.04,1.31,.75,3.77,1.28,7.37,1.58l14.97,1.12c7.43,.45,13.28,1.52,17.56,3.21,4.28,1.69,7.32,3.92,9.12,6.7,1.8,2.78,2.7,6.08,2.7,9.91Z"/></g></svg>