<?xml version="1.0" encoding="UTF-8"?><svg id="Layer_2" xmlns="http://www.w3.org/2000/svg" viewBox="0 0 768 768"><defs><style>.cls-1{fill:#eff8f8;}.cls-2{fill:#224645;}.cls-3{fill:#addddc;}</style></defs><g id="Day_8"><rect class="cls-2" width="768" height="768"/><g><g><polygon class="cls-3" points="283.93 447.88 384 349.01 484.07 447.88 543.25 464.8 579.73 475.22 384 281.83 188.27 475.22 224.75 464.8 283.93 447.88"/><polygon class="cls-3" points="443.76 475.22 432.62 472.04 414.43 466.84 384 458.14 353.57 466.84 335.38 472.04 324.24 475.22 384 416.17 443.76 475.22"/><g><path class="cls-3" d="M252.66,362.22c0-8.75,.86-17.3,2.5-25.57l-97.16,25.57,97.16,25.57c-1.63-8.27-2.5-16.82-2.5-25.57Z"/><path class="cls-3" d="M284.34,276.67l-96.07-27.45,71.79,69.45c5.46-15.54,13.76-29.75,24.28-42Z"/><path class="cls-3" d="M610,362.22l-97.16-25.57c1.63,8.27,2.5,16.82,2.5,25.57s-.86,17.3-2.5,25.57l97.16-25.57Z"/><path class="cls-3" d="M507.94,318.66l71.79-69.45-96.07,27.45c10.52,12.25,18.82,26.45,24.28,42Z"/><path class="cls-3" d="M469.55,262.56l27.45-96.07-69.45,71.79c15.54,5.46,29.75,13.76,42,24.28Z"/><path class="cls-3" d="M340.45,238.28l-69.45-71.79,27.45,96.07c12.25-10.52,26.45-18.82,42-24.28Z"/><path class="cls-3" d="M384,230.87c8.75,0,17.3,.86,25.57,2.5l-25.57-97.16-25.57,97.16c8.27-1.63,16.82-2.5,25.57-2.5Z"/></g></g><g><path class="cls-1" d="M91.11,596.2c-.31,.04-.46-.13-.46-.52,.08-26.6,.15-53.19,.23-79.79,0-.31,.15-.49,.46-.53,5.64-.8,8.46-1.19,14.1-1.95,.31-.04,.58,.08,.81,.36,4.21,5.56,6.31,8.35,10.52,13.93,4.21-6.67,6.32-10.01,10.53-16.66,.23-.34,.5-.53,.81-.56,5.69-.71,8.54-1.05,14.24-1.71,.31-.04,.46,.1,.46,.41,.08,26.58,.15,53.15,.23,79.73,0,.39-.15,.6-.46,.63-5.23,.61-7.85,.93-13.08,1.57-.31,.04-.46-.14-.46-.52-.04-19.73-.08-39.46-.12-59.19-4.86,7.66-7.29,11.49-12.15,19.18-4.81-6.44-7.22-9.65-12.02-16.05-.04,19.74-.08,39.48-.12,59.22,0,.39-.16,.6-.46,.64-5.22,.71-7.84,1.07-13.06,1.81Z"/><path class="cls-1" d="M174.2,587.25c-4.17,.42-7.98-.24-11.42-2-3.44-1.76-6.2-4.28-8.28-7.57-2.08-3.29-3.13-7.06-3.13-11.32,.04-12.27,.08-24.54,.12-36.81,0-4.26,1.02-8.24,3.07-11.95,2.05-3.71,4.81-6.8,8.28-9.26,3.48-2.46,7.26-3.9,11.36-4.32,4.17-.42,7.96,.25,11.36,2.01,3.4,1.76,6.13,4.3,8.18,7.59,2.05,3.29,3.07,7.07,3.07,11.33,.04,12.26,.08,24.53,.12,36.79,0,4.26-1.03,8.24-3.08,11.95-2.05,3.71-4.8,6.79-8.24,9.25-3.44,2.46-7.25,3.9-11.42,4.32Zm0-14.05c2.32-.23,4.35-1.38,6.09-3.45,1.74-2.07,2.61-4.3,2.61-6.7-.04-12.26-.08-24.53-.12-36.79,0-2.55-.81-4.64-2.44-6.26-1.62-1.62-3.67-2.31-6.14-2.06-2.4,.24-4.45,1.33-6.14,3.24-1.7,1.92-2.55,4.2-2.55,6.83,0,12.27,0,24.53,0,36.8,0,2.55,.85,4.65,2.55,6.29,1.7,1.64,3.75,2.34,6.14,2.1Z"/><path class="cls-1" d="M227.81,582.52c-4.1,.31-7.9-.46-11.38-2.3-3.48-1.85-6.25-4.46-8.3-7.85-2.05-3.38-3.08-7.2-3.08-11.46,.08-19.35,.15-38.71,.23-58.06,0-.31,.15-.48,.46-.5,5.2-.45,7.8-.66,13-1.08,.31-.02,.46,.12,.46,.43v58.04c0,2.63,.83,4.79,2.5,6.48,1.66,1.69,3.7,2.44,6.1,2.26,2.48-.19,4.55-1.25,6.21-3.19,1.66-1.94,2.5-4.22,2.5-6.85v-58.04c0-.31,.15-.48,.47-.5,5.2-.37,7.81-.54,13.01-.88,.31-.02,.46,.13,.46,.43,.08,19.34,.16,38.69,.23,58.03,0,4.34-1.03,8.35-3.08,12.04-2.05,3.7-4.8,6.7-8.25,9.03-3.45,2.33-7.3,3.65-11.56,3.97Z"/><path class="cls-1" d="M260.92,579.13c-.62,.04-.93-.22-.93-.76-.04-26.35-.08-52.7-.12-79.05,0-.62,.31-.95,.93-.98,4.18-.25,6.28-.37,10.46-.59,6.56,14.92,13.11,29.84,19.65,44.77-.19-14.93-.39-29.86-.58-44.78,0-.62,.35-.94,1.05-.98,4.61-.21,6.91-.3,11.51-.48,.46-.02,.7,.28,.7,.9,.04,26.39,.08,52.78,.12,79.17,0,.46-.19,.7-.58,.72-4.09,.16-6.14,.24-10.23,.42-6.7-13.92-13.4-27.83-20.12-41.74,.27,13.92,.54,27.83,.81,41.75,0,.62-.35,.95-1.05,.98-4.65,.25-6.98,.38-11.62,.66Z"/><path class="cls-1" d="M325.47,576.31c-.31,0-.47-.18-.47-.57v-66.17c-6.05,.17-9.07,.27-15.12,.49-.39,.01-.58-.17-.58-.56,.05-5.2,.07-7.8,.12-13.01,0-.31,.15-.47,.46-.48,14.74-.48,29.47-.85,44.21-1.11,.39,0,.58,.15,.58,.46v13c0,.39-.16,.58-.47,.59-6.1,.09-9.15,.14-15.24,.28,.04,22.06,.08,44.11,.12,66.17,0,.39-.16,.58-.46,.59-5.26,.11-7.89,.18-13.15,.33Z"/><path class="cls-1" d="M378.06,575.49c-.31,0-.47-.19-.47-.58,.08-26.58,.16-53.17,.23-79.76,0-.31,.15-.46,.47-.47,8.94-.03,13.41-.01,22.34,.06,4.42,.03,8.38,1.14,11.87,3.32,3.49,2.18,6.24,5.03,8.26,8.54,2.02,3.52,3.03,7.33,3.03,11.43,0,3.33-.76,6.41-2.27,9.25-1.51,2.84-3.32,5.13-5.41,6.88,2.25,2.28,4,4.9,5.24,7.86,1.24,2.96,1.86,6.07,1.86,9.32,0,4.49-1.09,8.57-3.26,12.25-2.17,3.68-5.1,6.59-8.79,8.75-3.69,2.16-7.78,3.22-12.28,3.19-8.33-.06-12.5-.07-20.83-.04Zm13.62-14.16c2.89,.01,4.33,.02,7.22,.04,2.79,.02,5.2-.98,7.22-3.01,2.02-2.03,3.03-4.44,3.03-7.22s-1.01-5.2-3.03-7.23c-2.02-2.03-4.42-3.06-7.22-3.08-2.84-.02-4.26-.03-7.1-.04-.05,8.22-.07,12.33-.12,20.55Zm.12-34.59c3.54,.01,5.31,.02,8.85,.05,2.71,.02,4.91-.9,6.58-2.78,1.67-1.88,2.5-3.94,2.5-6.18,0-2.48-.89-4.64-2.68-6.47-1.78-1.84-3.92-2.77-6.4-2.79-3.54-.03-5.31-.04-8.85-.05v18.23Z"/><path class="cls-1" d="M432.06,576.03c-.31,0-.47-.2-.47-.59,.04-26.55,.08-53.09,.12-79.64,0-.39,.19-.58,.58-.57,5.17,.12,7.75,.19,12.91,.34,.39,.01,.58,.21,.58,.6-.04,21.98-.08,43.96-.12,65.94,9.59,.28,14.38,.45,23.96,.84,.39,.02,.58,.22,.58,.6,0,5.25,0,7.87,0,13.12,0,.39-.19,.57-.58,.56-12.52-.51-25.05-.91-37.58-1.2Z"/><path class="cls-1" d="M473.82,576.82c4.8-26.36,9.61-52.72,14.42-79.08,.08-.3,.27-.45,.58-.44,6.74,.34,10.11,.52,16.86,.92,.31,.02,.5,.19,.58,.5,4.61,26.87,9.22,53.74,13.83,80.61,.08,.39-.08,.58-.47,.55-5.16-.34-7.74-.5-12.9-.8-.31-.02-.51-.22-.58-.61-.51-3.42-.77-5.13-1.28-8.55-6.32-.37-9.49-.54-15.81-.86-.51,3.36-.77,5.05-1.28,8.41-.08,.38-.27,.57-.58,.55-5.16-.26-7.74-.38-12.91-.6-.31-.01-.46-.21-.46-.6Zm17.56-20.07c4.46,.23,6.7,.35,11.16,.6-1.59-10.96-3.18-21.92-4.77-32.89-.28-1.73-.42-2.6-.7-4.33-.19,1.71-.28,2.56-.47,4.27-1.74,10.78-3.49,21.56-5.23,32.35Z"/><path class="cls-1" d="M528.46,580.47c-.62-.04-.93-.33-.93-.88-.04-26.36-.08-52.71-.12-79.07,0-.62,.31-.91,.93-.86,4.18,.29,6.27,.44,10.45,.75,6.55,15.76,13.09,31.52,19.62,47.29l-.58-44.86c0-.62,.35-.9,1.04-.84,4.6,.39,6.89,.59,11.49,1,.46,.04,.7,.37,.7,.99,.04,26.39,.08,52.79,.12,79.18,0,.46-.19,.68-.58,.64-4.08-.37-6.13-.55-10.21-.89-6.68-14.78-13.38-29.56-20.09-44.33,.27,13.95,.54,27.9,.81,41.85,0,.62-.35,.9-1.05,.85-4.65-.35-6.97-.52-11.62-.84Z"/><path class="cls-1" d="M602.61,588.11c-4.25-.45-8.1-1.91-11.54-4.38-3.44-2.47-6.16-5.58-8.17-9.33-2.01-3.75-3.02-7.83-3.02-12.24,.04-12.07,.08-24.14,.12-36.21,0-4.26,.99-8.05,2.96-11.39,1.97-3.33,4.68-5.89,8.12-7.68,3.44-1.78,7.28-2.46,11.54-2.01,4.25,.45,8.07,1.91,11.47,4.38,3.4,2.47,6.1,5.58,8.11,9.33,2.01,3.75,3.01,7.8,3.01,12.13v5.34c0,.31-.16,.45-.46,.41-5.19-.6-7.78-.9-12.97-1.47-.31-.03-.46-.21-.46-.52v-5.34c0-2.55-.83-4.85-2.49-6.89-1.66-2.04-3.73-3.19-6.2-3.45-2.78-.29-4.91,.44-6.38,2.18-1.47,1.75-2.2,3.86-2.2,6.33v36.22c0,2.86,.83,5.27,2.49,7.22,1.66,1.95,3.69,3.05,6.09,3.3,2.47,.26,4.54-.5,6.2-2.3,1.66-1.79,2.49-3.93,2.49-6.4v-5.34c0-.31,.15-.45,.46-.41,5.24,.58,7.85,.87,13.09,1.48,.31,.04,.46,.21,.46,.52v5.34c0,4.41-1.02,8.28-3.07,11.6-2.05,3.33-4.77,5.86-8.17,7.61-3.4,1.75-7.22,2.4-11.47,1.95Z"/><path class="cls-1" d="M655.17,594.33c-4.16-.55-7.96-2.1-11.39-4.66-3.43-2.56-6.19-5.72-8.27-9.5-2.08-3.77-3.13-7.79-3.13-12.04,.04-12.26,.08-24.52,.12-36.79,0-4.26,1.02-8,3.07-11.24,2.04-3.23,4.8-5.68,8.27-7.34,3.47-1.65,7.25-2.22,11.34-1.68,4.16,.55,7.94,2.1,11.33,4.65,3.39,2.55,6.11,5.72,8.15,9.49,2.04,3.77,3.06,7.79,3.06,12.04,.04,12.27,.08,24.54,.12,36.82,0,4.26-1.02,8-3.06,11.23-2.04,3.24-4.78,5.68-8.2,7.34-3.43,1.66-7.22,2.21-11.39,1.67Zm0-14.05c2.31,.3,4.34-.37,6.07-2.04,1.73-1.66,2.6-3.69,2.6-6.09-.04-12.27-.08-24.54-.11-36.82,0-2.55-.81-4.83-2.43-6.83-1.62-2-3.66-3.16-6.13-3.48-2.39-.31-4.44,.29-6.13,1.82-1.7,1.52-2.54,3.6-2.54,6.23v36.8c0,2.55,.85,4.85,2.54,6.88,1.7,2.03,3.74,3.21,6.13,3.52Z"/></g></g></g></svg>